{
.appVersion = "1286";
copyright = "Copyright © 2018 by Fasil Fikreab. All rights reserved.";
customParameters = (
{
name = "";
value = "New Value";
}
);
date = "2018-12-01 07:21:33 +0000";
designer = "Fasil Fikreab";
disablesAutomaticAlignment = 1;
familyName = "Abesha Fasil Caps";
featurePrefixes = (
{
automatic = 1;
code = "languagesystem DFLT dflt;\012";
name = Languagesystems;
}
);
features = (
{
automatic = 1;
code = "feature sups;\012feature frac;\012feature ordn;\012";
name = aalt;
},
{
automatic = 1;
code = "sub one by onesuperior;\012sub two by twosuperior;\012sub three by threesuperior;\012";
name = sups;
},
{
automatic = 1;
code = "sub one slash four by onequarter;\012sub one slash two by onehalf;\012sub three slash four by threequarters;\012";
name = frac;
},
{
automatic = 1;
code = "sub [zero one two three four five six seven eight nine] [A a]' by ordfeminine;\012sub [zero one two three four five six seven eight nine] [O o]' by ordmasculine;\012";
name = ordn;
},
{
automatic = 1;
code = "lookupflag IgnoreMarks;\012sub f f by uniFB00;\012sub f f i by uniFB03;\012sub f f l by uniFB04;\012";
name = dlig;
},
{
automatic = 1;

glyphs = (
{
glyphname = A;
lastChange = "2020-08-10 02:07:25 +0000";
layers = (
{
layerId = "A36D14D1-FF07-4574-A62D-30DF65569781";
paths = (
{
closed = 1;
nodes = (
"400 9 OFFCURVE",
"409 0 OFFCURVE",
"420 0 CURVE SMOOTH",
"461 0 LINE SMOOTH",
"472 0 OFFCURVE",
"481 9 OFFCURVE",
"481 20 CURVE SMOOTH",
"481 601 LINE SMOOTH",
"481 608 OFFCURVE",
"477 616 OFFCURVE",
"471 617 CURVE",
"114 694 LINE SMOOTH",
"97 698 OFFCURVE",
"80 692 OFFCURVE",
"80 673 CURVE SMOOTH",
"80 20 LINE SMOOTH",
"80 9 OFFCURVE",
"89 0 OFFCURVE",
"100 0 CURVE SMOOTH",
"141 0 LINE SMOOTH",
"152 0 OFFCURVE",
"161 9 OFFCURVE",
"161 20 CURVE SMOOTH",
"160 587 LINE SMOOTH",
"160 602 OFFCURVE",
"173 611 OFFCURVE",
"187 608 CURVE SMOOTH",
"384 565 LINE SMOOTH",
"393 563 OFFCURVE",
"399 557 OFFCURVE",
"399 547 CURVE SMOOTH",
"400 20 LINE SMOOTH"
);
},
{
closed = 1;
nodes = (
"140 260 LINE",
"411 260 LINE",
"411 308 LINE",
"140 308 LINE"
);
}
);
width = 561;
}
);
unicode = 0041;
},
{
glyphname = Adieresis;
lastChange = "2020-08-10 02:07:25 +0000";
layers = (
{
components = (
{
name = A;
}
);
layerId = "A36D14D1-FF07-4574-A62D-30DF65569781";
paths = (
{
closed = 1;
nodes = (
"275 873 LINE",
"275 769 LINE",
"185 769 LINE",
"185 873 LINE",
"185 873 LINE"
);
},
{
closed = 1;
nodes = (
"463 873 LINE",
"463 769 LINE",
"373 769 LINE",
"373 873 LINE",
"373 873 LINE"
);
}
);
userData = {
assembly = "PUSHW[ ]	/* 3 values pushed */\0123 0 3 \012CALL[ ]	/* CallFunction */\012PUSHW[ ]	/* 1 value pushed */\0123 \012SRP0[ ]	/* SetRefPoint0 */\012PUSHW[ ]	/* 3 values pushed */\0127 4 3 \012CALL[ ]	/* CallFunction */\012PUSHW[ ]	/* 1 value pushed */\0127 \012SRP0[ ]	/* SetRefPoint0 */\012PUSHW[ ]	/* 3 values pushed */\0128 0 3 \012SRP1[ ]	/* SetRefPoint1 */\012SRP2[ ]	/* SetRefPoint2 */\012IP[ ]	/* InterpolatePts */\012PUSHW[ ]	/* 3 values pushed */\01210 0 7 \012SRP1[ ]	/* SetRefPoint1 */\012SRP2[ ]	/* SetRefPoint2 */\012IP[ ]	/* InterpolatePts */\012PUSHW[ ]	/* 3 values pushed */\01211 4 7 \012SRP1[ ]	/* SetRefPoint1 */\012SRP2[ ]	/* SetRefPoint2 */\012IP[ ]	/* InterpolatePts */\012PUSHW[ ]	/* 1 value pushed */\0123 \012SRP0[ ]	/* SetRefPoint0 */\012PUSHW[ ]	/* 1 value pushed */\01212 \012MDRP[10000]	/* MoveDirectRelPt */\012PUSHW[ ]	/* 1 value pushed */\01212 \012MDAP[1]	/* MoveDirectAbsPt */\012PUSHW[ ]	/* 1 value pushed */\0124 \012SRP0[ ]	/* SetRefPoint0 */\012PUSHW[ ]	/* 1 value pushed */\01219 \012MDRP[10000]	/* MoveDirectRelPt */\012PUSHW[ ]	/* 1 value pushed */\01219 \012MDAP[1]	/* MoveDirectAbsPt */\012SVTCA[0]	/* SetFreedomAndProjectionVectorToAxis */\012PUSHW[ ]	/* 1 value pushed */\01213 \012MDAP[1]	/* MoveDirectAbsPt */\012PUSHW[ ]	/* 1 value pushed */\01217 \012MDAP[1]	/* MoveDirectAbsPt */\012PUSHW[ ]	/* 3 values pushed */\0120 1 3 \012CALL[ ]	/* CallFunction */\012PUSHW[ ]	/* 1 value pushed */\0120 \012SRP0[ ]	/* SetRefPoint0 */\012PUSHW[ ]	/* 3 values pushed */\0128 15 3 \012CALL[ ]	/* CallFunction */\012PUSHW[ ]	/* 1 value pushed */\0128 \012SRP0[ ]	/* SetRefPoint0 */\012PUSHW[ ]	/* 1 value pushed */\0120 \012SRP0[ ]	/* SetRefPoint0 */\012PUSHW[ ]	/* 1 value pushed */\0124 \012MDRP[10000]	/* MoveDirectRelPt */\012PUSHW[ ]	/* 1 value pushed */\0121 \012SRP0[ ]	/* SetRefPoint0 */\012PUSHW[ ]	/* 1 value pushed */\0125 \012MDRP[10000]	/* MoveDirectRelPt */\012IUP[0]	/* InterpolateUntPts */\012IUP[1]	/* InterpolateUntPts */";
};
width = 561;
}
);
note = Adieresis;
unicode = 00C4;
},
{
glyphname = Aring;
lastChange = "2020-08-10 02:07:25 +0000";
layers = (
{
components = (
{
name = A;
}
);
layerId = "A36D14D1-FF07-4574-A62D-30DF65569781";
paths = (
{
closed = 1;
nodes = (
"211 862 OFFCURVE",
"229 903 OFFCURVE",
"260 934 OFFCURVE",
"301 952 OFFCURVE",
"324 952 QCURVE SMOOTH",
"347 952 OFFCURVE",
"388 934 OFFCURVE",
"419 903 OFFCURVE",
"437 862 OFFCURVE",
"437 839 QCURVE SMOOTH",
"437 816 OFFCURVE",
"419 775 OFFCURVE",
"388 744 OFFCURVE",
"347 726 OFFCURVE",
"324 726 QCURVE SMOOTH",
"301 726 OFFCURVE",
"260 744 OFFCURVE",
"229 775 OFFCURVE",
"211 816 OFFCURVE",
"211 839 QCURVE",
"211 839 LINE"
);
},
{
closed = 1;
nodes = (
"256 810 OFFCURVE",
"295 771 OFFCURVE",
"324 771 QCURVE SMOOTH",
"353 771 OFFCURVE",
"392 810 OFFCURVE",
"392 839 QCURVE SMOOTH",
"392 868 OFFCURVE",
"353 907 OFFCURVE",
"324 907 QCURVE SMOOTH",
"295 907 OFFCURVE",
"256 868 OFFCURVE",
"256 839 QCURVE",
"256 839 LINE"
);
}
);
userData = {
assembly = "PUSHW[ ]	/* 1 value pushed */\01244 \012MDAP[1]	/* MoveDirectAbsPt */\012PUSHW[ ]	/* 1 value pushed */\01245 \012MDAP[1]	/* MoveDirectAbsPt */\012PUSHW[ ]	/* 1 value pushed */\01244 \012SRP0[ ]	/* SetRefPoint0 */\012PUSHW[ ]	/* 1 value pushed */\0120 \012MDRP[10000]	/* MoveDirectRelPt */\012PUSHW[ ]	/* 1 value pushed */\0120 \012MDAP[1]	/* MoveDirectAbsPt */\012PUSHW[ ]	/* 1 value pushed */\01245 \012SRP0[ ]	/* SetRefPoint0 */\012PUSHW[ ]	/* 1 value pushed */\01210 \012MDRP[11100]	/* MoveDirectRelPt */\012PUSHW[ ]	/* 1 value pushed */\0120 \012SRP0[ ]	/* SetRefPoint0 */\012PUSHW[ ]	/* 1 value pushed */\01220 \012MDRP[11100]	/* MoveDirectRelPt */\012NPUSHW[ ]	/* 27 values pushed */\0126 20 22 20 38 20 54 20 70 20 86 20 102 20 118 20 134 20 150 20 166 20 182 20 198 20 13 \012DELTAP1[ ]	/* DeltaExceptionP1 */\012NPUSHW[ ]	/* 5 values pushed */\012213 20 229 20 2 \012DELTAP1[ ]	/* DeltaExceptionP1 */\012PUSHW[ ]	/* 1 value pushed */\01210 \012SRP0[ ]	/* SetRefPoint0 */\012PUSHW[ ]	/* 1 value pushed */\01226 \012MDRP[11100]	/* MoveDirectRelPt */\012NPUSHW[ ]	/* 5 values pushed */\012218 26 234 26 2 \012DELTAP1[ ]	/* DeltaExceptionP1 */\012NPUSHW[ ]	/* 27 values pushed */\0129 26 25 26 41 26 57 26 73 26 89 26 105 26 121 26 137 26 153 26 169 26 185 26 201 26 13 \012DELTAP1[ ]	/* DeltaExceptionP1 */\012PUSHW[ ]	/* 1 value pushed */\01210 \012SRP0[ ]	/* SetRefPoint0 */\012PUSHW[ ]	/* 1 value pushed */\01235 \012MDRP[10000]	/* MoveDirectRelPt */\012PUSHW[ ]	/* 1 value pushed */\01235 \012MDAP[1]	/* MoveDirectAbsPt */\012SVTCA[0]	/* SetFreedomAndProjectionVectorToAxis */\012PUSHW[ ]	/* 1 value pushed */\01237 \012MDAP[1]	/* MoveDirectAbsPt */\012PUSHW[ ]	/* 1 value pushed */\01241 \012MDAP[1]	/* MoveDirectAbsPt */\012PUSHW[ ]	/* 3 values pushed */\01215 23 3 \012CALL[ ]	/* CallFunction */\012PUSHW[ ]	/* 1 value pushed */\01215 \012SRP0[ ]	/* SetRefPoint0 */\012PUSHW[ ]	/* 3 values pushed */\01232 39 3 \012CALL[ ]	/* CallFunction */\012PUSHW[ ]	/* 1 value pushed */\01232 \012SRP0[ ]	/* SetRefPoint0 */\012PUSHW[ ]	/* 3 values pushed */\01229 5 3 \012CALL[ ]	/* CallFunction */\012PUSHW[ ]	/* 1 value pushed */\01229 \012SRP0[ ]	/* SetRefPoint0 */\012IUP[0]	/* InterpolateUntPts */\012IUP[1]	/* InterpolateUntPts */";
};
width = 561;
}
);
note = Aring;
},
{
glyphname = B;
lastChange = "2020-08-10 02:07:25 +0000";
layers = (
{
layerId = "A36D14D1-FF07-4574-A62D-30DF65569781";
paths = (
{
closed = 1;
nodes = (
"140 253 LINE",
"445 253 LINE",
"445 301 LINE",
"140 301 LINE"
);
},
{
closed = 1;
nodes = (
"110 0 LINE",
"461 0 LINE",
"461 58 LINE",
"110 58 LINE"
);
},
{
closed = 1;
nodes = (
"429 300 LINE",
"431 0 LINE",
"461 0 LINE",
"472 0 OFFCURVE",
"511 14 OFFCURVE",
"511 25 CURVE SMOOTH",
"511 280 LINE SMOOTH",
"511 291 OFFCURVE",
"502 300 OFFCURVE",
"491 300 CURVE SMOOTH"
);
},
{
closed = 1;
nodes = (
"481 300 LINE",
"481 681 LINE SMOOTH",
"481 688 OFFCURVE",
"477 696 OFFCURVE",
"471 697 CURVE",
"114 694 LINE SMOOTH",
"97 694 OFFCURVE",
"80 692 OFFCURVE",
"80 673 CURVE SMOOTH",
"80 20 LINE SMOOTH",
"80 9 OFFCURVE",
"89 0 OFFCURVE",
"100 0 CURVE SMOOTH",
"141 0 LINE SMOOTH",
"152 0 OFFCURVE",
"161 9 OFFCURVE",
"161 20 CURVE",
"160 623 LINE",
"160 638 OFFCURVE",
"173 644 OFFCURVE",
"187 644 CURVE SMOOTH",
"384 645 LINE SMOOTH",
"393 645 OFFCURVE",
"399 637 OFFCURVE",
"399 627 CURVE SMOOTH",
"399 300 LINE"
);
}
);
width = 570;
}
);
unicode = 0042;
},
{
glyphname = C;
lastChange = "2020-08-10 02:07:25 +0000";
layers = (
{
layerId = "A36D14D1-FF07-4574-A62D-30DF65569781";
paths = (
{
closed = 1;
nodes = (
"480 684 LINE",
"479 689 OFFCURVE",
"475 693 OFFCURVE",
"471 694 CURVE",
"114 694 LINE SMOOTH",
"97 694 OFFCURVE",
"80 692 OFFCURVE",
"80 673 CURVE SMOOTH",
"80 20 LINE SMOOTH",
"80 9 OFFCURVE",
"89 0 OFFCURVE",
"100 0 CURVE SMOOTH",
"141 0 LINE SMOOTH",
"152 0 OFFCURVE",
"161 9 OFFCURVE",
"161 20 CURVE SMOOTH",
"160 587 LINE SMOOTH",
"160 602 OFFCURVE",
"173 608 OFFCURVE",
"187 608 CURVE SMOOTH",
"384 610 LINE SMOOTH",
"388 610 OFFCURVE",
"391 608 OFFCURVE",
"394 606 CURVE"
);
},
{
closed = 1;
nodes = (
"391 86 OFFCURVE",
"388 84 OFFCURVE",
"384 84 CURVE SMOOTH",
"187 86 LINE SMOOTH",
"173 86 OFFCURVE",
"160 92 OFFCURVE",
"160 107 CURVE SMOOTH",
"161 674 LINE SMOOTH",
"161 685 OFFCURVE",
"152 694 OFFCURVE",
"141 694 CURVE SMOOTH",
"100 694 LINE SMOOTH",
"89 694 OFFCURVE",
"80 685 OFFCURVE",
"80 674 CURVE SMOOTH",
"80 21 LINE SMOOTH",
"80 2 OFFCURVE",
"97 0 OFFCURVE",
"114 0 CURVE SMOOTH",
"471 0 LINE",
"475 1 OFFCURVE",
"479 5 OFFCURVE",
"480 10 CURVE",
"394 88 LINE"
);
}
);
width = 525;
}
);
unicode = 0043;
},
{
glyphname = D;
lastChange = "2020-08-10 02:07:25 +0000";
layers = (
{
layerId = "A36D14D1-FF07-4574-A62D-30DF65569781";
paths = (
{
closed = 1;
nodes = (
"104 14 LINE",
"167 14 LINE",
"167 686 LINE",
"104 686 LINE"
);
},
{
closed = 1;
nodes = (
"83 610 OFFCURVE",
"173 610 OFFCURVE",
"177 610 CURVE SMOOTH",
"374 608 LINE SMOOTH",
"388 608 OFFCURVE",
"401 602 OFFCURVE",
"401 587 CURVE SMOOTH",
"400 20 LINE SMOOTH",
"400 9 OFFCURVE",
"409 0 OFFCURVE",
"420 0 CURVE SMOOTH",
"461 0 LINE SMOOTH",
"472 0 OFFCURVE",
"481 9 OFFCURVE",
"481 20 CURVE SMOOTH",
"481 673 LINE SMOOTH",
"481 692 OFFCURVE",
"464 694 OFFCURVE",
"447 694 CURVE SMOOTH",
"90 694 LINE",
"86 693 OFFCURVE",
"82 689 OFFCURVE",
"81 684 CURVE",
"80 608 LINE"
);
},
{
closed = 1;
nodes = (
"81 10 LINE",
"82 5 OFFCURVE",
"86 1 OFFCURVE",
"90 0 CURVE",
"447 0 LINE SMOOTH",
"464 0 OFFCURVE",
"481 2 OFFCURVE",
"481 21 CURVE SMOOTH",
"481 674 LINE SMOOTH",
"481 685 OFFCURVE",
"472 694 OFFCURVE",
"461 694 CURVE SMOOTH",
"420 694 LINE SMOOTH",
"409 694 OFFCURVE",
"400 685 OFFCURVE",
"400 674 CURVE SMOOTH",
"401 107 LINE SMOOTH",
"401 92 OFFCURVE",
"388 86 OFFCURVE",
"374 86 CURVE SMOOTH",
"177 84 LINE SMOOTH",
"173 84 OFFCURVE",
"85 82 OFFCURVE",
"82 84 CURVE"
);
}
);
width = 561;
}
);
unicode = 0044;
},
{
glyphname = E;
lastChange = "2020-08-10 02:07:25 +0000";
layers = (
{
components = (
{
name = C;
}
);
layerId = "A36D14D1-FF07-4574-A62D-30DF65569781";
paths = (
{
closed = 1;
nodes = (
"127 257 LINE",
"395 257 LINE",
"395 313 LINE",
"127 313 LINE"
);
}
);
width = 560;
}
);
unicode = 0045;
},
{
glyphname = F;
lastChange = "2020-08-10 02:07:25 +0000";
layers = (
{
layerId = "A36D14D1-FF07-4574-A62D-30DF65569781";
paths = (
{
closed = 1;
nodes = (
"118 250 LINE",
"386 250 LINE",
"386 306 LINE",
"118 306 LINE"
);
},
{
closed = 1;
nodes = (
"480 684 LINE",
"479 689 OFFCURVE",
"475 693 OFFCURVE",
"471 694 CURVE",
"114 694 LINE SMOOTH",
"97 694 OFFCURVE",
"80 692 OFFCURVE",
"80 673 CURVE SMOOTH",
"80 20 LINE SMOOTH",
"80 9 OFFCURVE",
"89 0 OFFCURVE",
"100 0 CURVE SMOOTH",
"141 0 LINE SMOOTH",
"152 0 OFFCURVE",
"161 9 OFFCURVE",
"161 20 CURVE SMOOTH",
"160 587 LINE SMOOTH",
"160 602 OFFCURVE",
"173 608 OFFCURVE",
"187 608 CURVE SMOOTH",
"384 610 LINE SMOOTH",
"388 610 OFFCURVE",
"391 608 OFFCURVE",
"394 606 CURVE"
);
}
);
width = 536;
}
);
unicode = 0046;
},
{
glyphname = G;
lastChange = "2020-08-10 02:07:25 +0000";
layers = (
{
layerId = "A36D14D1-FF07-4574-A62D-30DF65569781";
paths = (
{
closed = 1;
nodes = (
"290 235 LINE",
"393 235 LINE",
"393 87 LINE",
"390 86 OFFCURVE",
"388 84 OFFCURVE",
"384 84 CURVE SMOOTH",
"187 86 LINE SMOOTH",
"175 86 OFFCURVE",
"164 90 OFFCURVE",
"161 101 CURVE",
"160 347 LINE",
"161 593 LINE",
"164 604 OFFCURVE",
"175 608 OFFCURVE",
"187 608 CURVE SMOOTH",
"384 610 LINE SMOOTH",
"388 610 OFFCURVE",
"391 608 OFFCURVE",
"394 606 CURVE",
"480 684 LINE",
"479 689 OFFCURVE",
"475 693 OFFCURVE",
"471 694 CURVE",
"100 694 LINE SMOOTH",
"89 694 OFFCURVE",
"80 685 OFFCURVE",
"80 674 CURVE SMOOTH",
"80 20 LINE SMOOTH",
"80 9 OFFCURVE",
"89 0 OFFCURVE",
"100 0 CURVE SMOOTH",
"460 0 LINE SMOOTH",
"471 0 OFFCURVE",
"480 9 OFFCURVE",
"480 20 CURVE SMOOTH",
"480 314 LINE",
"290 314 LINE"
);
}
);
width = 560;
}
);
unicode = 0047;
},
{
glyphname = uni021C;
lastChange = "2020-08-10 02:07:25 +0000";
layers = (
{
layerId = "A36D14D1-FF07-4574-A62D-30DF65569781";
paths = (
{
closed = 1;
nodes = (
"251 54 OFFCURVE",
"149 106 QCURVE",
"80 53 LINE",
"209 -24 OFFCURVE",
"343 -24 QCURVE SMOOTH",
"458 -24 OFFCURVE",
"535 45 QCURVE SMOOTH",
"609 112 OFFCURVE",
"609 206 QCURVE SMOOTH",
"609 271 OFFCURVE",
"586 310 QCURVE SMOOTH",
"559 355 OFFCURVE",
"495 384 QCURVE",
"586 446 OFFCURVE",
"586 532 QCURVE SMOOTH",
"586 627 OFFCURVE",
"521 685 QCURVE SMOOTH",
"454 744 OFFCURVE",
"338 744 QCURVE SMOOTH",
"212 744 OFFCURVE",
"90 625 QCURVE",
"157 562 LINE",
"258 666 OFFCURVE",
"332 666 QCURVE SMOOTH",
"404 666 OFFCURVE",
"487 599 OFFCURVE",
"487 540 QCURVE SMOOTH",
"487 468 OFFCURVE",
"433 444 QCURVE",
"392 422 OFFCURVE",
"291 421 QCURVE",
"291 342 LINE",
"321 344 OFFCURVE",
"334 344 QCURVE SMOOTH",
"512 344 OFFCURVE",
"512 211 QCURVE SMOOTH",
"512 140 OFFCURVE",
"466 101 QCURVE",
"417 54 OFFCURVE",
"331 54 QCURVE",
"331 54 LINE"
);
}
);
userData = {
assembly = "PUSHW[ ]	/* 1 value pushed */\01220 \012CALL[ ]	/* CallFunction */\012PUSHW[ ]	/* 4 values pushed */\01225 3 13 24 \012CALL[ ]	/* CallFunction */\012PUSHW[ ]	/* 1 value pushed */\01225 \012SRP0[ ]	/* SetRefPoint0 */\012PUSHW[ ]	/* 2 values pushed */\0124 3 \012MIRP[10100]	/* MoveIndirectRelPt */\012PUSHW[ ]	/* 2 values pushed */\01231 3 \012MIRP[10100]	/* MoveIndirectRelPt */\012SVTCA[0]	/* SetFreedomAndProjectionVectorToAxis */\012PUSHW[ ]	/* 4 values pushed */\0120 2 35 24 \012CALL[ ]	/* CallFunction */\012PUSHW[ ]	/* 4 values pushed */\01221 2 16 24 \012CALL[ ]	/* CallFunction */\012PUSHW[ ]	/* 4 values pushed */\0129 2 6 24 \012CALL[ ]	/* CallFunction */\012IUP[0]	/* InterpolateUntPts */\012IUP[1]	/* InterpolateUntPts */";
};
width = 660;
}
);
note = uni021C;
unicode = 021C;
},
{
glyphname = H;
lastChange = "2020-08-10 02:07:25 +0000";
layers = (
{
layerId = "A36D14D1-FF07-4574-A62D-30DF65569781";
paths = (
{
closed = 1;
nodes = (
"80 539 LINE",
"80 20 LINE SMOOTH",
"80 9 OFFCURVE",
"89 0 OFFCURVE",
"100 0 CURVE SMOOTH",
"141 0 LINE SMOOTH",
"152 0 OFFCURVE",
"161 9 OFFCURVE",
"161 20 CURVE SMOOTH",
"160 537 LINE"
);
},
{
closed = 1;
nodes = (
"140 260 LINE",
"411 260 LINE",
"411 308 LINE",
"140 308 LINE"
);
},
{
closed = 1;
nodes = (
"399 519 LINE",
"400 20 LINE SMOOTH",
"400 9 OFFCURVE",
"409 0 OFFCURVE",
"420 0 CURVE SMOOTH",
"461 0 LINE SMOOTH",
"472 0 OFFCURVE",
"481 9 OFFCURVE",
"481 20 CURVE SMOOTH",
"481 540 LINE"
);
},
{
closed = 1;
nodes = (
"161 680 LINE SMOOTH",
"161 691 OFFCURVE",
"152 700 OFFCURVE",
"141 700 CURVE SMOOTH",
"100 700 LINE SMOOTH",
"89 700 OFFCURVE",
"80 691 OFFCURVE",
"80 680 CURVE SMOOTH",
"80 161 LINE",
"160 163 LINE"
);
},
{
closed = 1;
nodes = (
"481 680 LINE SMOOTH",
"481 691 OFFCURVE",
"472 700 OFFCURVE",
"461 700 CURVE SMOOTH",
"420 700 LINE SMOOTH",
"409 700 OFFCURVE",
"400 691 OFFCURVE",
"400 680 CURVE SMOOTH",
"399 181 LINE",
"481 160 LINE"
);
}
);
width = 561;
}
);
unicode = 0048;
},
{
glyphname = I;
lastChange = "2020-08-10 02:07:25 +0000";
layers = (
{
layerId = "A36D14D1-FF07-4574-A62D-30DF65569781";
paths = (
{
closed = 1;
nodes = (
"161 680 LINE SMOOTH",
"161 691 OFFCURVE",
"152 700 OFFCURVE",
"141 700 CURVE SMOOTH",
"100 700 LINE SMOOTH",
"89 700 OFFCURVE",
"80 691 OFFCURVE",
"80 680 CURVE SMOOTH",
"80 161 LINE",
"160 163 LINE"
);
},
{
closed = 1;
nodes = (
"80 540 LINE",
"80 21 LINE SMOOTH",
"80 10 OFFCURVE",
"89 1 OFFCURVE",
"100 1 CURVE SMOOTH",
"141 1 LINE SMOOTH",
"152 1 OFFCURVE",
"161 10 OFFCURVE",
"161 21 CURVE SMOOTH",
"160 538 LINE"
);
}
);
width = 241;
}
);
unicode = 0049;
},
{
glyphname = Icircumflex;
lastChange = "2020-08-10 02:07:25 +0000";
layers = (
{
layerId = "A36D14D1-FF07-4574-A62D-30DF65569781";
paths = (
{
closed = 1;
nodes = (
"215 908 LINE",
"319 765 LINE",
"235 765 LINE",
"166 861 LINE",
"96 765 LINE",
"20 765 LINE",
"122 908 LINE",
"122 908 LINE"
);
},
{
closed = 1;
nodes = (
"216 714 LINE",
"216 0 LINE",
"121 0 LINE",
"121 714 LINE",
"121 714 LINE"
);
}
);
userData = {
assembly = "PUSHW[ ]	/* 3 values pushed */\01210 7 3 \012CALL[ ]	/* CallFunction */\012PUSHW[ ]	/* 1 value pushed */\01210 \012SRP0[ ]	/* SetRefPoint0 */\012PUSHW[ ]	/* 3 values pushed */\0123 7 10 \012SRP1[ ]	/* SetRefPoint1 */\012SRP2[ ]	/* SetRefPoint2 */\012IP[ ]	/* InterpolatePts */\012SVTCA[0]	/* SetFreedomAndProjectionVectorToAxis */\012PUSHW[ ]	/* 1 value pushed */\0128 \012MDAP[1]	/* MoveDirectAbsPt */\012PUSHW[ ]	/* 1 value pushed */\0120 \012MDAP[1]	/* MoveDirectAbsPt */\012PUSHW[ ]	/* 3 values pushed */\0121 8 0 \012SRP1[ ]	/* SetRefPoint1 */\012SRP2[ ]	/* SetRefPoint2 */\012IP[ ]	/* InterpolatePts */\012PUSHW[ ]	/* 3 values pushed */\0123 8 0 \012SRP1[ ]	/* SetRefPoint1 */\012SRP2[ ]	/* SetRefPoint2 */\012IP[ ]	/* InterpolatePts */\012PUSHW[ ]	/* 3 values pushed */\0125 8 0 \012SRP1[ ]	/* SetRefPoint1 */\012SRP2[ ]	/* SetRefPoint2 */\012IP[ ]	/* InterpolatePts */\012IUP[0]	/* InterpolateUntPts */\012IUP[1]	/* InterpolateUntPts */";
};
width = 339;
}
);
note = Icircumflex;
unicode = 00CE;
},
{
glyphname = Idieresis;
lastChange = "2020-08-10 02:07:25 +0000";
layers = (
{
layerId = "A36D14D1-FF07-4574-A62D-30DF65569781";
paths = (
{
closed = 1;
nodes = (
"109 873 LINE",
"109 769 LINE",
"20 769 LINE",
"20 873 LINE",
"20 873 LINE"
);
},
{
closed = 1;
nodes = (
"297 873 LINE",
"297 769 LINE",
"207 769 LINE",
"207 873 LINE",
"207 873 LINE"
);
},
{
closed = 1;
nodes = (
"205 714 LINE",
"205 0 LINE",
"110 0 LINE",
"110 714 LINE",
"110 714 LINE"
);
}
);
userData = {
assembly = "PUSHW[ ]	/* 3 values pushed */\0123 0 3 \012CALL[ ]	/* CallFunction */\012PUSHW[ ]	/* 1 value pushed */\0123 \012SRP0[ ]	/* SetRefPoint0 */\012PUSHW[ ]	/* 1 value pushed */\01211 \012MDRP[11100]	/* MoveDirectRelPt */\012PUSHW[ ]	/* 1 value pushed */\0124 \012MDRP[10000]	/* MoveDirectRelPt */\012PUSHW[ ]	/* 1 value pushed */\0124 \012MDAP[1]	/* MoveDirectAbsPt */\012PUSHW[ ]	/* 1 value pushed */\01211 \012SRP0[ ]	/* SetRefPoint0 */\012PUSHW[ ]	/* 1 value pushed */\0127 \012MDRP[11100]	/* MoveDirectRelPt */\012PUSHW[ ]	/* 1 value pushed */\0123 \012SRP0[ ]	/* SetRefPoint0 */\012PUSHW[ ]	/* 1 value pushed */\0128 \012MDRP[10000]	/* MoveDirectRelPt */\012PUSHW[ ]	/* 1 value pushed */\0128 \012MDAP[1]	/* MoveDirectAbsPt */\012PUSHW[ ]	/* 1 value pushed */\0124 \012SRP0[ ]	/* SetRefPoint0 */\012PUSHW[ ]	/* 1 value pushed */\01210 \012MDRP[10000]	/* MoveDirectRelPt */\012PUSHW[ ]	/* 1 value pushed */\01210 \012MDAP[1]	/* MoveDirectAbsPt */\012SVTCA[0]	/* SetFreedomAndProjectionVectorToAxis */\012PUSHW[ ]	/* 1 value pushed */\0129 \012MDAP[1]	/* MoveDirectAbsPt */\012PUSHW[ ]	/* 3 values pushed */\0120 1 3 \012CALL[ ]	/* CallFunction */\012PUSHW[ ]	/* 1 value pushed */\0120 \012SRP0[ ]	/* SetRefPoint0 */\012PUSHW[ ]	/* 1 value pushed */\0124 \012MDRP[10000]	/* MoveDirectRelPt */\012PUSHW[ ]	/* 1 value pushed */\0121 \012SRP0[ ]	/* SetRefPoint0 */\012PUSHW[ ]	/* 1 value pushed */\0125 \012MDRP[10000]	/* MoveDirectRelPt */\012IUP[0]	/* InterpolateUntPts */\012IUP[1]	/* InterpolateUntPts */";
};
width = 317;
}
);
note = Idieresis;
unicode = 00CF;
},
{
glyphname = J;
lastChange = "2020-08-10 02:07:25 +0000";
layers = (
{
layerId = "A36D14D1-FF07-4574-A62D-30DF65569781";
paths = (
{
closed = 1;
nodes = (
"376 587 LINE",
"375 20 LINE SMOOTH",
"375 9 OFFCURVE",
"384 0 OFFCURVE",
"395 0 CURVE SMOOTH",
"436 0 LINE SMOOTH",
"447 0 OFFCURVE",
"456 9 OFFCURVE",
"456 20 CURVE SMOOTH",
"456 673 LINE"
);
},
{
closed = 1;
nodes = (
"395 694 LINE SMOOTH",
"384 694 OFFCURVE",
"375 685 OFFCURVE",
"375 674 CURVE SMOOTH",
"376 107 LINE SMOOTH",
"376 92 OFFCURVE",
"363 86 OFFCURVE",
"349 86 CURVE SMOOTH",
"152 84 LINE SMOOTH",
"149 84 OFFCURVE",
"146 85 OFFCURVE",
"144 87 CURVE",
"144 166 LINE",
"56 166 LINE",
"56 20 LINE SMOOTH",
"56 9 OFFCURVE",
"65 0 OFFCURVE",
"76 0 CURVE SMOOTH",
"422 0 LINE SMOOTH",
"439 0 OFFCURVE",
"456 2 OFFCURVE",
"456 21 CURVE SMOOTH",
"456 674 LINE SMOOTH",
"456 685 OFFCURVE",
"447 694 OFFCURVE",
"436 694 CURVE SMOOTH"
);
}
);
width = 536;
}
);
unicode = 004A;
},
{
glyphname = K;
lastChange = "2020-08-10 02:07:25 +0000";
layers = (
{
layerId = "A36D14D1-FF07-4574-A62D-30DF65569781";
paths = (
{
closed = 1;
nodes = (
"161 680 LINE SMOOTH",
"161 691 OFFCURVE",
"152 700 OFFCURVE",
"141 700 CURVE SMOOTH",
"100 700 LINE SMOOTH",
"89 700 OFFCURVE",
"80 691 OFFCURVE",
"80 680 CURVE SMOOTH",
"80 161 LINE",
"160 163 LINE"
);
},
{
closed = 1;
nodes = (
"80 540 LINE",
"80 21 LINE SMOOTH",
"80 10 OFFCURVE",
"89 1 OFFCURVE",
"100 1 CURVE SMOOTH",
"141 1 LINE SMOOTH",
"152 1 OFFCURVE",
"161 10 OFFCURVE",
"161 21 CURVE SMOOTH",
"160 538 LINE"
);
},
{
closed = 1;
nodes = (
"433 647 LINE SMOOTH",
"440 655 OFFCURVE",
"439 668 OFFCURVE",
"431 675 CURVE SMOOTH",
"399 701 LINE SMOOTH",
"391 708 OFFCURVE",
"378 707 OFFCURVE",
"371 699 CURVE SMOOTH",
"88 361 LINE",
"150 311 LINE"
);
},
{
closed = 1;
nodes = (
"457 -4 LINE SMOOTH",
"464 -12 OFFCURVE",
"477 -13 OFFCURVE",
"485 -6 CURVE SMOOTH",
"517 20 LINE SMOOTH",
"525 27 OFFCURVE",
"526 40 OFFCURVE",
"519 48 CURVE SMOOTH",
"216 396 LINE",
"156 343 LINE"
);
}
);
width = 546;
}
);
unicode = 004B;
},
{
glyphname = L;
lastChange = "2020-08-10 02:07:25 +0000";
layers = (
{
layerId = "A36D14D1-FF07-4574-A62D-30DF65569781";
paths = (
{
closed = 1;
nodes = (
"80 20 LINE SMOOTH",
"80 9 OFFCURVE",
"89 0 OFFCURVE",
"100 0 CURVE SMOOTH",
"141 0 LINE SMOOTH",
"152 0 OFFCURVE",
"161 9 OFFCURVE",
"161 20 CURVE SMOOTH",
"160 587 LINE",
"80 673 LINE"
);
},
{
closed = 1;
nodes = (
"422 95 LINE",
"422 87 LINE",
"420 85 OFFCURVE",
"417 84 OFFCURVE",
"414 84 CURVE SMOOTH",
"187 86 LINE SMOOTH",
"173 86 OFFCURVE",
"160 92 OFFCURVE",
"160 107 CURVE SMOOTH",
"161 674 LINE SMOOTH",
"161 685 OFFCURVE",
"152 694 OFFCURVE",
"141 694 CURVE SMOOTH",
"100 694 LINE SMOOTH",
"89 694 OFFCURVE",
"80 685 OFFCURVE",
"80 674 CURVE SMOOTH",
"80 21 LINE SMOOTH",
"80 2 OFFCURVE",
"97 0 OFFCURVE",
"114 0 CURVE SMOOTH",
"490 0 LINE SMOOTH",
"501 0 OFFCURVE",
"510 9 OFFCURVE",
"510 20 CURVE SMOOTH",
"510 98 LINE"
);
}
);
width = 532;
}
);
unicode = 004C;
},
{
glyphname = Lslash;
lastChange = "2020-08-05 16:35:22 +0000";
layers = (
{
layerId = "A36D14D1-FF07-4574-A62D-30DF65569781";
paths = (
{
closed = 1;
nodes = (
"0 184 LINE",
"0 260 LINE",
"78 316 LINE",
"78 714 LINE",
"173 714 LINE",
"173 384 LINE",
"401 544 LINE",
"401 468 LINE",
"173 308 LINE",
"173 80 LINE",
"551 80 LINE",
"551 0 LINE",
"78 0 LINE",
"78 240 LINE",
"78 240 LINE"
);
}
);
userData = {
assembly = "PUSHW[ ]	/* 3 values pushed */\0125 12 3 \012CALL[ ]	/* CallFunction */\012PUSHW[ ]	/* 1 value pushed */\0125 \012SRP0[ ]	/* SetRefPoint0 */\012PUSHW[ ]	/* 1 value pushed */\01211 \012MDRP[11100]	/* MoveDirectRelPt */\012PUSHW[ ]	/* 1 value pushed */\0120 \012MDRP[10000]	/* MoveDirectRelPt */\012PUSHW[ ]	/* 1 value pushed */\0125 \012SRP0[ ]	/* SetRefPoint0 */\012PUSHW[ ]	/* 1 value pushed */\0128 \012MDRP[10000]	/* MoveDirectRelPt */\012SVTCA[0]	/* SetFreedomAndProjectionVectorToAxis */\012PUSHW[ ]	/* 1 value pushed */\0129 \012MDAP[1]	/* MoveDirectAbsPt */\012PUSHW[ ]	/* 3 values pushed */\0124 1 3 \012CALL[ ]	/* CallFunction */\012PUSHW[ ]	/* 1 value pushed */\0124 \012SRP0[ ]	/* SetRefPoint0 */\012IUP[0]	/* InterpolateUntPts */\012IUP[1]	/* InterpolateUntPts */";
};
width = 556;
}
);
note = Lslash;
unicode = 0141;
},
{
glyphname = M;
lastChange = "2020-08-10 02:07:25 +0000";
layers = (
{
layerId = "A36D14D1-FF07-4574-A62D-30DF65569781";
paths = (
{
closed = 1;
nodes = (
"575 0 LINE SMOOTH",
"586 0 OFFCURVE",
"595 9 OFFCURVE",
"595 20 CURVE SMOOTH",
"595 676 LINE SMOOTH",
"595 697 OFFCURVE",
"568 701 OFFCURVE",
"557 701 CURVE SMOOTH",
"399 701 LINE SMOOTH",
"388 701 OFFCURVE",
"374 682 OFFCURVE",
"373 672 CURVE SMOOTH",
"339 198 LINE",
"313 676 LINE SMOOTH",
"312 686 OFFCURVE",
"298 701 OFFCURVE",
"287 701 CURVE SMOOTH",
"143 702 LINE SMOOTH",
"107 702 OFFCURVE",
"80 700 OFFCURVE",
"80 672 CURVE SMOOTH",
"80 20 LINE SMOOTH",
"80 9 OFFCURVE",
"89 0 OFFCURVE",
"100 0 CURVE SMOOTH",
"123 0 LINE SMOOTH",
"134 0 OFFCURVE",
"143 9 OFFCURVE",
"143 20 CURVE SMOOTH",
"147 606 LINE SMOOTH",
"147 625 OFFCURVE",
"165 628 OFFCURVE",
"194 628 CURVE SMOOTH",
"246 628 OFFCURVE",
"242 615 OFFCURVE",
"243 605 CURVE SMOOTH",
"282 119 LINE SMOOTH",
"286 71 OFFCURVE",
"399 66 OFFCURVE",
"403 117 CURVE SMOOTH",
"439 603 LINE SMOOTH",
"440 613 OFFCURVE",
"447 623 OFFCURVE",
"481 623 CURVE SMOOTH",
"519 623 OFFCURVE",
"528 619 OFFCURVE",
"528 605 CURVE SMOOTH",
"529 20 LINE SMOOTH",
"529 9 OFFCURVE",
"538 0 OFFCURVE",
"549 0 CURVE SMOOTH"
);
}
);
width = 675;
}
);
unicode = 004D;
},
{
glyphname = N;
lastChange = "2020-08-10 02:07:25 +0000";
layers = (
{
layerId = "A36D14D1-FF07-4574-A62D-30DF65569781";
paths = (
{
closed = 1;
nodes = (
"398 705 LINE SMOOTH",
"387 705 OFFCURVE",
"378 696 OFFCURVE",
"378 685 CURVE SMOOTH",
"384 123 LINE SMOOTH",
"384 112 OFFCURVE",
"379 103 OFFCURVE",
"369 103 CURVE SMOOTH",
"360 103 OFFCURVE",
"356 110 OFFCURVE",
"354 121 CURVE SMOOTH",
"245 680 LINE",
"243 688 OFFCURVE",
"235 694 OFFCURVE",
"226 694 CURVE SMOOTH",
"114 694 LINE SMOOTH",
"95 694 OFFCURVE",
"80 692 OFFCURVE",
"80 673 CURVE SMOOTH",
"80 20 LINE SMOOTH",
"80 9 OFFCURVE",
"89 0 OFFCURVE",
"100 0 CURVE SMOOTH",
"141 0 LINE SMOOTH",
"152 0 OFFCURVE",
"161 9 OFFCURVE",
"161 20 CURVE",
"160 587 LINE SMOOTH",
"160 602 OFFCURVE",
"192 600 OFFCURVE",
"195 587 CURVE SMOOTH",
"318 16 LINE SMOOTH",
"322 -2 OFFCURVE",
"378 1 OFFCURVE",
"388 1 CURVE SMOOTH",
"439 1 LINE SMOOTH",
"450 1 OFFCURVE",
"459 13 OFFCURVE",
"459 24 CURVE SMOOTH",
"459 685 LINE SMOOTH",
"459 696 OFFCURVE",
"450 705 OFFCURVE",
"439 705 CURVE SMOOTH"
);
}
);
width = 539;
}
);
unicode = 004E;
},
{
glyphname = O;
lastChange = "2020-08-10 02:07:25 +0000";
layers = (
{
layerId = "A36D14D1-FF07-4574-A62D-30DF65569781";
paths = (
{
closed = 1;
nodes = (
"481 189 LINE",
"481 680 LINE SMOOTH",
"481 687 OFFCURVE",
"477 695 OFFCURVE",
"471 696 CURVE",
"114 694 LINE SMOOTH",
"97 694 OFFCURVE",
"80 692 OFFCURVE",
"80 673 CURVE SMOOTH",
"80 186 LINE",
"161 187 LINE",
"160 587 LINE SMOOTH",
"160 602 OFFCURVE",
"173 608 OFFCURVE",
"187 608 CURVE SMOOTH",
"384 605 LINE SMOOTH",
"393 605 OFFCURVE",
"399 597 OFFCURVE",
"399 587 CURVE SMOOTH",
"400 189 LINE"
);
},
{
closed = 1;
nodes = (
"399 105 LINE SMOOTH",
"399 95 OFFCURVE",
"393 87 OFFCURVE",
"384 87 CURVE SMOOTH",
"187 84 LINE SMOOTH",
"173 84 OFFCURVE",
"160 90 OFFCURVE",
"160 105 CURVE SMOOTH",
"161 505 LINE",
"80 506 LINE",
"80 19 LINE SMOOTH",
"80 0 OFFCURVE",
"97 -2 OFFCURVE",
"114 -2 CURVE SMOOTH",
"471 -4 LINE",
"477 -3 OFFCURVE",
"481 5 OFFCURVE",
"481 12 CURVE SMOOTH",
"481 503 LINE",
"400 503 LINE"
);
}
);
width = 561;
}
);
unicode = 004F;
},
{
glyphname = OE;
lastChange = "2020-08-05 16:35:22 +0000";
layers = (
{
layerId = "A36D14D1-FF07-4574-A62D-30DF65569781";
paths = (
{
closed = 1;
nodes = (
"549 69 LINE",
"536 48 OFFCURVE",
"496 16 OFFCURVE",
"447 -5 OFFCURVE",
"392 -16 OFFCURVE",
"365 -16 QCURVE SMOOTH",
"286 -16 OFFCURVE",
"164 41 OFFCURVE",
"81 141 OFFCURVE",
"38 276 OFFCURVE",
"38 355 QCURVE SMOOTH",
"38 436 OFFCURVE",
"83 573 OFFCURVE",
"169 674 OFFCURVE",
"294 731 OFFCURVE",
"373 731 QCURVE SMOOTH",
"398 731 OFFCURVE",
"451 722 OFFCURVE",
"499 703 OFFCURVE",
"538 675 OFFCURVE",
"549 655 QCURVE",
"551 655 LINE",
"551 714 LINE",
"1028 714 LINE",
"1028 634 LINE",
"646 634 LINE",
"646 407 LINE",
"996 407 LINE",
"996 327 LINE",
"646 327 LINE",
"646 80 LINE",
"1034 80 LINE",
"1034 0 LINE",
"551 0 LINE",
"551 69 LINE",
"551 69 LINE"
);
},
{
closed = 1;
nodes = (
"410 63 OFFCURVE",
"475 84 OFFCURVE",
"523 121 OFFCURVE",
"551 173 OFFCURVE",
"551 204 QCURVE SMOOTH",
"551 505 LINE SMOOTH",
"551 521 OFFCURVE",
"547 557 OFFCURVE",
"536 574 QCURVE SMOOTH",
"516 605 OFFCURVE",
"431 651 OFFCURVE",
"374 651 QCURVE SMOOTH",
"313 651 OFFCURVE",
"223 603 OFFCURVE",
"163 520 OFFCURVE",
"133 411 OFFCURVE",
"133 351 QCURVE SMOOTH",
"133 291 OFFCURVE",
"164 186 OFFCURVE",
"224 108 OFFCURVE",
"314 63 OFFCURVE",
"372 63 QCURVE",
"372 63 LINE"
);
}
);
userData = {
assembly = "PUSHW[ ]	/* 1 value pushed */\01257 \012MDAP[1]	/* MoveDirectAbsPt */\012PUSHW[ ]	/* 3 values pushed */\0124 0 3 \012CALL[ ]	/* CallFunction */\012PUSHW[ ]	/* 1 value pushed */\0124 \012SRP0[ ]	/* SetRefPoint0 */\012PUSHW[ ]	/* 1 value pushed */\0128 \012MDRP[10000]	/* MoveDirectRelPt */\012PUSHW[ ]	/* 1 value pushed */\0120 \012SRP0[ ]	/* SetRefPoint0 */\012PUSHW[ ]	/* 1 value pushed */\01212 \012MDRP[10000]	/* MoveDirectRelPt */\012PUSHW[ ]	/* 1 value pushed */\0120 \012SRP0[ ]	/* SetRefPoint0 */\012PUSHW[ ]	/* 1 value pushed */\01214 \012MDRP[10000]	/* MoveDirectRelPt */\012PUSHW[ ]	/* 1 value pushed */\01214 \012MDAP[1]	/* MoveDirectAbsPt */\012PUSHW[ ]	/* 1 value pushed */\01257 \012SRP0[ ]	/* SetRefPoint0 */\012PUSHW[ ]	/* 1 value pushed */\01224 \012MDRP[10000]	/* MoveDirectRelPt */\012PUSHW[ ]	/* 1 value pushed */\01224 \012MDAP[1]	/* MoveDirectAbsPt */\012PUSHW[ ]	/* 1 value pushed */\01240 \012MDRP[11100]	/* MoveDirectRelPt */\012NPUSHW[ ]	/* 27 values pushed */\0126 40 22 40 38 40 54 40 70 40 86 40 102 40 118 40 134 40 150 40 166 40 182 40 198 40 13 \012DELTAP1[ ]	/* DeltaExceptionP1 */\012NPUSHW[ ]	/* 5 values pushed */\012213 40 229 40 2 \012DELTAP1[ ]	/* DeltaExceptionP1 */\012PUSHW[ ]	/* 1 value pushed */\0120 \012SRP0[ ]	/* SetRefPoint0 */\012PUSHW[ ]	/* 1 value pushed */\01251 \012MDRP[10000]	/* MoveDirectRelPt */\012SVTCA[0]	/* SetFreedomAndProjectionVectorToAxis */\012PUSHW[ ]	/* 3 values pushed */\01235 29 3 \012CALL[ ]	/* CallFunction */\012PUSHW[ ]	/* 1 value pushed */\01235 \012SRP0[ ]	/* SetRefPoint0 */\012PUSHW[ ]	/* 3 values pushed */\0124 1 3 \012CALL[ ]	/* CallFunction */\012PUSHW[ ]	/* 1 value pushed */\0124 \012SRP0[ ]	/* SetRefPoint0 */\012PUSHW[ ]	/* 3 values pushed */\01219 45 3 \012CALL[ ]	/* CallFunction */\012PUSHW[ ]	/* 1 value pushed */\01219 \012SRP0[ ]	/* SetRefPoint0 */\012PUSHW[ ]	/* 3 values pushed */\01212 9 3 \012CALL[ ]	/* CallFunction */\012PUSHW[ ]	/* 1 value pushed */\01212 \012SRP0[ ]	/* SetRefPoint0 */\012PUSHW[ ]	/* 3 values pushed */\0128 5 3 \012CALL[ ]	/* CallFunction */\012PUSHW[ ]	/* 1 value pushed */\0128 \012SRP0[ ]	/* SetRefPoint0 */\012PUSHW[ ]	/* 3 values pushed */\01214 45 19 \012SRP1[ ]	/* SetRefPoint1 */\012SRP2[ ]	/* SetRefPoint2 */\012IP[ ]	/* InterpolatePts */\012IUP[0]	/* InterpolateUntPts */\012IUP[1]	/* InterpolateUntPts */";
};
width = 1074;
}
);
note = OE;
unicode = 0152;
},
{
glyphname = P;
lastChange = "2020-08-10 02:07:25 +0000";
layers = (
{
layerId = "A36D14D1-FF07-4574-A62D-30DF65569781";
paths = (
{
closed = 1;
nodes = (
"140 253 LINE",
"461 253 LINE SMOOTH",
"472 253 OFFCURVE",
"481 262 OFFCURVE",
"481 273 CURVE SMOOTH",
"481 301 LINE",
"140 301 LINE"
);
},
{
closed = 1;
nodes = (
"481 300 LINE",
"481 681 LINE SMOOTH",
"481 688 OFFCURVE",
"477 696 OFFCURVE",
"471 697 CURVE",
"114 694 LINE SMOOTH",
"97 694 OFFCURVE",
"80 692 OFFCURVE",
"80 673 CURVE SMOOTH",
"80 20 LINE SMOOTH",
"80 9 OFFCURVE",
"89 0 OFFCURVE",
"100 0 CURVE SMOOTH",
"141 0 LINE SMOOTH",
"152 0 OFFCURVE",
"161 9 OFFCURVE",
"161 20 CURVE",
"160 623 LINE",
"160 638 OFFCURVE",
"173 644 OFFCURVE",
"187 644 CURVE SMOOTH",
"384 645 LINE SMOOTH",
"393 645 OFFCURVE",
"399 637 OFFCURVE",
"399 627 CURVE SMOOTH",
"399 300 LINE"
);
}
);
width = 561;
}
);
unicode = 0050;
},
{
glyphname = Thorn;
lastChange = "2020-08-05 16:35:22 +0000";
layers = (
{
layerId = "A36D14D1-FF07-4574-A62D-30DF65569781";
paths = (
{
closed = 1;
nodes = (
"359 258 LINE SMOOTH",
"440 257 OFFCURVE",
"515 324 OFFCURVE",
"515 388 QCURVE SMOOTH",
"515 454 OFFCURVE",
"440 520 OFFCURVE",
"359 520 QCURVE SMOOTH",
"173 520 LINE",
"173 258 LINE",
"173 258 LINE"
);
},
{
closed = 1;
nodes = (
"78 714 LINE",
"173 714 LINE",
"173 600 LINE",
"391 600 LINE SMOOTH",
"499 600 OFFCURVE",
"610 488 OFFCURVE",
"610 388 QCURVE SMOOTH",
"610 288 OFFCURVE",
"499 177 OFFCURVE",
"391 178 QCURVE SMOOTH",
"173 178 LINE",
"173 0 LINE",
"78 0 LINE",
"78 0 LINE"
);
}
);
userData = {
assembly = "PUSHW[ ]	/* 1 value pushed */\01223 \012MDAP[1]	/* MoveDirectAbsPt */\012PUSHW[ ]	/* 3 values pushed */\01210 9 3 \012CALL[ ]	/* CallFunction */\012PUSHW[ ]	/* 1 value pushed */\01210 \012SRP0[ ]	/* SetRefPoint0 */\012PUSHW[ ]	/* 1 value pushed */\0120 \012MDRP[10000]	/* MoveDirectRelPt */\012PUSHW[ ]	/* 1 value pushed */\01223 \012SRP0[ ]	/* SetRefPoint0 */\012PUSHW[ ]	/* 1 value pushed */\01215 \012MDRP[11100]	/* MoveDirectRelPt */\012PUSHW[ ]	/* 1 value pushed */\0125 \012MDRP[11100]	/* MoveDirectRelPt */\012NPUSHW[ ]	/* 5 values pushed */\012218 5 234 5 2 \012DELTAP1[ ]	/* DeltaExceptionP1 */\012NPUSHW[ ]	/* 27 values pushed */\0129 5 25 5 41 5 57 5 73 5 89 5 105 5 121 5 137 5 153 5 169 5 185 5 201 5 13 \012DELTAP1[ ]	/* DeltaExceptionP1 */\012PUSHW[ ]	/* 1 value pushed */\01210 \012SRP0[ ]	/* SetRefPoint0 */\012PUSHW[ ]	/* 1 value pushed */\01219 \012MDRP[10000]	/* MoveDirectRelPt */\012SVTCA[0]	/* SetFreedomAndProjectionVectorToAxis */\012PUSHW[ ]	/* 1 value pushed */\01220 \012MDAP[1]	/* MoveDirectAbsPt */\012PUSHW[ ]	/* 1 value pushed */\0129 \012MDAP[1]	/* MoveDirectAbsPt */\012PUSHW[ ]	/* 3 values pushed */\0120 11 3 \012CALL[ ]	/* CallFunction */\012PUSHW[ ]	/* 1 value pushed */\0120 \012SRP0[ ]	/* SetRefPoint0 */\012PUSHW[ ]	/* 3 values pushed */\01219 1 3 \012CALL[ ]	/* CallFunction */\012PUSHW[ ]	/* 1 value pushed */\01219 \012SRP0[ ]	/* SetRefPoint0 */\012IUP[0]	/* InterpolateUntPts */\012IUP[1]	/* InterpolateUntPts */";
};
width = 648;
}
);
note = Thorn;
unicode = 00DE;
},
{
glyphname = Q;
lastChange = "2020-08-10 02:07:25 +0000";
layers = (
{
layerId = "A36D14D1-FF07-4574-A62D-30DF65569781";
paths = (
{
closed = 1;
nodes = (
"363 -92 LINE",
"426 -55 LINE",
"277 202 LINE",
"214 165 LINE"
);
},
{
closed = 1;
nodes = (
"481 189 LINE",
"481 680 LINE SMOOTH",
"481 687 OFFCURVE",
"477 695 OFFCURVE",
"471 696 CURVE",
"114 694 LINE SMOOTH",
"97 694 OFFCURVE",
"80 692 OFFCURVE",
"80 673 CURVE SMOOTH",
"80 186 LINE",
"161 187 LINE",
"160 587 LINE SMOOTH",
"160 602 OFFCURVE",
"173 608 OFFCURVE",
"187 608 CURVE SMOOTH",
"384 605 LINE SMOOTH",
"393 605 OFFCURVE",
"399 597 OFFCURVE",
"399 587 CURVE SMOOTH",
"400 189 LINE"
);
},
{
closed = 1;
nodes = (
"399 105 LINE SMOOTH",
"399 95 OFFCURVE",
"393 87 OFFCURVE",
"384 87 CURVE SMOOTH",
"187 84 LINE SMOOTH",
"173 84 OFFCURVE",
"160 90 OFFCURVE",
"160 105 CURVE SMOOTH",
"161 505 LINE",
"80 506 LINE",
"80 19 LINE SMOOTH",
"80 0 OFFCURVE",
"97 -2 OFFCURVE",
"114 -2 CURVE SMOOTH",
"471 -4 LINE",
"477 -3 OFFCURVE",
"481 5 OFFCURVE",
"481 12 CURVE SMOOTH",
"481 503 LINE",
"400 503 LINE"
);
}
);
width = 561;
}
);
unicode = 0051;
},
{
glyphname = R;
lastChange = "2020-08-10 02:07:25 +0000";
layers = (
{
layerId = "A36D14D1-FF07-4574-A62D-30DF65569781";
paths = (
{
closed = 1;
nodes = (
"140 253 LINE",
"445 253 LINE",
"445 301 LINE",
"140 301 LINE"
);
},
{
closed = 1;
nodes = (
"429 300 LINE",
"431 20 LINE SMOOTH",
"431 9 OFFCURVE",
"440 0 OFFCURVE",
"451 0 CURVE SMOOTH",
"491 0 LINE SMOOTH",
"502 0 OFFCURVE",
"511 9 OFFCURVE",
"511 20 CURVE SMOOTH",
"511 280 LINE SMOOTH",
"511 291 OFFCURVE",
"502 300 OFFCURVE",
"491 300 CURVE SMOOTH"
);
},
{
closed = 1;
nodes = (
"481 300 LINE",
"481 681 LINE SMOOTH",
"481 688 OFFCURVE",
"477 696 OFFCURVE",
"471 697 CURVE",
"114 694 LINE SMOOTH",
"97 694 OFFCURVE",
"80 692 OFFCURVE",
"80 673 CURVE SMOOTH",
"80 20 LINE SMOOTH",
"80 9 OFFCURVE",
"89 0 OFFCURVE",
"100 0 CURVE SMOOTH",
"141 0 LINE SMOOTH",
"152 0 OFFCURVE",
"161 9 OFFCURVE",
"161 20 CURVE",
"160 623 LINE",
"160 638 OFFCURVE",
"173 644 OFFCURVE",
"187 644 CURVE SMOOTH",
"384 645 LINE SMOOTH",
"393 645 OFFCURVE",
"399 637 OFFCURVE",
"399 627 CURVE SMOOTH",
"399 300 LINE"
);
}
);
width = 570;
}
);
unicode = 0052;
},
{
glyphname = S;
lastChange = "2020-08-10 02:07:25 +0000";
layers = (
{
layerId = "A36D14D1-FF07-4574-A62D-30DF65569781";
paths = (
{
closed = 1;
nodes = (
"140 242 LINE",
"445 242 LINE",
"445 301 LINE",
"140 301 LINE"
);
},
{
closed = 1;
nodes = (
"80 0 LINE",
"461 0 LINE",
"461 58 LINE",
"80 58 LINE"
);
},
{
closed = 1;
nodes = (
"429 301 LINE",
"431 0 LINE",
"461 0 LINE",
"472 0 OFFCURVE",
"511 14 OFFCURVE",
"511 25 CURVE SMOOTH",
"511 280 LINE SMOOTH",
"511 301 OFFCURVE",
"502 301 OFFCURVE",
"491 301 CURVE SMOOTH"
);
},
{
closed = 1;
nodes = (
"161 242 LINE",
"160 623 LINE",
"160 638 OFFCURVE",
"173 644 OFFCURVE",
"187 644 CURVE SMOOTH",
"384 645 LINE SMOOTH",
"393 645 OFFCURVE",
"399 637 OFFCURVE",
"399 627 CURVE SMOOTH",
"399 617 LINE",
"481 622 LINE",
"481 681 LINE SMOOTH",
"481 688 OFFCURVE",
"477 696 OFFCURVE",
"471 697 CURVE",
"114 694 LINE SMOOTH",
"97 694 OFFCURVE",
"80 692 OFFCURVE",
"80 673 CURVE SMOOTH",
"80 242 LINE"
);
}
);
width = 570;
}
);
unicode = 0053;
},
{
glyphname = Scaron;
lastChange = "2020-08-05 16:35:22 +0000";
layers = (
{
layerId = "A36D14D1-FF07-4574-A62D-30DF65569781";
paths = (
{
closed = 1;
nodes = (
"278 765 LINE",
"174 908 LINE",
"258 908 LINE",
"327 812 LINE",
"397 908 LINE",
"474 908 LINE",
"371 765 LINE",
"371 765 LINE"
);
},
{
closed = 1;
nodes = (
"483 582 OFFCURVE",
"388 651 OFFCURVE",
"314 651 QCURVE SMOOTH",
"284 651 OFFCURVE",
"226 639 OFFCURVE",
"181 611 OFFCURVE",
"154 564 OFFCURVE",
"154 529 QCURVE SMOOTH",
"154 496 OFFCURVE",
"193 455 OFFCURVE",
"258 429 OFFCURVE",
"340 412 OFFCURVE",
"425 392 OFFCURVE",
"507 365 OFFCURVE",
"572 319 OFFCURVE",
"611 249 OFFCURVE",
"611 196 QCURVE SMOOTH",
"611 139 OFFCURVE",
"560 58 OFFCURVE",
"480 7 OFFCURVE",
"381 -16 OFFCURVE",
"332 -16 QCURVE SMOOTH",
"272 -16 OFFCURVE",
"165 14 OFFCURVE",
"84 75 OFFCURVE",
"37 170 OFFCURVE",
"37 235 QCURVE",
"127 235 LINE",
"127 190 OFFCURVE",
"162 125 OFFCURVE",
"219 83 OFFCURVE",
"295 63 OFFCURVE",
"335 63 QCURVE SMOOTH",
"367 63 OFFCURVE",
"432 75 OFFCURVE",
"484 104 OFFCURVE",
"516 154 OFFCURVE",
"516 193 QCURVE SMOOTH",
"516 230 OFFCURVE",
"477 276 OFFCURVE",
"412 305 OFFCURVE",
"330 323 OFFCURVE",
"245 342 OFFCURVE",
"163 367 OFFCURVE",
"98 408 OFFCURVE",
"59 473 OFFCURVE",
"59 522 QCURVE SMOOTH",
"59 576 OFFCURVE",
"103 655 OFFCURVE",
"176 706 OFFCURVE",
"269 731 OFFCURVE",
"318 731 QCURVE SMOOTH",
"373 731 OFFCURVE",
"467 705 OFFCURVE",
"538 649 OFFCURVE",
"579 564 OFFCURVE",
"581 505 QCURVE",
"491 505 LINE",
"491 505 LINE"
);
}
);
userData = {
assembly = "PUSHW[ ]	/* 3 values pushed */\01237 38 3 \012CALL[ ]	/* CallFunction */\012PUSHW[ ]	/* 1 value pushed */\01237 \012SRP0[ ]	/* SetRefPoint0 */\012PUSHW[ ]	/* 3 values pushed */\01248 27 3 \012CALL[ ]	/* CallFunction */\012PUSHW[ ]	/* 1 value pushed */\01248 \012SRP0[ ]	/* SetRefPoint0 */\012PUSHW[ ]	/* 3 values pushed */\0121 38 48 \012SRP1[ ]	/* SetRefPoint1 */\012SRP2[ ]	/* SetRefPoint2 */\012IP[ ]	/* InterpolatePts */\012PUSHW[ ]	/* 3 values pushed */\0123 38 48 \012SRP1[ ]	/* SetRefPoint1 */\012SRP2[ ]	/* SetRefPoint2 */\012IP[ ]	/* InterpolatePts */\012PUSHW[ ]	/* 3 values pushed */\0125 38 48 \012SRP1[ ]	/* SetRefPoint1 */\012SRP2[ ]	/* SetRefPoint2 */\012IP[ ]	/* InterpolatePts */\012PUSHW[ ]	/* 1 value pushed */\01237 \012SRP0[ ]	/* SetRefPoint0 */\012PUSHW[ ]	/* 1 value pushed */\01218 \012MDRP[11100]	/* MoveDirectRelPt */\012NPUSHW[ ]	/* 5 values pushed */\012218 27 234 27 2 \012DELTAP1[ ]	/* DeltaExceptionP1 */\012NPUSHW[ ]	/* 27 values pushed */\0129 27 25 27 41 27 57 27 73 27 89 27 105 27 121 27 137 27 153 27 169 27 185 27 201 27 13 \012DELTAP1[ ]	/* DeltaExceptionP1 */\012PUSHW[ ]	/* 1 value pushed */\01257 \012MDRP[11100]	/* MoveDirectRelPt */\012PUSHW[ ]	/* 1 value pushed */\01248 \012SRP0[ ]	/* SetRefPoint0 */\012PUSHW[ ]	/* 1 value pushed */\01266 \012MDRP[11100]	/* MoveDirectRelPt */\012SVTCA[0]	/* SetFreedomAndProjectionVectorToAxis */\012PUSHW[ ]	/* 1 value pushed */\0121 \012MDAP[1]	/* MoveDirectAbsPt */\012PUSHW[ ]	/* 1 value pushed */\0124 \012MDAP[1]	/* MoveDirectAbsPt */\012PUSHW[ ]	/* 3 values pushed */\01232 43 3 \012CALL[ ]	/* CallFunction */\012PUSHW[ ]	/* 1 value pushed */\01232 \012SRP0[ ]	/* SetRefPoint0 */\012PUSHW[ ]	/* 3 values pushed */\01213 62 3 \012CALL[ ]	/* CallFunction */\012PUSHW[ ]	/* 1 value pushed */\01213 \012SRP0[ ]	/* SetRefPoint0 */\012IUP[0]	/* InterpolateUntPts */\012IUP[1]	/* InterpolateUntPts */";
};
width = 648;
}
);
note = Scaron;
unicode = 0160;
},
{
glyphname = uni018F;
lastChange = "2020-08-05 16:35:22 +0000";
layers = (
{
layerId = "A36D14D1-FF07-4574-A62D-30DF65569781";
paths = (
{
closed = 1;
nodes = (
"441 -16 OFFCURVE",
"563 34 OFFCURVE",
"653 130 OFFCURVE",
"705 268 OFFCURVE",
"705 356 QCURVE SMOOTH",
"705 432 OFFCURVE",
"661 569 OFFCURVE",
"574 671 OFFCURVE",
"445 731 OFFCURVE",
"361 731 QCURVE SMOOTH",
"309 731 OFFCURVE",
"206 702 OFFCURVE",
"121 645 OFFCURVE",
"60 562 OFFCURVE",
"50 508 QCURVE",
"144 508 LINE",
"155 540 OFFCURVE",
"197 593 OFFCURVE",
"254 632 OFFCURVE",
"324 653 OFFCURVE",
"363 653 QCURVE SMOOTH",
"418 653 OFFCURVE",
"504 611 OFFCURVE",
"565 541 OFFCURVE",
"602 447 OFFCURVE",
"608 396 QCURVE",
"40 396 LINE",
"38 384 OFFCURVE",
"38 369 OFFCURVE",
"38 357 QCURVE SMOOTH",
"38 283 OFFCURVE",
"76 149 OFFCURVE",
"156 45 OFFCURVE",
"282 -16 OFFCURVE",
"370 -16 QCURVE",
"370 -16 LINE"
);
},
{
closed = 1;
nodes = (
"305 61 OFFCURVE",
"220 107 OFFCURVE",
"164 181 OFFCURVE",
"137 272 OFFCURVE",
"134 317 QCURVE",
"612 317 LINE",
"609 262 OFFCURVE",
"573 168 OFFCURVE",
"509 100 OFFCURVE",
"421 61 OFFCURVE",
"366 61 QCURVE",
"366 61 LINE"
);
}
);
userData = {
assembly = "PUSHW[ ]	/* 1 value pushed */\01210 \012CALL[ ]	/* CallFunction */\012PUSHW[ ]	/* 1 value pushed */\01246 \012MDAP[1]	/* MoveDirectAbsPt */\012PUSHW[ ]	/* 1 value pushed */\01247 \012MDAP[1]	/* MoveDirectAbsPt */\012PUSHW[ ]	/* 1 value pushed */\01246 \012SRP0[ ]	/* SetRefPoint0 */\012PUSHW[ ]	/* 1 value pushed */\0125 \012MDRP[10000]	/* MoveDirectRelPt */\012PUSHW[ ]	/* 1 value pushed */\0125 \012MDAP[1]	/* MoveDirectAbsPt */\012PUSHW[ ]	/* 1 value pushed */\0128 \012MDRP[10000]	/* MoveDirectRelPt */\012PUSHW[ ]	/* 1 value pushed */\0128 \012MDAP[1]	/* MoveDirectAbsPt */\012PUSHW[ ]	/* 1 value pushed */\01247 \012SRP0[ ]	/* SetRefPoint0 */\012PUSHW[ ]	/* 1 value pushed */\01230 \012MDRP[11100]	/* MoveDirectRelPt */\012PUSHW[ ]	/* 1 value pushed */\01240 \012MDRP[11100]	/* MoveDirectRelPt */\012PUSHW[ ]	/* 1 value pushed */\0129 \012MDRP[10000]	/* MoveDirectRelPt */\012PUSHW[ ]	/* 1 value pushed */\0129 \012MDAP[1]	/* MoveDirectAbsPt */\012PUSHW[ ]	/* 1 value pushed */\0125 \012SRP0[ ]	/* SetRefPoint0 */\012PUSHW[ ]	/* 1 value pushed */\01241 \012MDRP[11100]	/* MoveDirectRelPt */\012SVTCA[0]	/* SetFreedomAndProjectionVectorToAxis */\012PUSHW[ ]	/* 3 values pushed */\01235 0 13 \012CALL[ ]	/* CallFunction */\012PUSHW[ ]	/* 3 values pushed */\01225 14 13 \012CALL[ ]	/* CallFunction */\012PUSHW[ ]	/* 3 values pushed */\0129 40 13 \012CALL[ ]	/* CallFunction */\012PUSHW[ ]	/* 1 value pushed */\01225 \012SRP0[ ]	/* SetRefPoint0 */\012PUSHW[ ]	/* 1 value pushed */\01219 \012MDRP[11100]	/* MoveDirectRelPt */\012IUP[0]	/* InterpolateUntPts */\012IUP[1]	/* InterpolateUntPts */";
};
width = 743;
}
);
note = uni018F;
unicode = 018F;
},
{
glyphname = T;
lastChange = "2020-07-31 03:34:55 +0000";
layers = (
{
layerId = "A36D14D1-FF07-4574-A62D-30DF65569781";
paths = (
{
closed = 1;
nodes = (
"329 680 LINE SMOOTH",
"329 691 OFFCURVE",
"320 700 OFFCURVE",
"309 700 CURVE SMOOTH",
"268 700 LINE SMOOTH",
"257 700 OFFCURVE",
"248 691 OFFCURVE",
"248 680 CURVE SMOOTH",
"248 161 LINE",
"328 163 LINE"
);
},
{
closed = 1;
nodes = (
"248 540 LINE",
"248 21 LINE SMOOTH",
"248 10 OFFCURVE",
"257 1 OFFCURVE",
"268 1 CURVE SMOOTH",
"309 1 LINE SMOOTH",
"320 1 OFFCURVE",
"329 10 OFFCURVE",
"329 21 CURVE SMOOTH",
"328 538 LINE"
);
},
{
closed = 1;
nodes = (
"189 619 LINE",
"548 619 LINE SMOOTH",
"559 619 OFFCURVE",
"568 628 OFFCURVE",
"568 639 CURVE SMOOTH",
"568 680 LINE SMOOTH",
"568 691 OFFCURVE",
"559 700 OFFCURVE",
"548 700 CURVE SMOOTH",
"191 699 LINE"
);
},
{
closed = 1;
nodes = (
"49 700 LINE SMOOTH",
"38 700 OFFCURVE",
"29 691 OFFCURVE",
"29 680 CURVE SMOOTH",
"29 639 LINE SMOOTH",
"29 628 OFFCURVE",
"38 619 OFFCURVE",
"49 619 CURVE SMOOTH",
"408 619 LINE",
"406 699 LINE"
);
}
);
width = 597;
}
);
unicode = 0054;
},
{
glyphname = U;
lastChange = "2020-08-10 02:07:25 +0000";
layers = (
{
layerId = "A36D14D1-FF07-4574-A62D-30DF65569781";
paths = (
{
closed = 1;
nodes = (
"399 105 LINE SMOOTH",
"399 95 OFFCURVE",
"393 87 OFFCURVE",
"384 87 CURVE SMOOTH",
"187 84 LINE SMOOTH",
"173 84 OFFCURVE",
"160 90 OFFCURVE",
"160 105 CURVE SMOOTH",
"161 680 LINE SMOOTH",
"161 691 OFFCURVE",
"152 700 OFFCURVE",
"141 700 CURVE SMOOTH",
"101 701 LINE SMOOTH",
"89 701 OFFCURVE",
"80 692 OFFCURVE",
"80 680 CURVE SMOOTH",
"80 19 LINE SMOOTH",
"80 0 OFFCURVE",
"97 -2 OFFCURVE",
"114 -2 CURVE SMOOTH",
"471 -4 LINE",
"477 -3 OFFCURVE",
"481 5 OFFCURVE",
"481 12 CURVE SMOOTH",
"481 678 LINE SMOOTH",
"481 689 OFFCURVE",
"472 698 OFFCURVE",
"461 698 CURVE SMOOTH",
"420 698 LINE SMOOTH",
"409 698 OFFCURVE",
"400 689 OFFCURVE",
"400 678 CURVE SMOOTH"
);
}
);
width = 561;
}
);
unicode = 0055;
},
{
glyphname = Ucircumflex;
lastChange = "2020-08-05 16:35:22 +0000";
layers = (
{
layerId = "A36D14D1-FF07-4574-A62D-30DF65569781";
paths = (
{
closed = 1;
nodes = (
"407 908 LINE",
"511 765 LINE",
"427 765 LINE",
"358 861 LINE",
"288 765 LINE",
"211 765 LINE",
"314 908 LINE",
"314 908 LINE"
);
},
{
closed = 1;
nodes = (
"648 121 OFFCURVE",
"502 -16 OFFCURVE",
"367 -16 QCURVE SMOOTH",
"229 -16 OFFCURVE",
"74 115 OFFCURVE",
"74 258 QCURVE SMOOTH",
"74 714 LINE",
"169 714 LINE",
"169 258 LINE SMOOTH",
"169 162 OFFCURVE",
"271 63 OFFCURVE",
"367 63 QCURVE SMOOTH",
"458 63 OFFCURVE",
"553 162 OFFCURVE",
"553 258 QCURVE SMOOTH",
"553 714 LINE",
"648 714 LINE",
"648 258 LINE",
"648 258 LINE"
);
}
);
userData = {
assembly = "PUSHW[ ]	/* 3 values pushed */\01217 18 3 \012CALL[ ]	/* CallFunction */\012PUSHW[ ]	/* 1 value pushed */\01217 \012SRP0[ ]	/* SetRefPoint0 */\012PUSHW[ ]	/* 3 values pushed */\0128 9 3 \012CALL[ ]	/* CallFunction */\012PUSHW[ ]	/* 1 value pushed */\0128 \012SRP0[ ]	/* SetRefPoint0 */\012PUSHW[ ]	/* 3 values pushed */\0121 18 8 \012SRP1[ ]	/* SetRefPoint1 */\012SRP2[ ]	/* SetRefPoint2 */\012IP[ ]	/* InterpolatePts */\012PUSHW[ ]	/* 3 values pushed */\0123 18 8 \012SRP1[ ]	/* SetRefPoint1 */\012SRP2[ ]	/* SetRefPoint2 */\012IP[ ]	/* InterpolatePts */\012PUSHW[ ]	/* 3 values pushed */\0125 18 8 \012SRP1[ ]	/* SetRefPoint1 */\012SRP2[ ]	/* SetRefPoint2 */\012IP[ ]	/* InterpolatePts */\012SVTCA[0]	/* SetFreedomAndProjectionVectorToAxis */\012PUSHW[ ]	/* 1 value pushed */\0120 \012MDAP[1]	/* MoveDirectAbsPt */\012PUSHW[ ]	/* 3 values pushed */\01213 22 3 \012CALL[ ]	/* CallFunction */\012PUSHW[ ]	/* 1 value pushed */\01213 \012SRP0[ ]	/* SetRefPoint0 */\012IUP[0]	/* InterpolateUntPts */\012IUP[1]	/* InterpolateUntPts */";
};
width = 722;
}
);
note = Ucircumflex;
unicode = 00DB;
},
{
glyphname = Udieresis;
lastChange = "2020-08-05 16:35:22 +0000";
layers = (
{
layerId = "A36D14D1-FF07-4574-A62D-30DF65569781";
paths = (
{
closed = 1;
nodes = (
"312 873 LINE",
"312 769 LINE",
"222 769 LINE",
"222 873 LINE",
"222 873 LINE"
);
},
{
closed = 1;
nodes = (
"500 873 LINE",
"500 769 LINE",
"410 769 LINE",
"410 873 LINE",
"410 873 LINE"
);
},
{
closed = 1;
nodes = (
"648 121 OFFCURVE",
"502 -16 OFFCURVE",
"367 -16 QCURVE SMOOTH",
"229 -16 OFFCURVE",
"74 115 OFFCURVE",
"74 258 QCURVE SMOOTH",
"74 714 LINE",
"169 714 LINE",
"169 258 LINE SMOOTH",
"169 162 OFFCURVE",
"271 63 OFFCURVE",
"367 63 QCURVE SMOOTH",
"458 63 OFFCURVE",
"553 162 OFFCURVE",
"553 258 QCURVE SMOOTH",
"553 714 LINE",
"648 714 LINE",
"648 258 LINE",
"648 258 LINE"
);
}
);
userData = {
assembly = "PUSHW[ ]	/* 3 values pushed */\01218 19 3 \012CALL[ ]	/* CallFunction */\012PUSHW[ ]	/* 1 value pushed */\01218 \012SRP0[ ]	/* SetRefPoint0 */\012PUSHW[ ]	/* 3 values pushed */\0123 0 3 \012CALL[ ]	/* CallFunction */\012PUSHW[ ]	/* 1 value pushed */\0123 \012SRP0[ ]	/* SetRefPoint0 */\012PUSHW[ ]	/* 3 values pushed */\0127 4 3 \012CALL[ ]	/* CallFunction */\012PUSHW[ ]	/* 1 value pushed */\0127 \012SRP0[ ]	/* SetRefPoint0 */\012PUSHW[ ]	/* 3 values pushed */\0129 10 3 \012CALL[ ]	/* CallFunction */\012PUSHW[ ]	/* 1 value pushed */\0129 \012SRP0[ ]	/* SetRefPoint0 */\012PUSHW[ ]	/* 1 value pushed */\01227 \012MDRP[11100]	/* MoveDirectRelPt */\012SVTCA[0]	/* SetFreedomAndProjectionVectorToAxis */\012PUSHW[ ]	/* 3 values pushed */\01214 23 3 \012CALL[ ]	/* CallFunction */\012PUSHW[ ]	/* 1 value pushed */\01214 \012SRP0[ ]	/* SetRefPoint0 */\012PUSHW[ ]	/* 3 values pushed */\0120 1 3 \012CALL[ ]	/* CallFunction */\012PUSHW[ ]	/* 1 value pushed */\0120 \012SRP0[ ]	/* SetRefPoint0 */\012PUSHW[ ]	/* 1 value pushed */\0124 \012MDRP[10000]	/* MoveDirectRelPt */\012PUSHW[ ]	/* 1 value pushed */\0121 \012SRP0[ ]	/* SetRefPoint0 */\012PUSHW[ ]	/* 1 value pushed */\0125 \012MDRP[10000]	/* MoveDirectRelPt */\012IUP[0]	/* InterpolateUntPts */\012IUP[1]	/* InterpolateUntPts */";
};
width = 722;
}
);
note = Udieresis;
unicode = 00DC;
},
{
glyphname = V;
lastChange = "2019-02-19 02:05:59 +0000";
layers = (
{
layerId = "A36D14D1-FF07-4574-A62D-30DF65569781";
paths = (
{
closed = 1;
nodes = (
"577 683 LINE SMOOTH",
"567 687 OFFCURVE",
"555 681 OFFCURVE",
"551 671 CURVE SMOOTH",
"503 539 LINE",
"342 97 LINE",
"234 379 LINE",
"122 673 LINE",
"117 683 OFFCURVE",
"82 681 OFFCURVE",
"72 676 CURVE SMOOTH",
"58 669 LINE",
"47 666 OFFCURVE",
"42 654 OFFCURVE",
"46 644 CURVE SMOOTH",
"96 513 LINE",
"282 28 LINE SMOOTH",
"286 18 OFFCURVE",
"297 -1 OFFCURVE",
"308 -1 CURVE SMOOTH",
"376 -1 LINE SMOOTH",
"387 -1 OFFCURVE",
"398 14 OFFCURVE",
"402 24 CURVE SMOOTH",
"564 471 LINE",
"627 643 LINE SMOOTH",
"631 654 OFFCURVE",
"626 666 OFFCURVE",
"615 669 CURVE"
);
}
);
width = 673;
}
);
unicode = 0056;
},
{
glyphname = W;
lastChange = "2019-02-19 02:22:19 +0000";
layers = (
{
layerId = "A36D14D1-FF07-4574-A62D-30DF65569781";
paths = (
{
closed = 1;
nodes = (
"707 683 LINE SMOOTH",
"697 687 OFFCURVE",
"683 681 OFFCURVE",
"681 671 CURVE SMOOTH",
"582 95 LINE SMOOTH",
"580 86 OFFCURVE",
"572 79 OFFCURVE",
"563 79 CURVE SMOOTH",
"528 79 LINE SMOOTH",
"517 79 OFFCURVE",
"509 87 OFFCURVE",
"508 97 CURVE SMOOTH",
"472 583 LINE SMOOTH",
"468 634 OFFCURVE",
"355 629 OFFCURVE",
"351 581 CURVE SMOOTH",
"312 95 LINE SMOOTH",
"311 85 OFFCURVE",
"303 77 OFFCURVE",
"293 77 CURVE SMOOTH",
"239 77 LINE SMOOTH",
"229 77 OFFCURVE",
"220 84 OFFCURVE",
"219 94 CURVE SMOOTH",
"132 673 LINE",
"127 683 OFFCURVE",
"92 681 OFFCURVE",
"82 676 CURVE SMOOTH",
"68 669 LINE",
"57 666 OFFCURVE",
"54 654 OFFCURVE",
"56 644 CURVE SMOOTH",
"162 28 LINE SMOOTH",
"164 18 OFFCURVE",
"177 -1 OFFCURVE",
"188 -1 CURVE SMOOTH",
"356 -1 LINE SMOOTH",
"367 -1 OFFCURVE",
"381 14 OFFCURVE",
"382 24 CURVE",
"408 502 LINE",
"442 28 LINE SMOOTH",
"443 18 OFFCURVE",
"457 -1 OFFCURVE",
"468 -1 CURVE SMOOTH",
"626 -1 LINE SMOOTH",
"637 -1 OFFCURVE",
"650 14 OFFCURVE",
"652 24 CURVE SMOOTH",
"757 643 LINE SMOOTH",
"759 654 OFFCURVE",
"756 666 OFFCURVE",
"745 669 CURVE"
);
}
);
width = 803;
}
);
unicode = 0057;
},
{
glyphname = X;
lastChange = "2020-07-31 03:35:26 +0000";
layers = (
{
layerId = "A36D14D1-FF07-4574-A62D-30DF65569781";
paths = (
{
closed = 1;
nodes = (
"437 710 LINE SMOOTH",
"429 710 OFFCURVE",
"422 705 OFFCURVE",
"419 698 CURVE SMOOTH",
"292 347 LINE",
"184 629 LINE",
"157 700 LINE SMOOTH",
"154 708 OFFCURVE",
"146 712 OFFCURVE",
"139 712 CURVE SMOOTH",
"99 712 LINE SMOOTH",
"82 712 OFFCURVE",
"71 697 OFFCURVE",
"77 680 CURVE SMOOTH",
"232 278 LINE SMOOTH",
"236 268 OFFCURVE",
"247 249 OFFCURVE",
"258 249 CURVE SMOOTH",
"326 249 LINE SMOOTH",
"337 249 OFFCURVE",
"348 264 OFFCURVE",
"352 274 CURVE SMOOTH",
"499 679 LINE SMOOTH",
"505 695 OFFCURVE",
"495 709 OFFCURVE",
"478 709 CURVE SMOOTH"
);
},
{
closed = 1;
nodes = (
"417 -7 LINE SMOOTH",
"434 -7 OFFCURVE",
"444 7 OFFCURVE",
"438 23 CURVE SMOOTH",
"352 259 LINE SMOOTH",
"348 269 OFFCURVE",
"337 284 OFFCURVE",
"326 284 CURVE SMOOTH",
"258 284 LINE SMOOTH",
"247 284 OFFCURVE",
"236 265 OFFCURVE",
"232 255 CURVE SMOOTH",
"143 23 LINE SMOOTH",
"137 6 OFFCURVE",
"149 -9 OFFCURVE",
"166 -9 CURVE SMOOTH",
"206 -8 LINE SMOOTH",
"213 -8 OFFCURVE",
"219 -4 OFFCURVE",
"222 4 CURVE SMOOTH",
"292 186 LINE",
"359 4 LINE SMOOTH",
"362 -3 OFFCURVE",
"368 -8 OFFCURVE",
"376 -8 CURVE SMOOTH"
);
}
);
width = 577;
}
);
unicode = 0058;
},
{
glyphname = Y;
lastChange = "2020-07-31 03:35:34 +0000";
layers = (
{
layerId = "A36D14D1-FF07-4574-A62D-30DF65569781";
paths = (
{
closed = 1;
nodes = (
"377 710 LINE SMOOTH",
"369 710 OFFCURVE",
"362 705 OFFCURVE",
"359 698 CURVE",
"232 347 LINE",
"124 629 LINE",
"97 700 LINE SMOOTH",
"94 708 OFFCURVE",
"86 712 OFFCURVE",
"79 712 CURVE SMOOTH",
"39 712 LINE SMOOTH",
"22 712 OFFCURVE",
"11 697 OFFCURVE",
"17 680 CURVE SMOOTH",
"172 278 LINE SMOOTH",
"176 268 OFFCURVE",
"187 249 OFFCURVE",
"198 249 CURVE SMOOTH",
"266 249 LINE SMOOTH",
"277 249 OFFCURVE",
"288 264 OFFCURVE",
"292 274 CURVE SMOOTH",
"439 679 LINE SMOOTH",
"445 695 OFFCURVE",
"435 709 OFFCURVE",
"418 709 CURVE SMOOTH"
);
},
{
closed = 1;
nodes = (
"186 20 LINE SMOOTH",
"186 9 OFFCURVE",
"195 0 OFFCURVE",
"206 0 CURVE SMOOTH",
"255 0 LINE SMOOTH",
"266 0 OFFCURVE",
"275 9 OFFCURVE",
"275 20 CURVE SMOOTH",
"275 254 LINE",
"186 254 LINE"
);
}
);
width = 453;
}
);
unicode = 0059;
},
{
glyphname = Ydieresis;
lastChange = "2020-08-05 16:35:22 +0000";
layers = (
{
layerId = "A36D14D1-FF07-4574-A62D-30DF65569781";
paths = (
{
closed = 1;
nodes = (
"275 873 LINE",
"275 769 LINE",
"185 769 LINE",
"185 873 LINE",
"185 873 LINE"
);
},
{
closed = 1;
nodes = (
"463 873 LINE",
"463 769 LINE",
"373 769 LINE",
"373 873 LINE",
"373 873 LINE"
);
},
{
closed = 1;
nodes = (
"373 0 LINE",
"278 0 LINE",
"278 292 LINE",
"2 714 LINE",
"115 714 LINE",
"329 374 LINE",
"538 714 LINE",
"646 714 LINE",
"373 292 LINE",
"373 292 LINE"
);
}
);
userData = {
assembly = "PUSHW[ ]	/* 3 values pushed */\0123 0 3 \012CALL[ ]	/* CallFunction */\012PUSHW[ ]	/* 1 value pushed */\0123 \012SRP0[ ]	/* SetRefPoint0 */\012PUSHW[ ]	/* 1 value pushed */\0128 \012MDRP[11100]	/* MoveDirectRelPt */\012PUSHW[ ]	/* 1 value pushed */\0124 \012MDRP[10000]	/* MoveDirectRelPt */\012PUSHW[ ]	/* 1 value pushed */\0128 \012SRP0[ ]	/* SetRefPoint0 */\012PUSHW[ ]	/* 1 value pushed */\0127 \012MDRP[11100]	/* MoveDirectRelPt */\012PUSHW[ ]	/* 3 values pushed */\01211 3 8 \012SRP1[ ]	/* SetRefPoint1 */\012SRP2[ ]	/* SetRefPoint2 */\012IP[ ]	/* InterpolatePts */\012PUSHW[ ]	/* 1 value pushed */\0123 \012SRP0[ ]	/* SetRefPoint0 */\012PUSHW[ ]	/* 1 value pushed */\01214 \012MDRP[10000]	/* MoveDirectRelPt */\012PUSHW[ ]	/* 1 value pushed */\01214 \012MDAP[1]	/* MoveDirectAbsPt */\012PUSHW[ ]	/* 1 value pushed */\0124 \012SRP0[ ]	/* SetRefPoint0 */\012PUSHW[ ]	/* 1 value pushed */\01216 \012MDRP[10000]	/* MoveDirectRelPt */\012SVTCA[0]	/* SetFreedomAndProjectionVectorToAxis */\012PUSHW[ ]	/* 1 value pushed */\01215 \012MDAP[1]	/* MoveDirectAbsPt */\012PUSHW[ ]	/* 3 values pushed */\0120 1 3 \012CALL[ ]	/* CallFunction */\012PUSHW[ ]	/* 1 value pushed */\0120 \012SRP0[ ]	/* SetRefPoint0 */\012PUSHW[ ]	/* 1 value pushed */\0124 \012MDRP[10000]	/* MoveDirectRelPt */\012PUSHW[ ]	/* 1 value pushed */\0121 \012SRP0[ ]	/* SetRefPoint0 */\012PUSHW[ ]	/* 1 value pushed */\0125 \012MDRP[10000]	/* MoveDirectRelPt */\012IUP[0]	/* InterpolateUntPts */\012IUP[1]	/* InterpolateUntPts */";
};
width = 648;
}
);
note = Ydieresis;
unicode = 0178;
},
{
glyphname = Z;
lastChange = "2020-08-10 02:07:25 +0000";
layers = (
{
layerId = "A36D14D1-FF07-4574-A62D-30DF65569781";
paths = (
{
closed = 1;
nodes = (
"474 71 OFFCURVE",
"465 80 OFFCURVE",
"454 80 CURVE SMOOTH",
"185 80 LINE",
"459 662 LINE",
"461 667 OFFCURVE",
"450 700 OFFCURVE",
"439 700 CURVE SMOOTH",
"100 700 LINE SMOOTH",
"90 700 OFFCURVE",
"80 691 OFFCURVE",
"80 680 CURVE SMOOTH",
"81 639 LINE SMOOTH",
"81 628 OFFCURVE",
"90 619 OFFCURVE",
"101 619 CURVE SMOOTH",
"358 619 LINE",
"87 46 LINE",
"86 19 LINE",
"87 6 OFFCURVE",
"95 -1 OFFCURVE",
"106 -1 CURVE SMOOTH",
"455 -1 LINE SMOOTH",
"466 -1 OFFCURVE",
"475 8 OFFCURVE",
"475 19 CURVE",
"474 60 LINE"
);
}
);
width = 523;
}
);
unicode = 005A;
},
{
glyphname = uni2C75;
lastChange = "2020-08-05 16:35:22 +0000";
layers = (
{
layerId = "A36D14D1-FF07-4574-A62D-30DF65569781";
paths = (
{
closed = 1;
nodes = (
"177 421 LINE",
"177 717 LINE",
"79 717 LINE",
"79 0 LINE",
"177 0 LINE",
"177 335 LINE",
"550 335 LINE",
"550 421 LINE",
"550 421 LINE"
);
}
);
userData = {
assembly = "PUSHW[ ]	/* 1 value pushed */\01220 \012CALL[ ]	/* CallFunction */\012PUSHW[ ]	/* 4 values pushed */\0123 3 4 24 \012CALL[ ]	/* CallFunction */\012PUSHW[ ]	/* 1 value pushed */\0123 \012SRP0[ ]	/* SetRefPoint0 */\012PUSHW[ ]	/* 1 value pushed */\0126 \012MDRP[10000]	/* MoveDirectRelPt */\012SVTCA[0]	/* SetFreedomAndProjectionVectorToAxis */\012PUSHW[ ]	/* 1 value pushed */\0121 \012RCVT[ ]	/* ReadCVT */\012IF[ ]	/* If */\012PUSHW[ ]	/* 1 value pushed */\0125 \012MDAP[1]	/* MoveDirectAbsPt */\012ELSE[ ]	/* Else */\012PUSHW[ ]	/* 2 values pushed */\0125 10 \012MIAP[0]	/* MoveIndirectAbsPt */\012EIF[ ]	/* EndIf */\012PUSHW[ ]	/* 1 value pushed */\0121 \012RCVT[ ]	/* ReadCVT */\012IF[ ]	/* If */\012PUSHW[ ]	/* 1 value pushed */\0123 \012MDAP[1]	/* MoveDirectAbsPt */\012ELSE[ ]	/* Else */\012PUSHW[ ]	/* 2 values pushed */\0123 4 \012MIAP[0]	/* MoveIndirectAbsPt */\012EIF[ ]	/* EndIf */\012PUSHW[ ]	/* 4 values pushed */\0120 2 1 24 \012CALL[ ]	/* CallFunction */\012IUP[0]	/* InterpolateUntPts */\012IUP[1]	/* InterpolateUntPts */";
};
width = 606;
}
);
note = uni2C75;
unicode = 2C75;
},
{
glyphname = a;
lastChange = "2020-08-10 02:07:25 +0000";
layers = (
{
layerId = "A36D14D1-FF07-4574-A62D-30DF65569781";
paths = (
{
closed = 1;
nodes = (
"131 500 LINE SMOOTH",
"102 500 OFFCURVE",
"80 478 OFFCURVE",
"80 449 CURVE SMOOTH",
"80 413 LINE",
"161 414 LINE",
"161 439 LINE SMOOTH",
"161 450 OFFCURVE",
"170 459 OFFCURVE",
"181 459 CURVE SMOOTH",
"380 459 LINE SMOOTH",
"391 459 OFFCURVE",
"400 450 OFFCURVE",
"400 439 CURVE SMOOTH",
"400 294 LINE",
"131 294 LINE SMOOTH",
"102 294 OFFCURVE",
"80 272 OFFCURVE",
"80 243 CURVE SMOOTH",
"80 51 LINE SMOOTH",
"80 22 OFFCURVE",
"102 0 OFFCURVE",
"131 0 CURVE SMOOTH",
"430 0 LINE SMOOTH",
"459 0 OFFCURVE",
"481 22 OFFCURVE",
"481 51 CURVE SMOOTH",
"481 449 LINE SMOOTH",
"481 478 OFFCURVE",
"459 500 OFFCURVE",
"430 500 CURVE SMOOTH"
);
},
{
closed = 1;
nodes = (
"400 50 OFFCURVE",
"391 41 OFFCURVE",
"380 41 CURVE SMOOTH",
"181 41 LINE SMOOTH",
"170 41 OFFCURVE",
"161 50 OFFCURVE",
"161 61 CURVE SMOOTH",
"161 233 LINE SMOOTH",
"161 244 OFFCURVE",
"170 253 OFFCURVE",
"181 253 CURVE SMOOTH",
"380 253 LINE SMOOTH",
"391 253 OFFCURVE",
"400 244 OFFCURVE",
"400 233 CURVE SMOOTH",
"400 61 LINE SMOOTH"
);
}
);
width = 561;
}
);
unicode = 0061;
},
{
glyphname = adieresis;
lastChange = "2020-08-05 16:35:22 +0000";
layers = (
{
layerId = "A36D14D1-FF07-4574-A62D-30DF65569781";
paths = (
{
closed = 1;
nodes = (
"220 696 LINE",
"220 592 LINE",
"130 592 LINE",
"130 696 LINE",
"130 696 LINE"
);
},
{
closed = 1;
nodes = (
"408 696 LINE",
"408 592 LINE",
"318 592 LINE",
"318 696 LINE",
"318 696 LINE"
);
},
{
closed = 1;
nodes = (
"500 -11 OFFCURVE",
"461 -11 QCURVE SMOOTH",
"428 -11 OFFCURVE",
"389 26 OFFCURVE",
"389 68 QCURVE",
"354 26 OFFCURVE",
"261 -11 OFFCURVE",
"207 -11 QCURVE SMOOTH",
"172 -11 OFFCURVE",
"110 4 OFFCURVE",
"63 39 OFFCURVE",
"36 94 OFFCURVE",
"36 133 QCURVE SMOOTH",
"36 177 OFFCURVE",
"66 233 OFFCURVE",
"115 268 OFFCURVE",
"178 286 OFFCURVE",
"211 292 QCURVE SMOOTH",
"246 299 OFFCURVE",
"309 306 OFFCURVE",
"357 319 OFFCURVE",
"385 344 OFFCURVE",
"385 368 QCURVE SMOOTH",
"385 396 OFFCURVE",
"364 430 OFFCURVE",
"331 448 OFFCURVE",
"290 454 OFFCURVE",
"270 454 QCURVE SMOOTH",
"216 454 OFFCURVE",
"144 413 OFFCURVE",
"141 356 QCURVE",
"56 356 LINE",
"58 404 OFFCURVE",
"94 470 OFFCURVE",
"154 511 OFFCURVE",
"232 529 OFFCURVE",
"275 529 QCURVE SMOOTH",
"310 529 OFFCURVE",
"379 519 OFFCURVE",
"435 488 OFFCURVE",
"469 432 OFFCURVE",
"469 387 QCURVE SMOOTH",
"469 121 LINE SMOOTH",
"469 91 OFFCURVE",
"476 63 OFFCURVE",
"496 63 QCURVE SMOOTH",
"507 63 OFFCURVE",
"522 68 QCURVE",
"522 2 LINE",
"522 2 LINE"
);
},
{
closed = 1;
nodes = (
"368 255 OFFCURVE",
"316 244 OFFCURVE",
"259 237 OFFCURVE",
"201 228 OFFCURVE",
"155 208 OFFCURVE",
"126 171 OFFCURVE",
"126 139 QCURVE SMOOTH",
"126 118 OFFCURVE",
"143 89 OFFCURVE",
"170 71 OFFCURVE",
"207 63 OFFCURVE",
"226 63 QCURVE SMOOTH",
"268 63 OFFCURVE",
"328 86 OFFCURVE",
"366 121 OFFCURVE",
"384 162 OFFCURVE",
"384 180 QCURVE SMOOTH",
"384 267 LINE",
"384 267 LINE"
);
}
);
userData = {
assembly = "PUSHW[ ]	/* 3 values pushed */\01268 44 3 \012CALL[ ]	/* CallFunction */\012PUSHW[ ]	/* 1 value pushed */\01268 \012SRP0[ ]	/* SetRefPoint0 */\012PUSHW[ ]	/* 3 values pushed */\0127 4 3 \012CALL[ ]	/* CallFunction */\012PUSHW[ ]	/* 1 value pushed */\0127 \012SRP0[ ]	/* SetRefPoint0 */\012NPUSHW[ ]	/* 27 values pushed */\0126 68 22 68 38 68 54 68 70 68 86 68 102 68 118 68 134 68 150 68 166 68 182 68 198 68 13 \012DELTAP1[ ]	/* DeltaExceptionP1 */\012NPUSHW[ ]	/* 5 values pushed */\012213 68 229 68 2 \012DELTAP1[ ]	/* DeltaExceptionP1 */\012PUSHW[ ]	/* 1 value pushed */\01268 \012SRP0[ ]	/* SetRefPoint0 */\012PUSHW[ ]	/* 1 value pushed */\0120 \012MDRP[10000]	/* MoveDirectRelPt */\012PUSHW[ ]	/* 1 value pushed */\0120 \012MDAP[1]	/* MoveDirectAbsPt */\012PUSHW[ ]	/* 1 value pushed */\01268 \012SRP0[ ]	/* SetRefPoint0 */\012PUSHW[ ]	/* 1 value pushed */\0123 \012MDRP[11100]	/* MoveDirectRelPt */\012PUSHW[ ]	/* 3 values pushed */\01234 4 7 \012SRP1[ ]	/* SetRefPoint1 */\012SRP2[ ]	/* SetRefPoint2 */\012IP[ ]	/* InterpolatePts */\012PUSHW[ ]	/* 1 value pushed */\01234 \012MDAP[1]	/* MoveDirectAbsPt */\012PUSHW[ ]	/* 1 value pushed */\01215 \012MDRP[11100]	/* MoveDirectRelPt */\012PUSHW[ ]	/* 3 values pushed */\01225 44 68 \012SRP1[ ]	/* SetRefPoint1 */\012SRP2[ ]	/* SetRefPoint2 */\012IP[ ]	/* InterpolatePts */\012PUSHW[ ]	/* 1 value pushed */\01225 \012MDAP[1]	/* MoveDirectAbsPt */\012PUSHW[ ]	/* 1 value pushed */\01226 \012MDRP[11100]	/* MoveDirectRelPt */\012PUSHW[ ]	/* 1 value pushed */\01234 \012SRP0[ ]	/* SetRefPoint0 */\012PUSHW[ ]	/* 1 value pushed */\01252 \012MDRP[10000]	/* MoveDirectRelPt */\012PUSHW[ ]	/* 1 value pushed */\01252 \012MDAP[1]	/* MoveDirectAbsPt */\012PUSHW[ ]	/* 1 value pushed */\01234 \012SRP0[ ]	/* SetRefPoint0 */\012PUSHW[ ]	/* 1 value pushed */\01257 \012MDRP[10000]	/* MoveDirectRelPt */\012PUSHW[ ]	/* 1 value pushed */\01257 \012MDAP[1]	/* MoveDirectAbsPt */\012PUSHW[ ]	/* 1 value pushed */\01215 \012SRP0[ ]	/* SetRefPoint0 */\012PUSHW[ ]	/* 1 value pushed */\01276 \012MDRP[11100]	/* MoveDirectRelPt */\012SVTCA[0]	/* SetFreedomAndProjectionVectorToAxis */\012PUSHW[ ]	/* 3 values pushed */\01263 49 3 \012CALL[ ]	/* CallFunction */\012PUSHW[ ]	/* 1 value pushed */\01263 \012SRP0[ ]	/* SetRefPoint0 */\012PUSHW[ ]	/* 3 values pushed */\0120 1 3 \012CALL[ ]	/* CallFunction */\012PUSHW[ ]	/* 1 value pushed */\0120 \012SRP0[ ]	/* SetRefPoint0 */\012PUSHW[ ]	/* 3 values pushed */\01220 29 3 \012CALL[ ]	/* CallFunction */\012PUSHW[ ]	/* 1 value pushed */\01220 \012SRP0[ ]	/* SetRefPoint0 */\012PUSHW[ ]	/* 1 value pushed */\0120 \012SRP0[ ]	/* SetRefPoint0 */\012PUSHW[ ]	/* 1 value pushed */\0124 \012MDRP[10000]	/* MoveDirectRelPt */\012PUSHW[ ]	/* 1 value pushed */\0121 \012SRP0[ ]	/* SetRefPoint0 */\012PUSHW[ ]	/* 1 value pushed */\0125 \012MDRP[10000]	/* MoveDirectRelPt */\012PUSHW[ ]	/* 1 value pushed */\01263 \012SRP0[ ]	/* SetRefPoint0 */\012PUSHW[ ]	/* 1 value pushed */\01211 \012MDRP[10000]	/* MoveDirectRelPt */\012PUSHW[ ]	/* 1 value pushed */\01220 \012SRP0[ ]	/* SetRefPoint0 */\012PUSHW[ ]	/* 1 value pushed */\01226 \012MDRP[11100]	/* MoveDirectRelPt */\012PUSHW[ ]	/* 1 value pushed */\01249 \012SRP0[ ]	/* SetRefPoint0 */\012PUSHW[ ]	/* 1 value pushed */\01255 \012MDRP[10000]	/* MoveDirectRelPt */\012IUP[0]	/* InterpolateUntPts */\012IUP[1]	/* InterpolateUntPts */";
};
width = 537;
}
);
note = adieresis;
unicode = 00E4;
},
{
glyphname = aogonek;
lastChange = "2020-08-05 16:35:22 +0000";
layers = (
{
layerId = "A36D14D1-FF07-4574-A62D-30DF65569781";
paths = (
{
closed = 1;
nodes = (
"522 68 LINE",
"507 63 OFFCURVE",
"496 63 QCURVE SMOOTH",
"476 63 OFFCURVE",
"469 91 OFFCURVE",
"469 121 QCURVE SMOOTH",
"469 387 LINE SMOOTH",
"469 432 OFFCURVE",
"435 488 OFFCURVE",
"379 519 OFFCURVE",
"310 529 OFFCURVE",
"275 529 QCURVE SMOOTH",
"231 529 OFFCURVE",
"154 511 OFFCURVE",
"94 470 OFFCURVE",
"58 404 OFFCURVE",
"56 356 QCURVE",
"141 356 LINE",
"144 413 OFFCURVE",
"216 454 OFFCURVE",
"270 454 QCURVE SMOOTH",
"290 454 OFFCURVE",
"331 448 OFFCURVE",
"364 430 OFFCURVE",
"385 396 OFFCURVE",
"385 368 QCURVE SMOOTH",
"385 344 OFFCURVE",
"357 319 OFFCURVE",
"309 306 OFFCURVE",
"246 299 OFFCURVE",
"211 292 QCURVE SMOOTH",
"178 286 OFFCURVE",
"115 268 OFFCURVE",
"66 233 OFFCURVE",
"36 177 OFFCURVE",
"36 133 QCURVE SMOOTH",
"36 94 OFFCURVE",
"63 39 OFFCURVE",
"109 5 OFFCURVE",
"172 -11 OFFCURVE",
"207 -11 QCURVE SMOOTH",
"261 -11 OFFCURVE",
"354 26 OFFCURVE",
"389 68 QCURVE",
"389 9 OFFCURVE",
"429 -5 QCURVE",
"383 -29 OFFCURVE",
"322 -97 OFFCURVE",
"322 -134 QCURVE SMOOTH",
"322 -169 OFFCURVE",
"371 -209 OFFCURVE",
"414 -209 QCURVE SMOOTH",
"437 -209 OFFCURVE",
"483 -197 OFFCURVE",
"497 -184 QCURVE",
"495 -146 LINE",
"484 -152 OFFCURVE",
"447 -160 OFFCURVE",
"432 -160 QCURVE SMOOTH",
"409 -160 OFFCURVE",
"390 -133 OFFCURVE",
"390 -117 QCURVE SMOOTH",
"390 -100 OFFCURVE",
"407 -67 OFFCURVE",
"437 -37 OFFCURVE",
"475 -14 OFFCURVE",
"496 -8 QCURVE SMOOTH",
"504 -6 OFFCURVE",
"516 -1 OFFCURVE",
"522 2 QCURVE",
"522 2 LINE"
);
},
{
closed = 1;
nodes = (
"384 180 LINE SMOOTH",
"384 162 OFFCURVE",
"366 121 OFFCURVE",
"328 86 OFFCURVE",
"268 63 OFFCURVE",
"226 63 QCURVE SMOOTH",
"206 63 OFFCURVE",
"170 71 OFFCURVE",
"143 89 OFFCURVE",
"126 118 OFFCURVE",
"126 139 QCURVE SMOOTH",
"126 171 OFFCURVE",
"155 208 OFFCURVE",
"201 228 OFFCURVE",
"259 237 OFFCURVE",
"316 244 OFFCURVE",
"368 255 OFFCURVE",
"384 267 QCURVE",
"384 267 LINE"
);
}
);
userData = {
assembly = "PUSHW[ ]	/* 1 value pushed */\01220 \012CALL[ ]	/* CallFunction */\012PUSHW[ ]	/* 4 values pushed */\01277 3 34 24 \012CALL[ ]	/* CallFunction */\012PUSHW[ ]	/* 4 values pushed */\0128 3 21 24 \012CALL[ ]	/* CallFunction */\012PUSHW[ ]	/* 1 value pushed */\0128 \012SRP0[ ]	/* SetRefPoint0 */\012PUSHW[ ]	/* 1 value pushed */\01226 \012MDRP[10000]	/* MoveDirectRelPt */\012PUSHW[ ]	/* 1 value pushed */\01226 \012MDAP[1]	/* MoveDirectAbsPt */\012PUSHW[ ]	/* 1 value pushed */\0128 \012SRP0[ ]	/* SetRefPoint0 */\012PUSHW[ ]	/* 1 value pushed */\01244 \012MDRP[10000]	/* MoveDirectRelPt */\012PUSHW[ ]	/* 1 value pushed */\01244 \012MDAP[1]	/* MoveDirectAbsPt */\012PUSHW[ ]	/* 1 value pushed */\01277 \012SRP0[ ]	/* SetRefPoint0 */\012PUSHW[ ]	/* 2 values pushed */\01253 3 \012MIRP[10100]	/* MoveIndirectRelPt */\012PUSHW[ ]	/* 2 values pushed */\01252 3 \012MIRP[10100]	/* MoveIndirectRelPt */\012PUSHW[ ]	/* 1 value pushed */\0128 \012SRP0[ ]	/* SetRefPoint0 */\012PUSHW[ ]	/* 2 values pushed */\01263 3 \012MIRP[10100]	/* MoveIndirectRelPt */\012PUSHW[ ]	/* 1 value pushed */\0128 \012SRP0[ ]	/* SetRefPoint0 */\012PUSHW[ ]	/* 2 values pushed */\01269 3 \012MIRP[10100]	/* MoveIndirectRelPt */\012PUSHW[ ]	/* 1 value pushed */\0128 \012SRP0[ ]	/* SetRefPoint0 */\012PUSHW[ ]	/* 1 value pushed */\01270 \012MDRP[10000]	/* MoveDirectRelPt */\012PUSHW[ ]	/* 1 value pushed */\01270 \012MDAP[1]	/* MoveDirectAbsPt */\012PUSHW[ ]	/* 1 value pushed */\01244 \012SRP0[ ]	/* SetRefPoint0 */\012PUSHW[ ]	/* 1 value pushed */\01287 \012MDRP[10000]	/* MoveDirectRelPt */\012PUSHW[ ]	/* 1 value pushed */\01287 \012MDAP[1]	/* MoveDirectAbsPt */\012SVTCA[0]	/* SetFreedomAndProjectionVectorToAxis */\012PUSHW[ ]	/* 1 value pushed */\0121 \012RCVT[ ]	/* ReadCVT */\012IF[ ]	/* If */\012PUSHW[ ]	/* 1 value pushed */\01258 \012MDAP[1]	/* MoveDirectAbsPt */\012ELSE[ ]	/* Else */\012PUSHW[ ]	/* 2 values pushed */\01258 8 \012MIAP[0]	/* MoveIndirectAbsPt */\012EIF[ ]	/* EndIf */\012PUSHW[ ]	/* 1 value pushed */\0121 \012RCVT[ ]	/* ReadCVT */\012IF[ ]	/* If */\012PUSHW[ ]	/* 1 value pushed */\01218 \012MDAP[1]	/* MoveDirectAbsPt */\012ELSE[ ]	/* Else */\012PUSHW[ ]	/* 2 values pushed */\01218 6 \012MIAP[0]	/* MoveIndirectAbsPt */\012EIF[ ]	/* EndIf */\012PUSHW[ ]	/* 1 value pushed */\0121 \012RCVT[ ]	/* ReadCVT */\012IF[ ]	/* If */\012PUSHW[ ]	/* 1 value pushed */\0123 \012MDAP[1]	/* MoveDirectAbsPt */\012ELSE[ ]	/* Else */\012PUSHW[ ]	/* 2 values pushed */\0123 4 \012MIAP[0]	/* MoveIndirectAbsPt */\012EIF[ ]	/* EndIf */\012PUSHW[ ]	/* 1 value pushed */\0121 \012RCVT[ ]	/* ReadCVT */\012IF[ ]	/* If */\012PUSHW[ ]	/* 1 value pushed */\01224 \012MDAP[1]	/* MoveDirectAbsPt */\012ELSE[ ]	/* Else */\012PUSHW[ ]	/* 2 values pushed */\01224 4 \012MIAP[0]	/* MoveIndirectAbsPt */\012EIF[ ]	/* EndIf */\012PUSHW[ ]	/* 1 value pushed */\0121 \012RCVT[ ]	/* ReadCVT */\012IF[ ]	/* If */\012PUSHW[ ]	/* 1 value pushed */\01229 \012MDAP[1]	/* MoveDirectAbsPt */\012ELSE[ ]	/* Else */\012PUSHW[ ]	/* 2 values pushed */\01229 4 \012MIAP[0]	/* MoveIndirectAbsPt */\012EIF[ ]	/* EndIf */\012PUSHW[ ]	/* 1 value pushed */\01218 \012SRP0[ ]	/* SetRefPoint0 */\012PUSHW[ ]	/* 2 values pushed */\01211 2 \012MIRP[10100]	/* MoveIndirectRelPt */\012PUSHW[ ]	/* 1 value pushed */\01258 \012SRP0[ ]	/* SetRefPoint0 */\012PUSHW[ ]	/* 2 values pushed */\01249 2 \012MIRP[10100]	/* MoveIndirectRelPt */\012PUSHW[ ]	/* 1 value pushed */\01258 \012SRP0[ ]	/* SetRefPoint0 */\012PUSHW[ ]	/* 1 value pushed */\01252 \012MDRP[11100]	/* MoveDirectRelPt */\012PUSHW[ ]	/* 1 value pushed */\0123 \012SRP0[ ]	/* SetRefPoint0 */\012PUSHW[ ]	/* 2 values pushed */\01267 2 \012MIRP[10100]	/* MoveIndirectRelPt */\012PUSHW[ ]	/* 1 value pushed */\01282 \012MDRP[10000]	/* MoveDirectRelPt */\012IUP[0]	/* InterpolateUntPts */\012IUP[1]	/* InterpolateUntPts */";
};
width = 537;
}
);
note = aogonek;
unicode = 0105;
},
{
glyphname = aring;
lastChange = "2020-08-05 16:35:22 +0000";
layers = (
{
layerId = "A36D14D1-FF07-4574-A62D-30DF65569781";
paths = (
{
closed = 1;
nodes = (
"156 685 OFFCURVE",
"174 726 OFFCURVE",
"205 757 OFFCURVE",
"246 775 OFFCURVE",
"269 775 QCURVE SMOOTH",
"292 775 OFFCURVE",
"333 757 OFFCURVE",
"364 726 OFFCURVE",
"382 685 OFFCURVE",
"382 662 QCURVE SMOOTH",
"382 639 OFFCURVE",
"364 598 OFFCURVE",
"333 567 OFFCURVE",
"292 549 OFFCURVE",
"269 549 QCURVE SMOOTH",
"246 549 OFFCURVE",
"205 567 OFFCURVE",
"174 598 OFFCURVE",
"156 639 OFFCURVE",
"156 662 QCURVE",
"156 662 LINE"
);
},
{
closed = 1;
nodes = (
"201 633 OFFCURVE",
"240 594 OFFCURVE",
"269 594 QCURVE SMOOTH",
"298 594 OFFCURVE",
"337 633 OFFCURVE",
"337 662 QCURVE SMOOTH",
"337 691 OFFCURVE",
"298 730 OFFCURVE",
"269 730 QCURVE SMOOTH",
"240 730 OFFCURVE",
"201 691 OFFCURVE",
"201 662 QCURVE",
"201 662 LINE"
);
},
{
closed = 1;
nodes = (
"500 -11 OFFCURVE",
"461 -11 QCURVE SMOOTH",
"428 -11 OFFCURVE",
"389 26 OFFCURVE",
"389 68 QCURVE",
"354 26 OFFCURVE",
"261 -11 OFFCURVE",
"207 -11 QCURVE SMOOTH",
"172 -11 OFFCURVE",
"110 4 OFFCURVE",
"63 39 OFFCURVE",
"36 94 OFFCURVE",
"36 133 QCURVE SMOOTH",
"36 177 OFFCURVE",
"66 233 OFFCURVE",
"115 268 OFFCURVE",
"178 286 OFFCURVE",
"211 292 QCURVE SMOOTH",
"246 299 OFFCURVE",
"309 306 OFFCURVE",
"357 319 OFFCURVE",
"385 344 OFFCURVE",
"385 368 QCURVE SMOOTH",
"385 396 OFFCURVE",
"364 430 OFFCURVE",
"331 448 OFFCURVE",
"290 454 OFFCURVE",
"270 454 QCURVE SMOOTH",
"216 454 OFFCURVE",
"144 413 OFFCURVE",
"141 356 QCURVE",
"56 356 LINE",
"58 404 OFFCURVE",
"94 470 OFFCURVE",
"154 511 OFFCURVE",
"232 529 OFFCURVE",
"275 529 QCURVE SMOOTH",
"310 529 OFFCURVE",
"379 519 OFFCURVE",
"435 488 OFFCURVE",
"469 432 OFFCURVE",
"469 387 QCURVE SMOOTH",
"469 121 LINE SMOOTH",
"469 91 OFFCURVE",
"476 63 OFFCURVE",
"496 63 QCURVE SMOOTH",
"507 63 OFFCURVE",
"522 68 QCURVE",
"522 2 LINE",
"522 2 LINE"
);
},
{
closed = 1;
nodes = (
"368 255 OFFCURVE",
"316 244 OFFCURVE",
"259 237 OFFCURVE",
"201 228 OFFCURVE",
"155 208 OFFCURVE",
"126 171 OFFCURVE",
"126 139 QCURVE SMOOTH",
"126 118 OFFCURVE",
"143 89 OFFCURVE",
"170 71 OFFCURVE",
"207 63 OFFCURVE",
"226 63 QCURVE SMOOTH",
"268 63 OFFCURVE",
"328 86 OFFCURVE",
"366 121 OFFCURVE",
"384 162 OFFCURVE",
"384 180 QCURVE SMOOTH",
"384 267 LINE",
"384 267 LINE"
);
}
);
userData = {
assembly = "PUSHW[ ]	/* 3 values pushed */\01292 68 3 \012CALL[ ]	/* CallFunction */\012PUSHW[ ]	/* 1 value pushed */\01292 \012SRP0[ ]	/* SetRefPoint0 */\012PUSHW[ ]	/* 3 values pushed */\01210 26 3 \012CALL[ ]	/* CallFunction */\012PUSHW[ ]	/* 1 value pushed */\01210 \012SRP0[ ]	/* SetRefPoint0 */\012PUSHW[ ]	/* 3 values pushed */\01220 0 3 \012CALL[ ]	/* CallFunction */\012PUSHW[ ]	/* 1 value pushed */\01220 \012SRP0[ ]	/* SetRefPoint0 */\012NPUSHW[ ]	/* 27 values pushed */\0126 20 22 20 38 20 54 20 70 20 86 20 102 20 118 20 134 20 150 20 166 20 182 20 198 20 13 \012DELTAP1[ ]	/* DeltaExceptionP1 */\012NPUSHW[ ]	/* 5 values pushed */\012213 20 229 20 2 \012DELTAP1[ ]	/* DeltaExceptionP1 */\012NPUSHW[ ]	/* 5 values pushed */\012218 26 234 26 2 \012DELTAP1[ ]	/* DeltaExceptionP1 */\012NPUSHW[ ]	/* 27 values pushed */\0129 26 25 26 41 26 57 26 73 26 89 26 105 26 121 26 137 26 153 26 169 26 185 26 201 26 13 \012DELTAP1[ ]	/* DeltaExceptionP1 */\012PUSHW[ ]	/* 1 value pushed */\01210 \012SRP0[ ]	/* SetRefPoint0 */\012PUSHW[ ]	/* 1 value pushed */\01239 \012MDRP[11100]	/* MoveDirectRelPt */\012NPUSHW[ ]	/* 27 values pushed */\0126 92 22 92 38 92 54 92 70 92 86 92 102 92 118 92 134 92 150 92 166 92 182 92 198 92 13 \012DELTAP1[ ]	/* DeltaExceptionP1 */\012NPUSHW[ ]	/* 5 values pushed */\012213 92 229 92 2 \012DELTAP1[ ]	/* DeltaExceptionP1 */\012PUSHW[ ]	/* 3 values pushed */\01249 68 92 \012SRP1[ ]	/* SetRefPoint1 */\012SRP2[ ]	/* SetRefPoint2 */\012IP[ ]	/* InterpolatePts */\012PUSHW[ ]	/* 1 value pushed */\01249 \012MDAP[1]	/* MoveDirectAbsPt */\012PUSHW[ ]	/* 1 value pushed */\01250 \012MDRP[11100]	/* MoveDirectRelPt */\012PUSHW[ ]	/* 1 value pushed */\01210 \012SRP0[ ]	/* SetRefPoint0 */\012PUSHW[ ]	/* 1 value pushed */\01258 \012MDRP[10000]	/* MoveDirectRelPt */\012PUSHW[ ]	/* 1 value pushed */\01258 \012MDAP[1]	/* MoveDirectAbsPt */\012PUSHW[ ]	/* 1 value pushed */\01210 \012SRP0[ ]	/* SetRefPoint0 */\012PUSHW[ ]	/* 1 value pushed */\01276 \012MDRP[10000]	/* MoveDirectRelPt */\012PUSHW[ ]	/* 1 value pushed */\01276 \012MDAP[1]	/* MoveDirectAbsPt */\012PUSHW[ ]	/* 1 value pushed */\01210 \012SRP0[ ]	/* SetRefPoint0 */\012PUSHW[ ]	/* 1 value pushed */\01281 \012MDRP[10000]	/* MoveDirectRelPt */\012PUSHW[ ]	/* 1 value pushed */\01281 \012MDAP[1]	/* MoveDirectAbsPt */\012PUSHW[ ]	/* 1 value pushed */\01258 \012SRP0[ ]	/* SetRefPoint0 */\012PUSHW[ ]	/* 1 value pushed */\01282 \012MDRP[10000]	/* MoveDirectRelPt */\012PUSHW[ ]	/* 1 value pushed */\01282 \012MDAP[1]	/* MoveDirectAbsPt */\012SVTCA[0]	/* SetFreedomAndProjectionVectorToAxis */\012PUSHW[ ]	/* 3 values pushed */\01287 73 3 \012CALL[ ]	/* CallFunction */\012PUSHW[ ]	/* 1 value pushed */\01287 \012SRP0[ ]	/* SetRefPoint0 */\012PUSHW[ ]	/* 3 values pushed */\01215 23 3 \012CALL[ ]	/* CallFunction */\012PUSHW[ ]	/* 1 value pushed */\01215 \012SRP0[ ]	/* SetRefPoint0 */\012PUSHW[ ]	/* 3 values pushed */\01229 5 3 \012CALL[ ]	/* CallFunction */\012PUSHW[ ]	/* 1 value pushed */\01229 \012SRP0[ ]	/* SetRefPoint0 */\012PUSHW[ ]	/* 3 values pushed */\01244 53 3 \012CALL[ ]	/* CallFunction */\012PUSHW[ ]	/* 1 value pushed */\01244 \012SRP0[ ]	/* SetRefPoint0 */\012PUSHW[ ]	/* 1 value pushed */\01287 \012SRP0[ ]	/* SetRefPoint0 */\012PUSHW[ ]	/* 1 value pushed */\01235 \012MDRP[10000]	/* MoveDirectRelPt */\012PUSHW[ ]	/* 1 value pushed */\01244 \012SRP0[ ]	/* SetRefPoint0 */\012PUSHW[ ]	/* 1 value pushed */\01250 \012MDRP[11100]	/* MoveDirectRelPt */\012PUSHW[ ]	/* 1 value pushed */\01273 \012SRP0[ ]	/* SetRefPoint0 */\012PUSHW[ ]	/* 1 value pushed */\01279 \012MDRP[10000]	/* MoveDirectRelPt */\012IUP[0]	/* InterpolateUntPts */\012IUP[1]	/* InterpolateUntPts */";
};
width = 537;
}
);
note = aring;
unicode = 00E5;
},
{
glyphname = ae;
lastChange = "2020-08-05 16:35:22 +0000";
layers = (
{
layerId = "A36D14D1-FF07-4574-A62D-30DF65569781";
paths = (
{
closed = 1;
nodes = (
"467 199 OFFCURVE",
"486 137 OFFCURVE",
"524 90 OFFCURVE",
"583 63 OFFCURVE",
"622 63 QCURVE SMOOTH",
"670 63 OFFCURVE",
"741 112 OFFCURVE",
"753 163 QCURVE",
"840 163 LINE",
"821 78 OFFCURVE",
"704 -11 OFFCURVE",
"616 -11 QCURVE SMOOTH",
"586 -11 OFFCURVE",
"530 -1 OFFCURVE",
"481 22 OFFCURVE",
"442 60 OFFCURVE",
"429 89 QCURVE",
"400 36 OFFCURVE",
"283 -11 OFFCURVE",
"211 -11 QCURVE SMOOTH",
"174 -11 OFFCURVE",
"110 4 OFFCURVE",
"63 39 OFFCURVE",
"36 94 OFFCURVE",
"36 133 QCURVE SMOOTH",
"36 177 OFFCURVE",
"66 233 OFFCURVE",
"115 268 OFFCURVE",
"178 286 OFFCURVE",
"211 292 QCURVE SMOOTH",
"258 301 OFFCURVE",
"325 311 OFFCURVE",
"367 326 OFFCURVE",
"387 351 OFFCURVE",
"387 374 QCURVE SMOOTH",
"387 400 OFFCURVE",
"366 432 OFFCURVE",
"333 449 OFFCURVE",
"291 454 OFFCURVE",
"270 454 QCURVE SMOOTH",
"216 454 OFFCURVE",
"144 413 OFFCURVE",
"141 356 QCURVE",
"56 356 LINE",
"58 404 OFFCURVE",
"94 470 OFFCURVE",
"154 511 OFFCURVE",
"232 529 OFFCURVE",
"275 529 QCURVE SMOOTH",
"298 529 OFFCURVE",
"348 524 OFFCURVE",
"396 508 OFFCURVE",
"436 478 OFFCURVE",
"448 454 QCURVE",
"474 494 OFFCURVE",
"566 529 OFFCURVE",
"613 529 QCURVE SMOOTH",
"681 529 OFFCURVE",
"770 482 OFFCURVE",
"824 401 OFFCURVE",
"846 293 OFFCURVE",
"846 233 QCURVE",
"467 233 LINE",
"467 233 LINE"
);
},
{
closed = 1;
nodes = (
"126 118 OFFCURVE",
"143 89 OFFCURVE",
"170 71 OFFCURVE",
"207 63 OFFCURVE",
"226 63 QCURVE SMOOTH",
"268 63 OFFCURVE",
"329 86 OFFCURVE",
"368 121 OFFCURVE",
"387 162 OFFCURVE",
"387 180 QCURVE SMOOTH",
"387 267 LINE",
"374 259 OFFCURVE",
"337 249 OFFCURVE",
"295 242 OFFCURVE",
"250 236 OFFCURVE",
"230 232 QCURVE SMOOTH",
"209 228 OFFCURVE",
"171 216 OFFCURVE",
"143 195 OFFCURVE",
"126 163 OFFCURVE",
"126 139 QCURVE",
"126 139 LINE"
);
},
{
closed = 1;
nodes = (
"755 338 OFFCURVE",
"736 392 OFFCURVE",
"700 431 OFFCURVE",
"647 454 OFFCURVE",
"613 454 QCURVE SMOOTH",
"579 454 OFFCURVE",
"525 432 OFFCURVE",
"487 393 OFFCURVE",
"467 340 OFFCURVE",
"467 308 QCURVE",
"756 308 LINE",
"756 308 LINE"
);
}
);
userData = {
assembly = "PUSHW[ ]	/* 3 values pushed */\01263 38 3 \012CALL[ ]	/* CallFunction */\012PUSHW[ ]	/* 1 value pushed */\01263 \012SRP0[ ]	/* SetRefPoint0 */\012PUSHW[ ]	/* 3 values pushed */\01285 73 3 \012CALL[ ]	/* CallFunction */\012PUSHW[ ]	/* 1 value pushed */\01285 \012SRP0[ ]	/* SetRefPoint0 */\012PUSHW[ ]	/* 3 values pushed */\0121 84 3 \012CALL[ ]	/* CallFunction */\012PUSHW[ ]	/* 1 value pushed */\0121 \012SRP0[ ]	/* SetRefPoint0 */\012PUSHW[ ]	/* 1 value pushed */\01285 \012SRP0[ ]	/* SetRefPoint0 */\012PUSHW[ ]	/* 1 value pushed */\0120 \012MDRP[10000]	/* MoveDirectRelPt */\012PUSHW[ ]	/* 3 values pushed */\0129 73 85 \012SRP1[ ]	/* SetRefPoint1 */\012SRP2[ ]	/* SetRefPoint2 */\012IP[ ]	/* InterpolatePts */\012NPUSHW[ ]	/* 27 values pushed */\0126 63 22 63 38 63 54 63 70 63 86 63 102 63 118 63 134 63 150 63 166 63 182 63 198 63 13 \012DELTAP1[ ]	/* DeltaExceptionP1 */\012NPUSHW[ ]	/* 5 values pushed */\012213 63 229 63 2 \012DELTAP1[ ]	/* DeltaExceptionP1 */\012PUSHW[ ]	/* 3 values pushed */\01219 38 63 \012SRP1[ ]	/* SetRefPoint1 */\012SRP2[ ]	/* SetRefPoint2 */\012IP[ ]	/* InterpolatePts */\012PUSHW[ ]	/* 1 value pushed */\01219 \012MDAP[1]	/* MoveDirectAbsPt */\012PUSHW[ ]	/* 1 value pushed */\01220 \012MDRP[11100]	/* MoveDirectRelPt */\012PUSHW[ ]	/* 1 value pushed */\01273 \012SRP0[ ]	/* SetRefPoint0 */\012PUSHW[ ]	/* 1 value pushed */\01228 \012MDRP[10000]	/* MoveDirectRelPt */\012PUSHW[ ]	/* 3 values pushed */\01246 73 85 \012SRP1[ ]	/* SetRefPoint1 */\012SRP2[ ]	/* SetRefPoint2 */\012IP[ ]	/* InterpolatePts */\012PUSHW[ ]	/* 1 value pushed */\0121 \012SRP0[ ]	/* SetRefPoint0 */\012PUSHW[ ]	/* 1 value pushed */\01254 \012MDRP[10000]	/* MoveDirectRelPt */\012PUSHW[ ]	/* 1 value pushed */\01254 \012MDAP[1]	/* MoveDirectAbsPt */\012PUSHW[ ]	/* 1 value pushed */\0121 \012SRP0[ ]	/* SetRefPoint0 */\012PUSHW[ ]	/* 1 value pushed */\01296 \012MDRP[11100]	/* MoveDirectRelPt */\012SVTCA[0]	/* SetFreedomAndProjectionVectorToAxis */\012PUSHW[ ]	/* 3 values pushed */\01279 43 3 \012CALL[ ]	/* CallFunction */\012PUSHW[ ]	/* 1 value pushed */\01279 \012SRP0[ ]	/* SetRefPoint0 */\012PUSHW[ ]	/* 3 values pushed */\0126 90 3 \012CALL[ ]	/* CallFunction */\012PUSHW[ ]	/* 1 value pushed */\0126 \012SRP0[ ]	/* SetRefPoint0 */\012PUSHW[ ]	/* 3 values pushed */\01285 0 3 \012CALL[ ]	/* CallFunction */\012PUSHW[ ]	/* 1 value pushed */\01285 \012SRP0[ ]	/* SetRefPoint0 */\012PUSHW[ ]	/* 1 value pushed */\0126 \012SRP0[ ]	/* SetRefPoint0 */\012PUSHW[ ]	/* 1 value pushed */\01214 \012MDRP[10000]	/* MoveDirectRelPt */\012PUSHW[ ]	/* 1 value pushed */\01220 \012MDRP[11100]	/* MoveDirectRelPt */\012PUSHW[ ]	/* 3 values pushed */\0129 14 20 \012SRP1[ ]	/* SetRefPoint1 */\012SRP2[ ]	/* SetRefPoint2 */\012IP[ ]	/* InterpolatePts */\012PUSHW[ ]	/* 1 value pushed */\01290 \012SRP0[ ]	/* SetRefPoint0 */\012PUSHW[ ]	/* 1 value pushed */\01223 \012MDRP[10000]	/* MoveDirectRelPt */\012PUSHW[ ]	/* 1 value pushed */\01243 \012SRP0[ ]	/* SetRefPoint0 */\012PUSHW[ ]	/* 1 value pushed */\01251 \012MDRP[10000]	/* MoveDirectRelPt */\012PUSHW[ ]	/* 1 value pushed */\01255 \012MDRP[11100]	/* MoveDirectRelPt */\012PUSHW[ ]	/* 3 values pushed */\01246 51 55 \012SRP1[ ]	/* SetRefPoint1 */\012SRP2[ ]	/* SetRefPoint2 */\012IP[ ]	/* InterpolatePts */\012PUSHW[ ]	/* 1 value pushed */\01279 \012SRP0[ ]	/* SetRefPoint0 */\012PUSHW[ ]	/* 1 value pushed */\01258 \012MDRP[10000]	/* MoveDirectRelPt */\012PUSHW[ ]	/* 3 values pushed */\01273 0 85 \012SRP1[ ]	/* SetRefPoint1 */\012SRP2[ ]	/* SetRefPoint2 */\012IP[ ]	/* InterpolatePts */\012IUP[0]	/* InterpolateUntPts */\012IUP[1]	/* InterpolateUntPts */";
};
width = 870;
}
);
note = ae;
unicode = 00E6;
},
{
glyphname = uni01FD;
lastChange = "2020-08-05 16:35:22 +0000";
layers = (
{
layerId = "A36D14D1-FF07-4574-A62D-30DF65569781";
paths = (
{
closed = 1;
nodes = (
"846 233 LINE",
"846 293 OFFCURVE",
"824 401 OFFCURVE",
"770 482 OFFCURVE",
"680 529 OFFCURVE",
"613 529 QCURVE SMOOTH",
"566 529 OFFCURVE",
"474 494 OFFCURVE",
"448 454 QCURVE",
"436 478 OFFCURVE",
"396 508 OFFCURVE",
"348 524 OFFCURVE",
"297 529 OFFCURVE",
"275 529 QCURVE SMOOTH",
"231 529 OFFCURVE",
"154 511 OFFCURVE",
"94 470 OFFCURVE",
"58 404 OFFCURVE",
"56 356 QCURVE",
"141 356 LINE",
"144 413 OFFCURVE",
"216 454 OFFCURVE",
"270 454 QCURVE SMOOTH",
"291 454 OFFCURVE",
"333 449 OFFCURVE",
"366 432 OFFCURVE",
"387 400 OFFCURVE",
"387 374 QCURVE SMOOTH",
"387 351 OFFCURVE",
"367 326 OFFCURVE",
"325 311 OFFCURVE",
"258 301 OFFCURVE",
"211 292 QCURVE SMOOTH",
"178 286 OFFCURVE",
"115 268 OFFCURVE",
"66 233 OFFCURVE",
"36 177 OFFCURVE",
"36 133 QCURVE SMOOTH",
"36 94 OFFCURVE",
"63 39 OFFCURVE",
"110 4 OFFCURVE",
"174 -12 OFFCURVE",
"211 -12 QCURVE SMOOTH",
"283 -12 OFFCURVE",
"400 36 OFFCURVE",
"429 89 QCURVE",
"442 60 OFFCURVE",
"481 21 OFFCURVE",
"530 -2 OFFCURVE",
"586 -12 OFFCURVE",
"616 -12 QCURVE SMOOTH",
"704 -12 OFFCURVE",
"821 78 OFFCURVE",
"840 163 QCURVE",
"753 163 LINE",
"741 112 OFFCURVE",
"670 63 OFFCURVE",
"622 63 QCURVE SMOOTH",
"583 63 OFFCURVE",
"524 90 OFFCURVE",
"486 137 OFFCURVE",
"467 198 OFFCURVE",
"467 233 QCURVE",
"467 233 LINE"
);
},
{
closed = 1;
nodes = (
"467 308 LINE",
"467 339 OFFCURVE",
"487 393 OFFCURVE",
"525 432 OFFCURVE",
"579 454 OFFCURVE",
"613 454 QCURVE SMOOTH",
"647 454 OFFCURVE",
"699 431 OFFCURVE",
"735 392 OFFCURVE",
"755 338 OFFCURVE",
"756 308 QCURVE",
"756 308 LINE"
);
},
{
closed = 1;
nodes = (
"126 163 OFFCURVE",
"143 195 OFFCURVE",
"171 216 OFFCURVE",
"209 228 OFFCURVE",
"230 232 QCURVE SMOOTH",
"250 236 OFFCURVE",
"295 242 OFFCURVE",
"337 249 OFFCURVE",
"374 259 OFFCURVE",
"387 267 QCURVE",
"387 180 LINE SMOOTH",
"387 162 OFFCURVE",
"368 121 OFFCURVE",
"329 86 OFFCURVE",
"268 63 OFFCURVE",
"226 63 QCURVE SMOOTH",
"206 63 OFFCURVE",
"170 71 OFFCURVE",
"143 89 OFFCURVE",
"126 118 OFFCURVE",
"126 139 QCURVE",
"126 139 LINE"
);
},
{
closed = 1;
nodes = (
"416 589 LINE",
"480 589 LINE",
"611 732 LINE",
"502 732 LINE",
"502 732 LINE"
);
}
);
userData = {
assembly = "PUSHW[ ]	/* 1 value pushed */\01220 \012CALL[ ]	/* CallFunction */\012PUSHW[ ]	/* 4 values pushed */\01274 3 25 24 \012CALL[ ]	/* CallFunction */\012PUSHW[ ]	/* 4 values pushed */\01243 3 44 24 \012CALL[ ]	/* CallFunction */\012PUSHW[ ]	/* 4 values pushed */\01273 3 85 24 \012CALL[ ]	/* CallFunction */\012PUSHW[ ]	/* 4 values pushed */\01262 3 63 24 \012CALL[ ]	/* CallFunction */\012PUSHW[ ]	/* 1 value pushed */\01273 \012SRP0[ ]	/* SetRefPoint0 */\012PUSHW[ ]	/* 1 value pushed */\0120 \012MDRP[10000]	/* MoveDirectRelPt */\012PUSHW[ ]	/* 1 value pushed */\01262 \012SRP0[ ]	/* SetRefPoint0 */\012PUSHW[ ]	/* 1 value pushed */\0129 \012MDRP[10000]	/* MoveDirectRelPt */\012PUSHW[ ]	/* 1 value pushed */\0129 \012MDAP[1]	/* MoveDirectAbsPt */\012PUSHW[ ]	/* 1 value pushed */\01285 \012SRP0[ ]	/* SetRefPoint0 */\012PUSHW[ ]	/* 1 value pushed */\01235 \012MDRP[10000]	/* MoveDirectRelPt */\012SVTCA[0]	/* SetFreedomAndProjectionVectorToAxis */\012PUSHW[ ]	/* 1 value pushed */\01297 \012MDAP[1]	/* MoveDirectAbsPt */\012PUSHW[ ]	/* 1 value pushed */\0121 \012RCVT[ ]	/* ReadCVT */\012IF[ ]	/* If */\012PUSHW[ ]	/* 1 value pushed */\01295 \012MDAP[1]	/* MoveDirectAbsPt */\012ELSE[ ]	/* Else */\012PUSHW[ ]	/* 2 values pushed */\01295 10 \012MIAP[0]	/* MoveIndirectAbsPt */\012EIF[ ]	/* EndIf */\012PUSHW[ ]	/* 1 value pushed */\0121 \012RCVT[ ]	/* ReadCVT */\012IF[ ]	/* If */\012PUSHW[ ]	/* 1 value pushed */\01249 \012MDAP[1]	/* MoveDirectAbsPt */\012ELSE[ ]	/* Else */\012PUSHW[ ]	/* 2 values pushed */\01249 8 \012MIAP[0]	/* MoveIndirectAbsPt */\012EIF[ ]	/* EndIf */\012PUSHW[ ]	/* 1 value pushed */\0121 \012RCVT[ ]	/* ReadCVT */\012IF[ ]	/* If */\012PUSHW[ ]	/* 1 value pushed */\01257 \012MDAP[1]	/* MoveDirectAbsPt */\012ELSE[ ]	/* Else */\012PUSHW[ ]	/* 2 values pushed */\01257 8 \012MIAP[0]	/* MoveIndirectAbsPt */\012EIF[ ]	/* EndIf */\012PUSHW[ ]	/* 1 value pushed */\0121 \012RCVT[ ]	/* ReadCVT */\012IF[ ]	/* If */\012PUSHW[ ]	/* 1 value pushed */\01212 \012MDAP[1]	/* MoveDirectAbsPt */\012ELSE[ ]	/* Else */\012PUSHW[ ]	/* 2 values pushed */\01212 4 \012MIAP[0]	/* MoveIndirectAbsPt */\012EIF[ ]	/* EndIf */\012PUSHW[ ]	/* 1 value pushed */\0121 \012RCVT[ ]	/* ReadCVT */\012IF[ ]	/* If */\012PUSHW[ ]	/* 1 value pushed */\01220 \012MDAP[1]	/* MoveDirectAbsPt */\012ELSE[ ]	/* Else */\012PUSHW[ ]	/* 2 values pushed */\01220 4 \012MIAP[0]	/* MoveIndirectAbsPt */\012EIF[ ]	/* EndIf */\012PUSHW[ ]	/* 4 values pushed */\01273 2 0 24 \012CALL[ ]	/* CallFunction */\012PUSHW[ ]	/* 1 value pushed */\01212 \012SRP0[ ]	/* SetRefPoint0 */\012PUSHW[ ]	/* 2 values pushed */\0125 2 \012MIRP[10100]	/* MoveIndirectRelPt */\012PUSHW[ ]	/* 1 value pushed */\01212 \012SRP0[ ]	/* SetRefPoint0 */\012PUSHW[ ]	/* 1 value pushed */\0128 \012MDRP[11100]	/* MoveDirectRelPt */\012PUSHW[ ]	/* 1 value pushed */\01249 \012SRP0[ ]	/* SetRefPoint0 */\012PUSHW[ ]	/* 2 values pushed */\01240 2 \012MIRP[10100]	/* MoveIndirectRelPt */\012PUSHW[ ]	/* 1 value pushed */\01249 \012SRP0[ ]	/* SetRefPoint0 */\012PUSHW[ ]	/* 1 value pushed */\01243 \012MDRP[11100]	/* MoveDirectRelPt */\012PUSHW[ ]	/* 1 value pushed */\01240 \012SRP0[ ]	/* SetRefPoint0 */\012PUSHW[ ]	/* 1 value pushed */\01268 \012MDRP[10000]	/* MoveDirectRelPt */\012PUSHW[ ]	/* 1 value pushed */\0125 \012SRP0[ ]	/* SetRefPoint0 */\012PUSHW[ ]	/* 1 value pushed */\01279 \012MDRP[10000]	/* MoveDirectRelPt */\012IUP[0]	/* InterpolateUntPts */\012IUP[1]	/* InterpolateUntPts */";
};
width = 870;
}
);
note = uni01FD;
unicode = 01FD;
},
{
glyphname = uni01E3;
lastChange = "2020-08-05 16:35:22 +0000";
layers = (
{
layerId = "A36D14D1-FF07-4574-A62D-30DF65569781";
paths = (
{
closed = 1;
nodes = (
"464 303 LINE",
"468 380 OFFCURVE",
"553 458 OFFCURVE",
"612 458 QCURVE SMOOTH",
"670 458 OFFCURVE",
"752 380 OFFCURVE",
"753 303 QCURVE",
"753 303 LINE"
);
},
{
closed = 1;
nodes = (
"382 200 LINE",
"379 166 OFFCURVE",
"375 151 QCURVE SMOOTH",
"368 127 OFFCURVE",
"344 105 QCURVE SMOOTH",
"317 80 OFFCURVE",
"253 55 OFFCURVE",
"229 55 QCURVE SMOOTH",
"187 55 OFFCURVE",
"125 99 OFFCURVE",
"125 140 QCURVE SMOOTH",
"125 188 OFFCURVE",
"164 210 QCURVE SMOOTH",
"187 224 OFFCURVE",
"242 232 QCURVE SMOOTH",
"316 244 LINE SMOOTH",
"346 249 OFFCURVE",
"370 258 OFFCURVE",
"382 266 QCURVE",
"382 266 LINE"
);
},
{
closed = 1;
nodes = (
"195 298 LINE SMOOTH",
"132 290 OFFCURVE",
"95 263 QCURVE SMOOTH",
"36 220 OFFCURVE",
"36 133 QCURVE SMOOTH",
"36 66 OFFCURVE",
"127 -18 OFFCURVE",
"211 -18 QCURVE SMOOTH",
"271 -18 OFFCURVE",
"373 35 OFFCURVE",
"413 94 QCURVE",
"427 57 OFFCURVE",
"478 20 QCURVE SMOOTH",
"533 -18 OFFCURVE",
"605 -18 QCURVE SMOOTH",
"643 -18 OFFCURVE",
"713 0 OFFCURVE",
"748 22 QCURVE SMOOTH",
"779 42 OFFCURVE",
"835 125 OFFCURVE",
"840 164 QCURVE",
"751 164 LINE",
"738 113 OFFCURVE",
"672 58 OFFCURVE",
"608 58 QCURVE SMOOTH",
"541 58 OFFCURVE",
"465 152 OFFCURVE",
"463 233 QCURVE",
"847 233 LINE",
"847 307 OFFCURVE",
"828 409 OFFCURVE",
"799 448 QCURVE SMOOTH",
"767 495 OFFCURVE",
"670 536 OFFCURVE",
"613 536 QCURVE SMOOTH",
"559 536 OFFCURVE",
"473 495 OFFCURVE",
"444 457 QCURVE",
"423 491 OFFCURVE",
"384 512 QCURVE SMOOTH",
"338 536 OFFCURVE",
"273 536 QCURVE SMOOTH",
"191 536 OFFCURVE",
"144 513 QCURVE SMOOTH",
"62 472 OFFCURVE",
"58 362 QCURVE",
"142 362 LINE",
"142 416 OFFCURVE",
"191 445 QCURVE SMOOTH",
"220 460 OFFCURVE",
"269 460 QCURVE SMOOTH",
"329 460 OFFCURVE",
"384 417 OFFCURVE",
"384 375 QCURVE SMOOTH",
"384 349 OFFCURVE",
"359 320 OFFCURVE",
"334 317 QCURVE",
"334 317 LINE"
);
},
{
closed = 1;
nodes = (
"288 600 LINE",
"601 600 LINE",
"601 658 LINE",
"288 658 LINE",
"288 658 LINE"
);
}
);
userData = {
assembly = "PUSHW[ ]	/* 1 value pushed */\01220 \012CALL[ ]	/* CallFunction */\012PUSHW[ ]	/* 4 values pushed */\01215 3 78 24 \012CALL[ ]	/* CallFunction */\012PUSHW[ ]	/* 4 values pushed */\01255 3 29 24 \012CALL[ ]	/* CallFunction */\012PUSHW[ ]	/* 4 values pushed */\01254 3 0 24 \012CALL[ ]	/* CallFunction */\012PUSHW[ ]	/* 1 value pushed */\01255 \012SRP0[ ]	/* SetRefPoint0 */\012PUSHW[ ]	/* 1 value pushed */\0126 \012MDRP[10000]	/* MoveDirectRelPt */\012PUSHW[ ]	/* 1 value pushed */\0126 \012MDAP[1]	/* MoveDirectAbsPt */\012PUSHW[ ]	/* 1 value pushed */\01229 \012SRP0[ ]	/* SetRefPoint0 */\012PUSHW[ ]	/* 1 value pushed */\0127 \012MDRP[10000]	/* MoveDirectRelPt */\012PUSHW[ ]	/* 1 value pushed */\0127 \012MDAP[1]	/* MoveDirectAbsPt */\012PUSHW[ ]	/* 1 value pushed */\01254 \012SRP0[ ]	/* SetRefPoint0 */\012PUSHW[ ]	/* 1 value pushed */\01262 \012MDRP[10000]	/* MoveDirectRelPt */\012PUSHW[ ]	/* 1 value pushed */\01262 \012MDAP[1]	/* MoveDirectAbsPt */\012SVTCA[0]	/* SetFreedomAndProjectionVectorToAxis */\012PUSHW[ ]	/* 1 value pushed */\0121 \012RCVT[ ]	/* ReadCVT */\012IF[ ]	/* If */\012PUSHW[ ]	/* 1 value pushed */\01268 \012MDAP[1]	/* MoveDirectAbsPt */\012ELSE[ ]	/* Else */\012PUSHW[ ]	/* 2 values pushed */\01268 4 \012MIAP[0]	/* MoveIndirectAbsPt */\012EIF[ ]	/* EndIf */\012PUSHW[ ]	/* 1 value pushed */\0121 \012RCVT[ ]	/* ReadCVT */\012IF[ ]	/* If */\012PUSHW[ ]	/* 1 value pushed */\01275 \012MDAP[1]	/* MoveDirectAbsPt */\012ELSE[ ]	/* Else */\012PUSHW[ ]	/* 2 values pushed */\01275 4 \012MIAP[0]	/* MoveIndirectAbsPt */\012EIF[ ]	/* EndIf */\012PUSHW[ ]	/* 4 values pushed */\01284 2 85 24 \012CALL[ ]	/* CallFunction */\012PUSHW[ ]	/* 4 values pushed */\01241 2 32 24 \012CALL[ ]	/* CallFunction */\012PUSHW[ ]	/* 4 values pushed */\0120 2 54 24 \012CALL[ ]	/* CallFunction */\012PUSHW[ ]	/* 1 value pushed */\01232 \012SRP0[ ]	/* SetRefPoint0 */\012PUSHW[ ]	/* 1 value pushed */\0123 \012MDRP[10000]	/* MoveDirectRelPt */\012PUSHW[ ]	/* 1 value pushed */\0123 \012MDAP[1]	/* MoveDirectAbsPt */\012PUSHW[ ]	/* 1 value pushed */\01254 \012SRP0[ ]	/* SetRefPoint0 */\012PUSHW[ ]	/* 1 value pushed */\01211 \012MDRP[10000]	/* MoveDirectRelPt */\012PUSHW[ ]	/* 1 value pushed */\01211 \012MDAP[1]	/* MoveDirectAbsPt */\012PUSHW[ ]	/* 1 value pushed */\01275 \012SRP0[ ]	/* SetRefPoint0 */\012PUSHW[ ]	/* 2 values pushed */\01218 2 \012MIRP[10100]	/* MoveIndirectRelPt */\012PUSHW[ ]	/* 1 value pushed */\01241 \012SRP0[ ]	/* SetRefPoint0 */\012PUSHW[ ]	/* 1 value pushed */\01248 \012MDRP[10000]	/* MoveDirectRelPt */\012PUSHW[ ]	/* 1 value pushed */\01218 \012SRP0[ ]	/* SetRefPoint0 */\012PUSHW[ ]	/* 1 value pushed */\01258 \012MDRP[10000]	/* MoveDirectRelPt */\012PUSHW[ ]	/* 1 value pushed */\0120 \012SRP0[ ]	/* SetRefPoint0 */\012PUSHW[ ]	/* 1 value pushed */\01282 \012MDRP[10000]	/* MoveDirectRelPt */\012PUSHW[ ]	/* 1 value pushed */\01282 \012MDAP[1]	/* MoveDirectAbsPt */\012IUP[0]	/* InterpolateUntPts */\012IUP[1]	/* InterpolateUntPts */";
};
width = 889;
}
);
note = uni01E3;
unicode = 01E3;
},
{
glyphname = b;
lastChange = "2020-08-10 02:07:25 +0000";
layers = (
{
layerId = "A36D14D1-FF07-4574-A62D-30DF65569781";
paths = (
{
closed = 1;
nodes = (
"400 61 LINE SMOOTH",
"400 50 OFFCURVE",
"391 41 OFFCURVE",
"380 41 CURVE SMOOTH",
"181 41 LINE SMOOTH",
"170 41 OFFCURVE",
"161 50 OFFCURVE",
"161 61 CURVE SMOOTH",
"161 670 LINE SMOOTH",
"161 681 OFFCURVE",
"152 690 OFFCURVE",
"141 690 CURVE SMOOTH",
"100 690 LINE SMOOTH",
"89 690 OFFCURVE",
"80 681 OFFCURVE",
"80 670 CURVE SMOOTH",
"80 51 LINE SMOOTH",
"80 22 OFFCURVE",
"102 0 OFFCURVE",
"131 0 CURVE SMOOTH",
"430 0 LINE SMOOTH",
"459 0 OFFCURVE",
"481 22 OFFCURVE",
"481 51 CURVE SMOOTH",
"481 410 LINE SMOOTH",
"481 421 OFFCURVE",
"472 430 OFFCURVE",
"461 430 CURVE SMOOTH",
"420 430 LINE SMOOTH",
"409 430 OFFCURVE",
"400 421 OFFCURVE",
"400 410 CURVE SMOOTH"
);
},
{
closed = 1;
nodes = (
"400 39 OFFCURVE",
"409 30 OFFCURVE",
"420 30 CURVE SMOOTH",
"461 30 LINE SMOOTH",
"472 30 OFFCURVE",
"481 39 OFFCURVE",
"481 50 CURVE SMOOTH",
"481 449 LINE SMOOTH",
"481 478 OFFCURVE",
"459 500 OFFCURVE",
"430 500 CURVE SMOOTH",
"131 500 LINE SMOOTH",
"102 500 OFFCURVE",
"80 478 OFFCURVE",
"80 449 CURVE SMOOTH",
"80 50 LINE SMOOTH",
"80 39 OFFCURVE",
"89 30 OFFCURVE",
"100 30 CURVE SMOOTH",
"141 30 LINE SMOOTH",
"152 30 OFFCURVE",
"161 39 OFFCURVE",
"161 50 CURVE SMOOTH",
"161 439 LINE SMOOTH",
"161 450 OFFCURVE",
"170 459 OFFCURVE",
"181 459 CURVE SMOOTH",
"380 459 LINE SMOOTH",
"391 459 OFFCURVE",
"400 450 OFFCURVE",
"400 439 CURVE SMOOTH",
"400 50 LINE SMOOTH"
);
}
);
width = 561;
}
);
unicode = 0062;
},
{
glyphname = c;
lastChange = "2020-08-10 02:07:25 +0000";
layers = (
{
layerId = "A36D14D1-FF07-4574-A62D-30DF65569781";
paths = (
{
closed = 1;
nodes = (
"476 47 LINE SMOOTH",
"475 62 OFFCURVE",
"466 73 OFFCURVE",
"454 73 CURVE SMOOTH",
"147 73 LINE SMOOTH",
"135 73 OFFCURVE",
"125 85 OFFCURVE",
"125 99 CURVE SMOOTH",
"125 397 LINE SMOOTH",
"125 411 OFFCURVE",
"135 423 OFFCURVE",
"147 423 CURVE SMOOTH",
"451 423 LINE SMOOTH",
"463 423 OFFCURVE",
"473 434 OFFCURVE",
"473 449 CURVE SMOOTH",
"473 472 LINE SMOOTH",
"473 486 OFFCURVE",
"463 498 OFFCURVE",
"451 498 CURVE SMOOTH",
"136 498 LINE SMOOTH",
"104 498 OFFCURVE",
"80 469 OFFCURVE",
"80 432 CURVE SMOOTH",
"80 34 LINE SMOOTH",
"80 -3 OFFCURVE",
"104 -2 OFFCURVE",
"136 -2 CURVE SMOOTH",
"454 -2 LINE SMOOTH",
"467 -2 OFFCURVE",
"478 10 OFFCURVE",
"477 25 CURVE SMOOTH"
);
}
);
width = 542;
}
);
unicode = 0063;
},
{
glyphname = ccedilla;
lastChange = "2020-08-05 16:35:22 +0000";
layers = (
{
layerId = "A36D14D1-FF07-4574-A62D-30DF65569781";
paths = (
{
closed = 1;
nodes = (
"405 400 OFFCURVE",
"341 454 OFFCURVE",
"287 454 QCURVE SMOOTH",
"241 454 OFFCURVE",
"179 420 OFFCURVE",
"142 364 OFFCURVE",
"126 291 OFFCURVE",
"126 252 QCURVE SMOOTH",
"126 216 OFFCURVE",
"143 148 OFFCURVE",
"179 95 OFFCURVE",
"237 63 OFFCURVE",
"277 63 QCURVE SMOOTH",
"340 63 OFFCURVE",
"411 129 OFFCURVE",
"419 189 QCURVE",
"506 189 LINE",
"492 98 OFFCURVE",
"384 -6 OFFCURVE",
"293 -10 QCURVE",
"260 -52 LINE",
"262 -54 LINE",
"272 -47 OFFCURVE",
"295 -47 QCURVE SMOOTH",
"327 -47 OFFCURVE",
"379 -83 OFFCURVE",
"379 -120 QCURVE SMOOTH",
"379 -145 OFFCURVE",
"356 -179 OFFCURVE",
"320 -200 OFFCURVE",
"276 -209 OFFCURVE",
"255 -209 QCURVE SMOOTH",
"231 -209 OFFCURVE",
"186 -198 OFFCURVE",
"163 -190 QCURVE",
"181 -146 LINE",
"193 -151 OFFCURVE",
"226 -159 OFFCURVE",
"242 -159 QCURVE SMOOTH",
"252 -159 OFFCURVE",
"274 -156 OFFCURVE",
"292 -148 OFFCURVE",
"304 -137 OFFCURVE",
"304 -128 QCURVE SMOOTH",
"304 -114 OFFCURVE",
"277 -97 OFFCURVE",
"257 -97 QCURVE SMOOTH",
"245 -97 OFFCURVE",
"227 -101 OFFCURVE",
"216 -105 QCURVE",
"199 -77 LINE",
"252 -9 LINE",
"199 -5 OFFCURVE",
"118 37 OFFCURVE",
"64 105 OFFCURVE",
"36 197 OFFCURVE",
"36 252 QCURVE SMOOTH",
"36 310 OFFCURVE",
"66 411 OFFCURVE",
"127 486 OFFCURVE",
"219 529 OFFCURVE",
"280 529 QCURVE SMOOTH",
"324 529 OFFCURVE",
"401 508 OFFCURVE",
"460 464 OFFCURVE",
"498 397 OFFCURVE",
"503 351 QCURVE",
"415 351 LINE",
"415 351 LINE"
);
}
);
userData = {
assembly = "PUSHW[ ]	/* 3 values pushed */\01260 11 3 \012CALL[ ]	/* CallFunction */\012PUSHW[ ]	/* 1 value pushed */\01260 \012SRP0[ ]	/* SetRefPoint0 */\012NPUSHW[ ]	/* 27 values pushed */\0126 60 22 60 38 60 54 60 70 60 86 60 102 60 118 60 134 60 150 60 166 60 182 60 198 60 13 \012DELTAP1[ ]	/* DeltaExceptionP1 */\012NPUSHW[ ]	/* 5 values pushed */\012213 60 229 60 2 \012DELTAP1[ ]	/* DeltaExceptionP1 */\012SVTCA[0]	/* SetFreedomAndProjectionVectorToAxis */\012PUSHW[ ]	/* 3 values pushed */\01244 36 3 \012CALL[ ]	/* CallFunction */\012PUSHW[ ]	/* 1 value pushed */\01244 \012SRP0[ ]	/* SetRefPoint0 */\012PUSHW[ ]	/* 3 values pushed */\0126 65 3 \012CALL[ ]	/* CallFunction */\012PUSHW[ ]	/* 1 value pushed */\0126 \012SRP0[ ]	/* SetRefPoint0 */\012PUSHW[ ]	/* 3 values pushed */\01252 16 3 \012CALL[ ]	/* CallFunction */\012PUSHW[ ]	/* 1 value pushed */\01252 \012SRP0[ ]	/* SetRefPoint0 */\012PUSHW[ ]	/* 1 value pushed */\0126 \012SRP0[ ]	/* SetRefPoint0 */\012PUSHW[ ]	/* 1 value pushed */\0120 \012MDRP[11100]	/* MoveDirectRelPt */\012PUSHW[ ]	/* 3 values pushed */\01247 36 44 \012SRP1[ ]	/* SetRefPoint1 */\012SRP2[ ]	/* SetRefPoint2 */\012IP[ ]	/* InterpolatePts */\012PUSHW[ ]	/* 1 value pushed */\01216 \012SRP0[ ]	/* SetRefPoint0 */\012PUSHW[ ]	/* 1 value pushed */\01248 \012MDRP[10000]	/* MoveDirectRelPt */\012PUSHW[ ]	/* 1 value pushed */\01248 \012MDAP[1]	/* MoveDirectAbsPt */\012PUSHW[ ]	/* 1 value pushed */\01216 \012SRP0[ ]	/* SetRefPoint0 */\012PUSHW[ ]	/* 1 value pushed */\01255 \012MDRP[11100]	/* MoveDirectRelPt */\012IUP[0]	/* InterpolateUntPts */\012IUP[1]	/* InterpolateUntPts */";
};
width = 537;
}
);
note = ccedilla;
unicode = 00E7;
},
{
glyphname = d;
lastChange = "2020-08-10 02:07:25 +0000";
layers = (
{
layerId = "A36D14D1-FF07-4574-A62D-30DF65569781";
paths = (
{
closed = 1;
nodes = (
"161 421 OFFCURVE",
"152 430 OFFCURVE",
"141 430 CURVE SMOOTH",
"100 430 LINE SMOOTH",
"89 430 OFFCURVE",
"80 421 OFFCURVE",
"80 410 CURVE SMOOTH",
"80 51 LINE SMOOTH",
"80 22 OFFCURVE",
"102 0 OFFCURVE",
"131 0 CURVE SMOOTH",
"430 0 LINE SMOOTH",
"459 0 OFFCURVE",
"481 22 OFFCURVE",
"481 51 CURVE SMOOTH",
"481 680 LINE SMOOTH",
"481 691 OFFCURVE",
"472 700 OFFCURVE",
"461 700 CURVE SMOOTH",
"420 700 LINE SMOOTH",
"409 700 OFFCURVE",
"400 691 OFFCURVE",
"400 680 CURVE SMOOTH",
"400 61 LINE SMOOTH",
"400 50 OFFCURVE",
"391 41 OFFCURVE",
"380 41 CURVE SMOOTH",
"181 41 LINE SMOOTH",
"170 41 OFFCURVE",
"161 50 OFFCURVE",
"161 61 CURVE SMOOTH",
"161 410 LINE SMOOTH"
);
},
{
closed = 1;
nodes = (
"161 439 LINE SMOOTH",
"161 450 OFFCURVE",
"170 459 OFFCURVE",
"181 459 CURVE SMOOTH",
"380 459 LINE SMOOTH",
"391 459 OFFCURVE",
"400 450 OFFCURVE",
"400 439 CURVE SMOOTH",
"400 50 LINE SMOOTH",
"400 39 OFFCURVE",
"409 30 OFFCURVE",
"420 30 CURVE SMOOTH",
"461 30 LINE SMOOTH",
"472 30 OFFCURVE",
"481 39 OFFCURVE",
"481 50 CURVE SMOOTH",
"481 449 LINE SMOOTH",
"481 478 OFFCURVE",
"459 500 OFFCURVE",
"430 500 CURVE SMOOTH",
"131 500 LINE SMOOTH",
"102 500 OFFCURVE",
"80 478 OFFCURVE",
"80 449 CURVE SMOOTH",
"80 50 LINE SMOOTH",
"80 39 OFFCURVE",
"89 30 OFFCURVE",
"100 30 CURVE SMOOTH",
"141 30 LINE SMOOTH",
"152 30 OFFCURVE",
"161 39 OFFCURVE",
"161 50 CURVE SMOOTH"
);
}
);
width = 561;
}
);
unicode = 0064;
},
{
glyphname = eth;
lastChange = "2020-08-05 16:35:22 +0000";
layers = (
{
layerId = "A36D14D1-FF07-4574-A62D-30DF65569781";
paths = (
{
closed = 1;
nodes = (
"205 431 OFFCURVE",
"126 335 OFFCURVE",
"126 258 QCURVE SMOOTH",
"126 211 OFFCURVE",
"151 138 OFFCURVE",
"195 89 OFFCURVE",
"254 63 OFFCURVE",
"287 63 QCURVE SMOOTH",
"320 63 OFFCURVE",
"379 89 OFFCURVE",
"423 138 OFFCURVE",
"448 211 OFFCURVE",
"448 258 QCURVE SMOOTH",
"448 293 OFFCURVE",
"429 355 OFFCURVE",
"389 403 OFFCURVE",
"326 431 OFFCURVE",
"282 431 QCURVE",
"282 431 LINE"
);
},
{
closed = 1;
nodes = (
"312 506 OFFCURVE",
"384 481 OFFCURVE",
"411 450 QCURVE",
"413 450 LINE",
"401 476 OFFCURVE",
"369 523 OFFCURVE",
"335 563 OFFCURVE",
"303 593 OFFCURVE",
"291 601 QCURVE",
"176 547 LINE",
"138 587 LINE",
"247 638 LINE",
"231 652 OFFCURVE",
"191 678 OFFCURVE",
"177 686 QCURVE",
"247 731 LINE",
"261 721 OFFCURVE",
"304 691 OFFCURVE",
"324 675 QCURVE",
"444 731 LINE",
"479 694 LINE",
"364 641 LINE",
"455 566 OFFCURVE",
"538 373 OFFCURVE",
"538 258 QCURVE SMOOTH",
"538 201 OFFCURVE",
"506 103 OFFCURVE",
"442 30 OFFCURVE",
"349 -11 OFFCURVE",
"287 -11 QCURVE SMOOTH",
"226 -11 OFFCURVE",
"132 30 OFFCURVE",
"68 103 OFFCURVE",
"36 201 OFFCURVE",
"36 258 QCURVE SMOOTH",
"36 307 OFFCURVE",
"67 396 OFFCURVE",
"127 465 OFFCURVE",
"215 506 OFFCURVE",
"272 506 QCURVE",
"272 506 LINE"
);
}
);
userData = {
assembly = "PUSHW[ ]	/* 1 value pushed */\01258 \012MDAP[1]	/* MoveDirectAbsPt */\012PUSHW[ ]	/* 1 value pushed */\01259 \012MDAP[1]	/* MoveDirectAbsPt */\012PUSHW[ ]	/* 1 value pushed */\01233 \012MDRP[11100]	/* MoveDirectRelPt */\012PUSHW[ ]	/* 1 value pushed */\0125 \012MDRP[11100]	/* MoveDirectRelPt */\012NPUSHW[ ]	/* 5 values pushed */\012218 5 234 5 2 \012DELTAP1[ ]	/* DeltaExceptionP1 */\012NPUSHW[ ]	/* 27 values pushed */\0129 5 25 5 41 5 57 5 73 5 89 5 105 5 121 5 137 5 153 5 169 5 185 5 201 5 13 \012DELTAP1[ ]	/* DeltaExceptionP1 */\012PUSHW[ ]	/* 1 value pushed */\01258 \012SRP0[ ]	/* SetRefPoint0 */\012PUSHW[ ]	/* 1 value pushed */\01223 \012MDRP[10000]	/* MoveDirectRelPt */\012PUSHW[ ]	/* 1 value pushed */\01223 \012MDAP[1]	/* MoveDirectAbsPt */\012PUSHW[ ]	/* 1 value pushed */\01215 \012MDRP[11100]	/* MoveDirectRelPt */\012NPUSHW[ ]	/* 27 values pushed */\0126 15 22 15 38 15 54 15 70 15 86 15 102 15 118 15 134 15 150 15 166 15 182 15 198 15 13 \012DELTAP1[ ]	/* DeltaExceptionP1 */\012NPUSHW[ ]	/* 5 values pushed */\012213 15 229 15 2 \012DELTAP1[ ]	/* DeltaExceptionP1 */\012PUSHW[ ]	/* 3 values pushed */\01236 23 33 \012SRP1[ ]	/* SetRefPoint1 */\012SRP2[ ]	/* SetRefPoint2 */\012IP[ ]	/* InterpolatePts */\012PUSHW[ ]	/* 3 values pushed */\01237 33 5 \012SRP1[ ]	/* SetRefPoint1 */\012SRP2[ ]	/* SetRefPoint2 */\012IP[ ]	/* InterpolatePts */\012PUSHW[ ]	/* 1 value pushed */\0125 \012SRP0[ ]	/* SetRefPoint0 */\012PUSHW[ ]	/* 1 value pushed */\01238 \012MDRP[10000]	/* MoveDirectRelPt */\012PUSHW[ ]	/* 1 value pushed */\01238 \012MDAP[1]	/* MoveDirectAbsPt */\012PUSHW[ ]	/* 3 values pushed */\01243 23 33 \012SRP1[ ]	/* SetRefPoint1 */\012SRP2[ ]	/* SetRefPoint2 */\012IP[ ]	/* InterpolatePts */\012PUSHW[ ]	/* 3 values pushed */\01246 23 33 \012SRP1[ ]	/* SetRefPoint1 */\012SRP2[ ]	/* SetRefPoint2 */\012IP[ ]	/* InterpolatePts */\012PUSHW[ ]	/* 3 values pushed */\01247 23 33 \012SRP1[ ]	/* SetRefPoint1 */\012SRP2[ ]	/* SetRefPoint2 */\012IP[ ]	/* InterpolatePts */\012PUSHW[ ]	/* 3 values pushed */\01255 23 33 \012SRP1[ ]	/* SetRefPoint1 */\012SRP2[ ]	/* SetRefPoint2 */\012IP[ ]	/* InterpolatePts */\012SVTCA[0]	/* SetFreedomAndProjectionVectorToAxis */\012PUSHW[ ]	/* 1 value pushed */\01238 \012MDAP[1]	/* MoveDirectAbsPt */\012PUSHW[ ]	/* 1 value pushed */\01242 \012MDAP[1]	/* MoveDirectAbsPt */\012PUSHW[ ]	/* 3 values pushed */\01210 28 3 \012CALL[ ]	/* CallFunction */\012PUSHW[ ]	/* 1 value pushed */\01210 \012SRP0[ ]	/* SetRefPoint0 */\012PUSHW[ ]	/* 3 values pushed */\01218 0 3 \012CALL[ ]	/* CallFunction */\012PUSHW[ ]	/* 1 value pushed */\01218 \012SRP0[ ]	/* SetRefPoint0 */\012PUSHW[ ]	/* 3 values pushed */\01255 0 18 \012SRP1[ ]	/* SetRefPoint1 */\012SRP2[ ]	/* SetRefPoint2 */\012IP[ ]	/* InterpolatePts */\012IUP[0]	/* InterpolateUntPts */\012IUP[1]	/* InterpolateUntPts */";
};
width = 574;
}
);
note = eth;
unicode = 00F0;
},
{
glyphname = e;
lastChange = "2019-02-25 04:41:28 +0000";
layers = (
{
components = (
{
name = c;
}
);
layerId = "A36D14D1-FF07-4574-A62D-30DF65569781";
paths = (
{
closed = 1;
nodes = (
"142 273 LINE",
"439 274 LINE SMOOTH",
"468 274 OFFCURVE",
"490 296 OFFCURVE",
"490 325 CURVE SMOOTH",
"490 474 LINE",
"449 473 LINE",
"449 345 LINE SMOOTH",
"449 334 OFFCURVE",
"440 325 OFFCURVE",
"429 325 CURVE SMOOTH",
"139 324 LINE"
);
}
);
width = 509;
}
);
unicode = 0065;
},
{
glyphname = edieresis;
lastChange = "2020-08-05 16:35:22 +0000";
layers = (
{
layerId = "A36D14D1-FF07-4574-A62D-30DF65569781";
paths = (
{
closed = 1;
nodes = (
"220 696 LINE",
"220 592 LINE",
"130 592 LINE",
"130 696 LINE",
"130 696 LINE"
);
},
{
closed = 1;
nodes = (
"408 696 LINE",
"408 592 LINE",
"318 592 LINE",
"318 696 LINE",
"318 696 LINE"
);
},
{
closed = 1;
nodes = (
"421 338 OFFCURVE",
"398 392 OFFCURVE",
"359 431 OFFCURVE",
"306 454 OFFCURVE",
"274 454 QCURVE SMOOTH",
"241 454 OFFCURVE",
"188 431 OFFCURVE",
"150 391 OFFCURVE",
"128 338 OFFCURVE",
"126 308 QCURVE",
"423 308 LINE",
"423 308 LINE"
);
},
{
closed = 1;
nodes = (
"488 77 OFFCURVE",
"372 -11 OFFCURVE",
"284 -11 QCURVE SMOOTH",
"222 -11 OFFCURVE",
"131 29 OFFCURVE",
"69 101 OFFCURVE",
"38 201 OFFCURVE",
"36 260 QCURVE SMOOTH",
"36 319 OFFCURVE",
"72 417 OFFCURVE",
"137 489 OFFCURVE",
"226 529 OFFCURVE",
"279 529 QCURVE SMOOTH",
"348 529 OFFCURVE",
"439 472 OFFCURVE",
"494 384 OFFCURVE",
"515 280 OFFCURVE",
"513 233 QCURVE",
"126 233 LINE",
"125 199 OFFCURVE",
"143 138 OFFCURVE",
"183 91 OFFCURVE",
"245 63 OFFCURVE",
"287 63 QCURVE SMOOTH",
"341 63 OFFCURVE",
"410 113 OFFCURVE",
"421 164 QCURVE",
"505 164 LINE",
"505 164 LINE"
);
}
);
userData = {
assembly = "PUSHW[ ]	/* 3 values pushed */\01228 39 3 \012CALL[ ]	/* CallFunction */\012PUSHW[ ]	/* 1 value pushed */\01228 \012SRP0[ ]	/* SetRefPoint0 */\012PUSHW[ ]	/* 3 values pushed */\0127 4 3 \012CALL[ ]	/* CallFunction */\012PUSHW[ ]	/* 1 value pushed */\0127 \012SRP0[ ]	/* SetRefPoint0 */\012PUSHW[ ]	/* 3 values pushed */\01229 8 3 \012CALL[ ]	/* CallFunction */\012PUSHW[ ]	/* 1 value pushed */\01229 \012SRP0[ ]	/* SetRefPoint0 */\012PUSHW[ ]	/* 1 value pushed */\01228 \012SRP0[ ]	/* SetRefPoint0 */\012PUSHW[ ]	/* 1 value pushed */\0120 \012MDRP[10000]	/* MoveDirectRelPt */\012PUSHW[ ]	/* 1 value pushed */\0120 \012MDAP[1]	/* MoveDirectAbsPt */\012PUSHW[ ]	/* 1 value pushed */\01228 \012SRP0[ ]	/* SetRefPoint0 */\012PUSHW[ ]	/* 1 value pushed */\0123 \012MDRP[11100]	/* MoveDirectRelPt */\012PUSHW[ ]	/* 1 value pushed */\01228 \012SRP0[ ]	/* SetRefPoint0 */\012PUSHW[ ]	/* 1 value pushed */\0129 \012MDRP[10000]	/* MoveDirectRelPt */\012PUSHW[ ]	/* 1 value pushed */\0128 \012SRP0[ ]	/* SetRefPoint0 */\012PUSHW[ ]	/* 1 value pushed */\01220 \012MDRP[10000]	/* MoveDirectRelPt */\012PUSHW[ ]	/* 1 value pushed */\01220 \012MDAP[1]	/* MoveDirectAbsPt */\012PUSHW[ ]	/* 1 value pushed */\01229 \012SRP0[ ]	/* SetRefPoint0 */\012PUSHW[ ]	/* 1 value pushed */\01248 \012MDRP[11100]	/* MoveDirectRelPt */\012SVTCA[0]	/* SetFreedomAndProjectionVectorToAxis */\012PUSHW[ ]	/* 3 values pushed */\01223 44 3 \012CALL[ ]	/* CallFunction */\012PUSHW[ ]	/* 1 value pushed */\01223 \012SRP0[ ]	/* SetRefPoint0 */\012PUSHW[ ]	/* 3 values pushed */\0120 1 3 \012CALL[ ]	/* CallFunction */\012PUSHW[ ]	/* 1 value pushed */\0120 \012SRP0[ ]	/* SetRefPoint0 */\012PUSHW[ ]	/* 3 values pushed */\01234 14 3 \012CALL[ ]	/* CallFunction */\012PUSHW[ ]	/* 1 value pushed */\01234 \012SRP0[ ]	/* SetRefPoint0 */\012PUSHW[ ]	/* 3 values pushed */\0129 28 3 \012CALL[ ]	/* CallFunction */\012PUSHW[ ]	/* 1 value pushed */\0129 \012SRP0[ ]	/* SetRefPoint0 */\012PUSHW[ ]	/* 1 value pushed */\0120 \012SRP0[ ]	/* SetRefPoint0 */\012PUSHW[ ]	/* 1 value pushed */\0124 \012MDRP[10000]	/* MoveDirectRelPt */\012PUSHW[ ]	/* 1 value pushed */\0121 \012SRP0[ ]	/* SetRefPoint0 */\012PUSHW[ ]	/* 1 value pushed */\0125 \012MDRP[10000]	/* MoveDirectRelPt */\012PUSHW[ ]	/* 1 value pushed */\01244 \012SRP0[ ]	/* SetRefPoint0 */\012PUSHW[ ]	/* 1 value pushed */\01220 \012MDRP[11100]	/* MoveDirectRelPt */\012IUP[0]	/* InterpolateUntPts */\012IUP[1]	/* InterpolateUntPts */";
};
width = 537;
}
);
note = edieresis;
unicode = 00EB;
},
{
glyphname = eogonek;
lastChange = "2020-08-05 16:35:22 +0000";
layers = (
{
layerId = "A36D14D1-FF07-4574-A62D-30DF65569781";
paths = (
{
closed = 1;
nodes = (
"421 164 LINE",
"410 113 OFFCURVE",
"341 63 OFFCURVE",
"287 63 QCURVE SMOOTH",
"245 63 OFFCURVE",
"183 91 OFFCURVE",
"143 138 OFFCURVE",
"125 199 OFFCURVE",
"126 233 QCURVE",
"513 233 LINE",
"515 280 OFFCURVE",
"494 384 OFFCURVE",
"439 472 OFFCURVE",
"348 529 OFFCURVE",
"279 529 QCURVE SMOOTH",
"226 529 OFFCURVE",
"137 489 OFFCURVE",
"72 417 OFFCURVE",
"36 318 OFFCURVE",
"36 260 QCURVE SMOOTH",
"38 201 OFFCURVE",
"69 101 OFFCURVE",
"131 29 OFFCURVE",
"222 -11 OFFCURVE",
"284 -11 QCURVE SMOOTH",
"305 -11 OFFCURVE",
"326 -8 QCURVE",
"278 -39 OFFCURVE",
"230 -99 OFFCURVE",
"230 -134 QCURVE SMOOTH",
"230 -169 OFFCURVE",
"279 -209 OFFCURVE",
"322 -209 QCURVE SMOOTH",
"345 -209 OFFCURVE",
"391 -197 OFFCURVE",
"405 -184 QCURVE",
"403 -146 LINE",
"392 -152 OFFCURVE",
"355 -160 OFFCURVE",
"340 -160 QCURVE SMOOTH",
"317 -160 OFFCURVE",
"298 -133 OFFCURVE",
"298 -117 QCURVE SMOOTH",
"298 -105 OFFCURVE",
"306 -75 OFFCURVE",
"330 -40 OFFCURVE",
"373 -2 OFFCURVE",
"409 19 QCURVE SMOOTH",
"449 42 OFFCURVE",
"494 113 OFFCURVE",
"505 164 QCURVE",
"505 164 LINE"
);
},
{
closed = 1;
nodes = (
"126 308 LINE",
"128 338 OFFCURVE",
"150 391 OFFCURVE",
"188 431 OFFCURVE",
"241 454 OFFCURVE",
"274 454 QCURVE SMOOTH",
"306 454 OFFCURVE",
"359 431 OFFCURVE",
"398 392 OFFCURVE",
"421 338 OFFCURVE",
"423 308 QCURVE",
"423 308 LINE"
);
}
);
userData = {
assembly = "PUSHW[ ]	/* 1 value pushed */\01220 \012CALL[ ]	/* CallFunction */\012PUSHW[ ]	/* 4 values pushed */\01242 3 31 24 \012CALL[ ]	/* CallFunction */\012PUSHW[ ]	/* 4 values pushed */\0128 3 21 24 \012CALL[ ]	/* CallFunction */\012PUSHW[ ]	/* 4 values pushed */\01241 3 51 24 \012CALL[ ]	/* CallFunction */\012PUSHW[ ]	/* 1 value pushed */\01251 \012SRP0[ ]	/* SetRefPoint0 */\012PUSHW[ ]	/* 1 value pushed */\01250 \012MDRP[10000]	/* MoveDirectRelPt */\012PUSHW[ ]	/* 1 value pushed */\01250 \012MDAP[1]	/* MoveDirectAbsPt */\012PUSHW[ ]	/* 1 value pushed */\01242 \012SRP0[ ]	/* SetRefPoint0 */\012PUSHW[ ]	/* 1 value pushed */\01261 \012MDRP[10000]	/* MoveDirectRelPt */\012SVTCA[0]	/* SetFreedomAndProjectionVectorToAxis */\012PUSHW[ ]	/* 1 value pushed */\0121 \012RCVT[ ]	/* ReadCVT */\012IF[ ]	/* If */\012PUSHW[ ]	/* 1 value pushed */\01236 \012MDAP[1]	/* MoveDirectAbsPt */\012ELSE[ ]	/* Else */\012PUSHW[ ]	/* 2 values pushed */\01236 8 \012MIAP[0]	/* MoveIndirectAbsPt */\012EIF[ ]	/* EndIf */\012PUSHW[ ]	/* 1 value pushed */\0121 \012RCVT[ ]	/* ReadCVT */\012IF[ ]	/* If */\012PUSHW[ ]	/* 1 value pushed */\01218 \012MDAP[1]	/* MoveDirectAbsPt */\012ELSE[ ]	/* Else */\012PUSHW[ ]	/* 2 values pushed */\01218 6 \012MIAP[0]	/* MoveIndirectAbsPt */\012EIF[ ]	/* EndIf */\012PUSHW[ ]	/* 1 value pushed */\0121 \012RCVT[ ]	/* ReadCVT */\012IF[ ]	/* If */\012PUSHW[ ]	/* 1 value pushed */\01224 \012MDAP[1]	/* MoveDirectAbsPt */\012ELSE[ ]	/* Else */\012PUSHW[ ]	/* 2 values pushed */\01224 4 \012MIAP[0]	/* MoveIndirectAbsPt */\012EIF[ ]	/* EndIf */\012PUSHW[ ]	/* 1 value pushed */\0121 \012RCVT[ ]	/* ReadCVT */\012IF[ ]	/* If */\012PUSHW[ ]	/* 1 value pushed */\01226 \012MDAP[1]	/* MoveDirectAbsPt */\012ELSE[ ]	/* Else */\012PUSHW[ ]	/* 2 values pushed */\01226 4 \012MIAP[0]	/* MoveIndirectAbsPt */\012EIF[ ]	/* EndIf */\012PUSHW[ ]	/* 4 values pushed */\01251 2 41 24 \012CALL[ ]	/* CallFunction */\012PUSHW[ ]	/* 1 value pushed */\01218 \012SRP0[ ]	/* SetRefPoint0 */\012PUSHW[ ]	/* 2 values pushed */\01211 2 \012MIRP[10100]	/* MoveIndirectRelPt */\012PUSHW[ ]	/* 1 value pushed */\01226 \012SRP0[ ]	/* SetRefPoint0 */\012PUSHW[ ]	/* 2 values pushed */\01247 2 \012MIRP[10100]	/* MoveIndirectRelPt */\012PUSHW[ ]	/* 1 value pushed */\01236 \012SRP0[ ]	/* SetRefPoint0 */\012PUSHW[ ]	/* 2 values pushed */\01256 2 \012MIRP[10100]	/* MoveIndirectRelPt */\012IUP[0]	/* InterpolateUntPts */\012IUP[1]	/* InterpolateUntPts */";
};
width = 537;
}
);
note = eogonek;
unicode = 0119;
},
{
glyphname = uni0259;
lastChange = "2020-08-05 16:35:22 +0000";
layers = (
{
layerId = "A36D14D1-FF07-4574-A62D-30DF65569781";
paths = (
{
closed = 1;
nodes = (
"321 -11 OFFCURVE",
"410 29 OFFCURVE",
"475 101 OFFCURVE",
"511 199 OFFCURVE",
"511 258 QCURVE SMOOTH",
"511 317 OFFCURVE",
"480 417 OFFCURVE",
"418 489 OFFCURVE",
"325 529 OFFCURVE",
"263 529 QCURVE SMOOTH",
"175 529 OFFCURVE",
"59 442 OFFCURVE",
"42 354 QCURVE",
"126 354 LINE",
"137 405 OFFCURVE",
"206 455 OFFCURVE",
"260 455 QCURVE SMOOTH",
"302 455 OFFCURVE",
"364 427 OFFCURVE",
"404 380 OFFCURVE",
"422 319 OFFCURVE",
"421 285 QCURVE",
"34 285 LINE",
"32 238 OFFCURVE",
"53 134 OFFCURVE",
"108 46 OFFCURVE",
"199 -11 OFFCURVE",
"268 -11 QCURVE",
"268 -11 LINE"
);
},
{
closed = 1;
nodes = (
"241 64 OFFCURVE",
"188 87 OFFCURVE",
"149 126 OFFCURVE",
"126 180 OFFCURVE",
"124 210 QCURVE",
"421 210 LINE",
"419 180 OFFCURVE",
"397 127 OFFCURVE",
"359 87 OFFCURVE",
"306 64 OFFCURVE",
"273 64 QCURVE",
"273 64 LINE"
);
}
);
userData = {
assembly = "PUSHW[ ]	/* 1 value pushed */\01210 \012CALL[ ]	/* CallFunction */\012PUSHW[ ]	/* 1 value pushed */\01239 \012MDAP[1]	/* MoveDirectAbsPt */\012PUSHW[ ]	/* 1 value pushed */\01240 \012MDAP[1]	/* MoveDirectAbsPt */\012PUSHW[ ]	/* 1 value pushed */\01239 \012SRP0[ ]	/* SetRefPoint0 */\012PUSHW[ ]	/* 1 value pushed */\0125 \012MDRP[10000]	/* MoveDirectRelPt */\012PUSHW[ ]	/* 1 value pushed */\0125 \012MDAP[1]	/* MoveDirectAbsPt */\012PUSHW[ ]	/* 1 value pushed */\01240 \012SRP0[ ]	/* SetRefPoint0 */\012PUSHW[ ]	/* 1 value pushed */\01223 \012MDRP[11100]	/* MoveDirectRelPt */\012PUSHW[ ]	/* 1 value pushed */\0126 \012MDRP[11100]	/* MoveDirectRelPt */\012PUSHW[ ]	/* 1 value pushed */\0125 \012SRP0[ ]	/* SetRefPoint0 */\012PUSHW[ ]	/* 1 value pushed */\01234 \012MDRP[11100]	/* MoveDirectRelPt */\012PUSHW[ ]	/* 1 value pushed */\01214 \012MDRP[10000]	/* MoveDirectRelPt */\012PUSHW[ ]	/* 1 value pushed */\01214 \012MDAP[1]	/* MoveDirectAbsPt */\012PUSHW[ ]	/* 1 value pushed */\0126 \012SRP0[ ]	/* SetRefPoint0 */\012PUSHW[ ]	/* 1 value pushed */\01233 \012MDRP[10000]	/* MoveDirectRelPt */\012SVTCA[0]	/* SetFreedomAndProjectionVectorToAxis */\012PUSHW[ ]	/* 3 values pushed */\01228 0 13 \012CALL[ ]	/* CallFunction */\012PUSHW[ ]	/* 3 values pushed */\01218 11 13 \012CALL[ ]	/* CallFunction */\012PUSHW[ ]	/* 3 values pushed */\0126 33 13 \012CALL[ ]	/* CallFunction */\012PUSHW[ ]	/* 1 value pushed */\01218 \012SRP0[ ]	/* SetRefPoint0 */\012PUSHW[ ]	/* 1 value pushed */\01214 \012MDRP[11100]	/* MoveDirectRelPt */\012IUP[0]	/* InterpolateUntPts */\012IUP[1]	/* InterpolateUntPts */";
};
width = 547;
}
);
note = uni0259;
unicode = 0259;
},
{
glyphname = uni025A;
lastChange = "2020-08-05 16:35:22 +0000";
layers = (
{
layerId = "A36D14D1-FF07-4574-A62D-30DF65569781";
paths = (
{
closed = 1;
nodes = (
"670 248 OFFCURVE",
"658 278 OFFCURVE",
"658 319 OFFCURVE",
"661 366 OFFCURVE",
"655 388 QCURVE",
"599 370 OFFCURVE",
"540 353 QCURVE SMOOTH",
"522 347 OFFCURVE",
"504 342 QCURVE",
"470 453 OFFCURVE",
"392 500 QCURVE SMOOTH",
"308 551 OFFCURVE",
"213 526 QCURVE SMOOTH",
"175 516 OFFCURVE",
"146 500 QCURVE SMOOTH",
"93 472 OFFCURVE",
"64 423 QCURVE SMOOTH",
"47 396 OFFCURVE",
"28 317 OFFCURVE",
"32 289 QCURVE",
"115 311 LINE",
"116 347 OFFCURVE",
"132 378 QCURVE SMOOTH",
"160 433 OFFCURVE",
"226 451 QCURVE SMOOTH",
"297 470 OFFCURVE",
"390 395 OFFCURVE",
"413 319 QCURVE",
"43 220 LINE",
"63 143 OFFCURVE",
"80 110 QCURVE SMOOTH",
"102 62 OFFCURVE",
"138 30 QCURVE SMOOTH",
"175 -3 OFFCURVE",
"290 -26 OFFCURVE",
"343 -12 QCURVE SMOOTH",
"450 17 OFFCURVE",
"496 110 QCURVE SMOOTH",
"533 187 OFFCURVE",
"518 284 QCURVE",
"534 290 OFFCURVE",
"550 295 QCURVE SMOOTH",
"571 302 OFFCURVE",
"592 307 QCURVE",
"592 277 OFFCURVE",
"606 229 OFFCURVE",
"636 196 OFFCURVE",
"678 180 OFFCURVE",
"706 183 QCURVE SMOOTH",
"748 186 OFFCURVE",
"805 223 OFFCURVE",
"819 258 QCURVE",
"813 264 OFFCURVE",
"802 271 OFFCURVE",
"792 278 OFFCURVE",
"780 286 OFFCURVE",
"774 292 QCURVE",
"769 280 OFFCURVE",
"751 258 OFFCURVE",
"729 244 OFFCURVE",
"704 238 OFFCURVE",
"690 242 QCURVE",
"690 242 LINE"
);
},
{
closed = 1;
nodes = (
"429 250 LINE",
"444 185 OFFCURVE",
"387 79 OFFCURVE",
"329 63 QCURVE SMOOTH",
"247 42 OFFCURVE",
"196 94 QCURVE SMOOTH",
"168 122 OFFCURVE",
"148 175 QCURVE",
"148 175 LINE"
);
}
);
width = 825;
}
);
note = uni025A;
unicode = 025A;
},
{
glyphname = f;
lastChange = "2019-02-19 00:15:37 +0000";
layers = (
{
layerId = "A36D14D1-FF07-4574-A62D-30DF65569781";
paths = (
{
closed = 1;
nodes = (
"204 699 LINE SMOOTH",
"189 699 OFFCURVE",
"173 679 OFFCURVE",
"173 660 CURVE SMOOTH",
"173 520 LINE SMOOTH",
"173 509 OFFCURVE",
"164 500 OFFCURVE",
"153 500 CURVE SMOOTH",
"89 500 LINE SMOOTH",
"78 500 OFFCURVE",
"69 491 OFFCURVE",
"69 480 CURVE SMOOTH",
"69 479 LINE SMOOTH",
"69 468 OFFCURVE",
"78 459 OFFCURVE",
"89 459 CURVE SMOOTH",
"153 459 LINE SMOOTH",
"164 459 OFFCURVE",
"173 450 OFFCURVE",
"173 439 CURVE SMOOTH",
"173 20 LINE SMOOTH",
"173 9 OFFCURVE",
"182 0 OFFCURVE",
"193 0 CURVE SMOOTH",
"234 0 LINE SMOOTH",
"245 0 OFFCURVE",
"254 9 OFFCURVE",
"254 20 CURVE SMOOTH",
"254 439 LINE SMOOTH",
"254 450 OFFCURVE",
"263 459 OFFCURVE",
"274 459 CURVE SMOOTH",
"398 459 LINE SMOOTH",
"409 459 OFFCURVE",
"418 468 OFFCURVE",
"418 479 CURVE SMOOTH",
"418 480 LINE SMOOTH",
"418 491 OFFCURVE",
"409 500 OFFCURVE",
"398 500 CURVE SMOOTH",
"274 500 LINE SMOOTH",
"263 500 OFFCURVE",
"254 509 OFFCURVE",
"254 520 CURVE SMOOTH",
"254 631 LINE SMOOTH",
"254 642 OFFCURVE",
"263 651 OFFCURVE",
"274 651 CURVE SMOOTH",
"399 651 LINE SMOOTH",
"409 651 OFFCURVE",
"423 660 OFFCURVE",
"423 680 CURVE SMOOTH",
"423 692 OFFCURVE",
"414 700 OFFCURVE",
"403 700 CURVE SMOOTH"
);
}
);
width = 477;
}
);
unicode = 0066;
},
{
glyphname = g;
lastChange = "2020-08-10 02:07:25 +0000";
layers = (
{
layerId = "A36D14D1-FF07-4574-A62D-30DF65569781";
paths = (
{
closed = 1;
nodes = (
"121 500 LINE SMOOTH",
"98 500 OFFCURVE",
"80 482 OFFCURVE",
"80 459 CURVE SMOOTH",
"80 41 LINE SMOOTH",
"80 18 OFFCURVE",
"98 0 OFFCURVE",
"121 0 CURVE SMOOTH",
"440 0 LINE SMOOTH",
"463 0 OFFCURVE",
"481 18 OFFCURVE",
"481 41 CURVE SMOOTH",
"481 459 LINE SMOOTH",
"481 482 OFFCURVE",
"463 500 OFFCURVE",
"440 500 CURVE SMOOTH"
);
},
{
closed = 1;
nodes = (
"181 41 LINE SMOOTH",
"170 41 OFFCURVE",
"161 50 OFFCURVE",
"161 61 CURVE SMOOTH",
"161 439 LINE SMOOTH",
"161 450 OFFCURVE",
"170 459 OFFCURVE",
"181 459 CURVE SMOOTH",
"380 459 LINE SMOOTH",
"391 459 OFFCURVE",
"400 450 OFFCURVE",
"400 439 CURVE SMOOTH",
"400 61 LINE SMOOTH",
"400 50 OFFCURVE",
"391 41 OFFCURVE",
"380 41 CURVE SMOOTH"
);
},
{
closed = 1;
nodes = (
"399 -139 LINE SMOOTH",
"399 -150 OFFCURVE",
"389 -160 OFFCURVE",
"378 -160 CURVE SMOOTH",
"150 -159 LINE SMOOTH",
"139 -159 OFFCURVE",
"130 -168 OFFCURVE",
"130 -179 CURVE SMOOTH",
"130 -180 LINE SMOOTH",
"130 -191 OFFCURVE",
"139 -200 OFFCURVE",
"150 -200 CURVE SMOOTH",
"461 -200 LINE SMOOTH",
"472 -200 OFFCURVE",
"481 -191 OFFCURVE",
"481 -180 CURVE SMOOTH",
"481 44 LINE",
"399 43 LINE"
);
}
);
width = 561;
}
);
unicode = 0067;
},
{
glyphname = uni021D;
lastChange = "2020-08-10 02:07:25 +0000";
layers = (
{
layerId = "A36D14D1-FF07-4574-A62D-30DF65569781";
paths = (
{
closed = 1;
nodes = (
"251 -155 OFFCURVE",
"149 -103 QCURVE",
"80 -156 LINE",
"209 -232 OFFCURVE",
"343 -232 QCURVE SMOOTH",
"458 -232 OFFCURVE",
"535 -164 QCURVE SMOOTH",
"609 -97 OFFCURVE",
"609 -2 QCURVE SMOOTH",
"609 62 OFFCURVE",
"586 102 QCURVE SMOOTH",
"559 147 OFFCURVE",
"495 175 QCURVE",
"586 237 OFFCURVE",
"586 324 QCURVE SMOOTH",
"586 419 OFFCURVE",
"521 476 QCURVE SMOOTH",
"454 536 OFFCURVE",
"338 536 QCURVE SMOOTH",
"212 536 OFFCURVE",
"90 417 QCURVE",
"157 354 LINE",
"258 458 OFFCURVE",
"332 458 QCURVE SMOOTH",
"404 458 OFFCURVE",
"487 390 OFFCURVE",
"487 332 QCURVE SMOOTH",
"487 259 OFFCURVE",
"433 236 QCURVE",
"392 214 OFFCURVE",
"291 212 QCURVE",
"291 133 LINE",
"321 135 OFFCURVE",
"334 135 QCURVE SMOOTH",
"512 135 OFFCURVE",
"512 2 QCURVE SMOOTH",
"512 -68 OFFCURVE",
"466 -108 QCURVE SMOOTH",
"417 -155 OFFCURVE",
"331 -155 QCURVE",
"331 -155 LINE"
);
}
);
userData = {
assembly = "PUSHW[ ]	/* 1 value pushed */\01220 \012CALL[ ]	/* CallFunction */\012PUSHW[ ]	/* 4 values pushed */\01225 3 13 24 \012CALL[ ]	/* CallFunction */\012PUSHW[ ]	/* 1 value pushed */\01225 \012SRP0[ ]	/* SetRefPoint0 */\012PUSHW[ ]	/* 2 values pushed */\0124 3 \012MIRP[10100]	/* MoveIndirectRelPt */\012PUSHW[ ]	/* 2 values pushed */\01231 3 \012MIRP[10100]	/* MoveIndirectRelPt */\012SVTCA[0]	/* SetFreedomAndProjectionVectorToAxis */\012PUSHW[ ]	/* 4 values pushed */\0120 2 35 24 \012CALL[ ]	/* CallFunction */\012PUSHW[ ]	/* 4 values pushed */\01221 2 16 24 \012CALL[ ]	/* CallFunction */\012PUSHW[ ]	/* 4 values pushed */\0129 2 6 24 \012CALL[ ]	/* CallFunction */\012IUP[0]	/* InterpolateUntPts */\012IUP[1]	/* InterpolateUntPts */";
};
width = 660;
}
);
note = uni021D;
unicode = 021D;
},
{
glyphname = h;
lastChange = "2020-08-10 02:07:25 +0000";
layers = (
{
layerId = "A36D14D1-FF07-4574-A62D-30DF65569781";
paths = (
{
closed = 1;
nodes = (
"432 10 OFFCURVE",
"442 -2 OFFCURVE",
"454 -2 CURVE SMOOTH",
"499 -2 LINE SMOOTH",
"511 -2 OFFCURVE",
"521 10 OFFCURVE",
"521 24 CURVE SMOOTH",
"521 432 LINE SMOOTH",
"521 469 OFFCURVE",
"497 498 OFFCURVE",
"465 498 CURVE SMOOTH",
"136 498 LINE SMOOTH",
"104 498 OFFCURVE",
"80 469 OFFCURVE",
"80 432 CURVE SMOOTH",
"80 24 LINE SMOOTH",
"80 10 OFFCURVE",
"90 -2 OFFCURVE",
"102 -2 CURVE SMOOTH",
"147 -2 LINE SMOOTH",
"159 -2 OFFCURVE",
"169 10 OFFCURVE",
"169 24 CURVE SMOOTH",
"169 419 LINE SMOOTH",
"169 433 OFFCURVE",
"179 445 OFFCURVE",
"191 445 CURVE SMOOTH",
"410 445 LINE SMOOTH",
"422 445 OFFCURVE",
"432 433 OFFCURVE",
"432 419 CURVE SMOOTH",
"432 24 LINE SMOOTH"
);
},
{
closed = 1;
nodes = (
"80 266 LINE",
"162 266 LINE",
"162 772 LINE SMOOTH",
"162 786 OFFCURVE",
"153 798 OFFCURVE",
"140 798 CURVE SMOOTH",
"102 798 LINE SMOOTH",
"90 798 OFFCURVE",
"80 786 OFFCURVE",
"80 772 CURVE SMOOTH"
);
}
);
width = 601;
}
);
unicode = 0068;
},
{
glyphname = i;
lastChange = "2020-08-10 02:07:25 +0000";
layers = (
{
layerId = "A36D14D1-FF07-4574-A62D-30DF65569781";
paths = (
{
closed = 1;
nodes = (
"175 42 LINE",
"167 45 OFFCURVE",
"162 53 OFFCURVE",
"162 61 CURVE SMOOTH",
"162 480 LINE SMOOTH",
"162 491 OFFCURVE",
"153 500 OFFCURVE",
"142 500 CURVE SMOOTH",
"101 500 LINE SMOOTH",
"90 500 OFFCURVE",
"81 491 OFFCURVE",
"81 480 CURVE SMOOTH",
"81 51 LINE SMOOTH",
"81 22 OFFCURVE",
"103 0 OFFCURVE",
"132 0 CURVE SMOOTH",
"177 0 LINE"
);
},
{
closed = 1;
nodes = (
"80 558 LINE",
"153 558 LINE",
"153 653 LINE",
"80 653 LINE"
);
}
);
width = 257;
}
);
unicode = 0069;
},
{
glyphname = dotlessi;
lastChange = "2020-08-05 16:35:22 +0000";
layers = (
{
layerId = "A36D14D1-FF07-4574-A62D-30DF65569781";
paths = (
{
closed = 1;
nodes = (
"69 517 LINE",
"154 517 LINE",
"154 0 LINE",
"69 0 LINE",
"69 0 LINE"
);
}
);
userData = {
assembly = "PUSHW[ ]	/* 3 values pushed */\0121 0 3 \012CALL[ ]	/* CallFunction */\012PUSHW[ ]	/* 1 value pushed */\0121 \012SRP0[ ]	/* SetRefPoint0 */\012SVTCA[0]	/* SetFreedomAndProjectionVectorToAxis */\012PUSHW[ ]	/* 1 value pushed */\0122 \012MDAP[1]	/* MoveDirectAbsPt */\012PUSHW[ ]	/* 1 value pushed */\0120 \012MDAP[1]	/* MoveDirectAbsPt */\012IUP[0]	/* InterpolateUntPts */\012IUP[1]	/* InterpolateUntPts */";
};
width = 222;
}
);
note = dotlessi;
unicode = 0131;
},
{
glyphname = icircumflex;
lastChange = "2020-08-10 02:07:25 +0000";
layers = (
{
layerId = "A36D14D1-FF07-4574-A62D-30DF65569781";
paths = (
{
closed = 1;
nodes = (
"215 731 LINE",
"319 588 LINE",
"235 588 LINE",
"166 684 LINE",
"96 588 LINE",
"20 588 LINE",
"122 731 LINE",
"122 731 LINE"
);
},
{
closed = 1;
nodes = (
"127 517 LINE",
"212 517 LINE",
"212 0 LINE",
"127 0 LINE",
"127 0 LINE"
);
}
);
userData = {
assembly = "PUSHW[ ]	/* 3 values pushed */\0128 7 3 \012CALL[ ]	/* CallFunction */\012PUSHW[ ]	/* 1 value pushed */\0128 \012SRP0[ ]	/* SetRefPoint0 */\012PUSHW[ ]	/* 3 values pushed */\0123 7 8 \012SRP1[ ]	/* SetRefPoint1 */\012SRP2[ ]	/* SetRefPoint2 */\012IP[ ]	/* InterpolatePts */\012SVTCA[0]	/* SetFreedomAndProjectionVectorToAxis */\012PUSHW[ ]	/* 1 value pushed */\0120 \012MDAP[1]	/* MoveDirectAbsPt */\012PUSHW[ ]	/* 1 value pushed */\0127 \012MDAP[1]	/* MoveDirectAbsPt */\012PUSHW[ ]	/* 3 values pushed */\0121 7 0 \012SRP1[ ]	/* SetRefPoint1 */\012SRP2[ ]	/* SetRefPoint2 */\012IP[ ]	/* InterpolatePts */\012PUSHW[ ]	/* 3 values pushed */\0123 7 0 \012SRP1[ ]	/* SetRefPoint1 */\012SRP2[ ]	/* SetRefPoint2 */\012IP[ ]	/* InterpolatePts */\012PUSHW[ ]	/* 3 values pushed */\0125 7 0 \012SRP1[ ]	/* SetRefPoint1 */\012SRP2[ ]	/* SetRefPoint2 */\012IP[ ]	/* InterpolatePts */\012IUP[0]	/* InterpolateUntPts */\012IUP[1]	/* InterpolateUntPts */";
};
width = 339;
}
);
note = icircumflex;
unicode = 00EE;
},
{
glyphname = idieresis;
lastChange = "2020-08-10 02:07:25 +0000";
layers = (
{
layerId = "A36D14D1-FF07-4574-A62D-30DF65569781";
paths = (
{
closed = 1;
nodes = (
"109 696 LINE",
"109 592 LINE",
"20 592 LINE",
"20 696 LINE",
"20 696 LINE"
);
},
{
closed = 1;
nodes = (
"297 696 LINE",
"297 592 LINE",
"207 592 LINE",
"207 696 LINE",
"207 696 LINE"
);
},
{
closed = 1;
nodes = (
"116 517 LINE",
"201 517 LINE",
"201 0 LINE",
"116 0 LINE",
"116 0 LINE"
);
}
);
userData = {
assembly = "PUSHW[ ]	/* 3 values pushed */\0123 0 3 \012CALL[ ]	/* CallFunction */\012PUSHW[ ]	/* 1 value pushed */\0123 \012SRP0[ ]	/* SetRefPoint0 */\012PUSHW[ ]	/* 1 value pushed */\0129 \012MDRP[11100]	/* MoveDirectRelPt */\012PUSHW[ ]	/* 1 value pushed */\0124 \012MDRP[10000]	/* MoveDirectRelPt */\012PUSHW[ ]	/* 1 value pushed */\0124 \012MDAP[1]	/* MoveDirectAbsPt */\012PUSHW[ ]	/* 1 value pushed */\0129 \012SRP0[ ]	/* SetRefPoint0 */\012PUSHW[ ]	/* 1 value pushed */\0127 \012MDRP[11100]	/* MoveDirectRelPt */\012PUSHW[ ]	/* 1 value pushed */\0123 \012SRP0[ ]	/* SetRefPoint0 */\012PUSHW[ ]	/* 1 value pushed */\0128 \012MDRP[10000]	/* MoveDirectRelPt */\012PUSHW[ ]	/* 1 value pushed */\0128 \012MDAP[1]	/* MoveDirectAbsPt */\012PUSHW[ ]	/* 1 value pushed */\0124 \012SRP0[ ]	/* SetRefPoint0 */\012PUSHW[ ]	/* 1 value pushed */\01210 \012MDRP[10000]	/* MoveDirectRelPt */\012PUSHW[ ]	/* 1 value pushed */\01210 \012MDAP[1]	/* MoveDirectAbsPt */\012SVTCA[0]	/* SetFreedomAndProjectionVectorToAxis */\012PUSHW[ ]	/* 1 value pushed */\0128 \012MDAP[1]	/* MoveDirectAbsPt */\012PUSHW[ ]	/* 3 values pushed */\0120 1 3 \012CALL[ ]	/* CallFunction */\012PUSHW[ ]	/* 1 value pushed */\0120 \012SRP0[ ]	/* SetRefPoint0 */\012PUSHW[ ]	/* 1 value pushed */\0124 \012MDRP[10000]	/* MoveDirectRelPt */\012PUSHW[ ]	/* 1 value pushed */\0121 \012SRP0[ ]	/* SetRefPoint0 */\012PUSHW[ ]	/* 1 value pushed */\0125 \012MDRP[10000]	/* MoveDirectRelPt */\012IUP[0]	/* InterpolateUntPts */\012IUP[1]	/* InterpolateUntPts */";
};
width = 317;
}
);
note = idieresis;
unicode = 00EF;
},
{
glyphname = j;
lastChange = "2019-02-20 01:13:04 +0000";
layers = (
{
layerId = "A36D14D1-FF07-4574-A62D-30DF65569781";
paths = (
{
closed = 1;
nodes = (
"45 -149 LINE SMOOTH",
"45 -178 OFFCURVE",
"67 -200 OFFCURVE",
"96 -200 CURVE SMOOTH",
"245 -200 LINE SMOOTH",
"274 -200 OFFCURVE",
"296 -178 OFFCURVE",
"296 -149 CURVE SMOOTH",
"296 480 LINE SMOOTH",
"296 491 OFFCURVE",
"287 500 OFFCURVE",
"276 500 CURVE SMOOTH",
"235 500 LINE SMOOTH",
"224 500 OFFCURVE",
"215 491 OFFCURVE",
"215 480 CURVE SMOOTH",
"215 -139 LINE SMOOTH",
"215 -150 OFFCURVE",
"206 -159 OFFCURVE",
"195 -159 CURVE SMOOTH",
"146 -159 LINE SMOOTH",
"135 -159 OFFCURVE",
"126 -150 OFFCURVE",
"126 -139 CURVE SMOOTH",
"126 -122 LINE",
"45 -124 LINE"
);
},
{
closed = 1;
nodes = (
"209 653 LINE",
"209 558 LINE",
"282 558 LINE",
"282 653 LINE"
);
}
);
width = 359;
}
);
unicode = 006A;
},
{
glyphname = uni0237;
lastChange = "2020-08-10 02:07:25 +0000";
layers = (
{
layerId = "A36D14D1-FF07-4574-A62D-30DF65569781";
paths = (
{
closed = 1;
nodes = (
"188 517 LINE",
"103 517 LINE",
"103 -52 LINE SMOOTH",
"103 -92 OFFCURVE",
"83 -123 OFFCURVE",
"55 -123 QCURVE SMOOTH",
"37 -123 LINE SMOOTH",
"33 -123 OFFCURVE",
"25 -122 OFFCURVE",
"20 -121 QCURVE",
"20 -194 LINE",
"40 -198 OFFCURVE",
"64 -198 QCURVE SMOOTH",
"121 -198 OFFCURVE",
"188 -135 OFFCURVE",
"188 -66 QCURVE",
"188 -66 LINE"
);
}
);
userData = {
assembly = "PUSHW[ ]	/* 1 value pushed */\01220 \012CALL[ ]	/* CallFunction */\012PUSHW[ ]	/* 4 values pushed */\0120 3 13 24 \012CALL[ ]	/* CallFunction */\012SVTCA[0]	/* SetFreedomAndProjectionVectorToAxis */\012PUSHW[ ]	/* 1 value pushed */\0121 \012RCVT[ ]	/* ReadCVT */\012IF[ ]	/* If */\012PUSHW[ ]	/* 1 value pushed */\01214 \012MDAP[1]	/* MoveDirectAbsPt */\012ELSE[ ]	/* Else */\012PUSHW[ ]	/* 2 values pushed */\01214 8 \012MIAP[0]	/* MoveIndirectAbsPt */\012EIF[ ]	/* EndIf */\012PUSHW[ ]	/* 1 value pushed */\0121 \012RCVT[ ]	/* ReadCVT */\012IF[ ]	/* If */\012PUSHW[ ]	/* 1 value pushed */\0123 \012MDAP[1]	/* MoveDirectAbsPt */\012ELSE[ ]	/* Else */\012PUSHW[ ]	/* 2 values pushed */\0123 6 \012MIAP[0]	/* MoveIndirectAbsPt */\012EIF[ ]	/* EndIf */\012PUSHW[ ]	/* 1 value pushed */\0121 \012RCVT[ ]	/* ReadCVT */\012IF[ ]	/* If */\012PUSHW[ ]	/* 1 value pushed */\0125 \012MDAP[1]	/* MoveDirectAbsPt */\012ELSE[ ]	/* Else */\012PUSHW[ ]	/* 2 values pushed */\0125 6 \012MIAP[0]	/* MoveIndirectAbsPt */\012EIF[ ]	/* EndIf */\012PUSHW[ ]	/* 2 values pushed */\0129 2 \012MIRP[10100]	/* MoveIndirectRelPt */\012PUSHW[ ]	/* 1 value pushed */\01210 \012MDRP[10000]	/* MoveDirectRelPt */\012IUP[0]	/* InterpolateUntPts */\012IUP[1]	/* InterpolateUntPts */";
};
width = 256;
}
);
note = uni0237;
unicode = 0237;
},
{
glyphname = k;
lastChange = "2019-02-19 00:54:00 +0000";
layers = (
{
layerId = "A36D14D1-FF07-4574-A62D-30DF65569781";
paths = (
{
closed = 1;
nodes = (
"226 262 LINE",
"366 500 LINE",
"315 500 LINE",
"188 285 LINE",
"137 286 LINE",
"137 680 LINE SMOOTH",
"137 691 OFFCURVE",
"128 700 OFFCURVE",
"117 700 CURVE SMOOTH",
"76 700 LINE SMOOTH",
"65 700 OFFCURVE",
"56 691 OFFCURVE",
"56 680 CURVE SMOOTH",
"56 32 LINE SMOOTH",
"56 13 OFFCURVE",
"65 -3 OFFCURVE",
"76 -3 CURVE SMOOTH",
"117 -3 LINE SMOOTH",
"128 -3 OFFCURVE",
"137 13 OFFCURVE",
"137 32 CURVE SMOOTH",
"137 261 LINE",
"178 261 LINE",
"328 4 LINE",
"379 4 LINE"
);
}
);
width = 436;
}
);
unicode = 006B;
},
{
glyphname = l;
lastChange = "2020-08-10 02:07:25 +0000";
layers = (
{
layerId = "A36D14D1-FF07-4574-A62D-30DF65569781";
paths = (
{
closed = 1;
nodes = (
"233 78 LINE",
"233 61 LINE SMOOTH",
"233 50 OFFCURVE",
"224 41 OFFCURVE",
"213 41 CURVE SMOOTH",
"164 41 LINE SMOOTH",
"153 41 OFFCURVE",
"144 50 OFFCURVE",
"144 61 CURVE SMOOTH",
"144 680 LINE SMOOTH",
"144 691 OFFCURVE",
"135 700 OFFCURVE",
"124 700 CURVE SMOOTH",
"83 700 LINE SMOOTH",
"72 700 OFFCURVE",
"63 691 OFFCURVE",
"63 680 CURVE SMOOTH",
"63 51 LINE SMOOTH",
"63 22 OFFCURVE",
"85 0 OFFCURVE",
"114 0 CURVE SMOOTH",
"263 0 LINE SMOOTH",
"292 0 OFFCURVE",
"314 22 OFFCURVE",
"314 51 CURVE SMOOTH",
"314 76 LINE"
);
}
);
width = 394;
}
);
unicode = 006C;
},
{
glyphname = lslash;
lastChange = "2020-08-10 02:07:25 +0000";
layers = (
{
layerId = "A36D14D1-FF07-4574-A62D-30DF65569781";
paths = (
{
closed = 1;
nodes = (
"0 266 LINE",
"0 337 LINE",
"69 393 LINE",
"69 714 LINE",
"154 714 LINE",
"154 460 LINE",
"224 516 LINE",
"224 445 LINE",
"154 389 LINE",
"154 0 LINE",
"69 0 LINE",
"69 321 LINE",
"69 321 LINE"
);
}
);
userData = {
assembly = "PUSHW[ ]	/* 3 values pushed */\0123 10 3 \012CALL[ ]	/* CallFunction */\012PUSHW[ ]	/* 1 value pushed */\0123 \012SRP0[ ]	/* SetRefPoint0 */\012PUSHW[ ]	/* 1 value pushed */\0129 \012MDRP[11100]	/* MoveDirectRelPt */\012PUSHW[ ]	/* 1 value pushed */\0120 \012MDRP[10000]	/* MoveDirectRelPt */\012PUSHW[ ]	/* 1 value pushed */\0129 \012SRP0[ ]	/* SetRefPoint0 */\012PUSHW[ ]	/* 1 value pushed */\0124 \012MDRP[11100]	/* MoveDirectRelPt */\012PUSHW[ ]	/* 1 value pushed */\0123 \012SRP0[ ]	/* SetRefPoint0 */\012PUSHW[ ]	/* 1 value pushed */\0126 \012MDRP[10000]	/* MoveDirectRelPt */\012SVTCA[0]	/* SetFreedomAndProjectionVectorToAxis */\012PUSHW[ ]	/* 1 value pushed */\0127 \012MDAP[1]	/* MoveDirectAbsPt */\012PUSHW[ ]	/* 1 value pushed */\0121 \012MDAP[1]	/* MoveDirectAbsPt */\012PUSHW[ ]	/* 3 values pushed */\0120 1 7 \012SRP1[ ]	/* SetRefPoint1 */\012SRP2[ ]	/* SetRefPoint2 */\012IP[ ]	/* InterpolatePts */\012PUSHW[ ]	/* 3 values pushed */\0125 1 7 \012SRP1[ ]	/* SetRefPoint1 */\012SRP2[ ]	/* SetRefPoint2 */\012IP[ ]	/* InterpolatePts */\012PUSHW[ ]	/* 3 values pushed */\0126 1 7 \012SRP1[ ]	/* SetRefPoint1 */\012SRP2[ ]	/* SetRefPoint2 */\012IP[ ]	/* InterpolatePts */\012PUSHW[ ]	/* 3 values pushed */\01211 1 7 \012SRP1[ ]	/* SetRefPoint1 */\012SRP2[ ]	/* SetRefPoint2 */\012IP[ ]	/* InterpolatePts */\012IUP[0]	/* InterpolateUntPts */\012IUP[1]	/* InterpolateUntPts */";
};
width = 244;
}
);
note = lslash;
unicode = 0142;
},
{
glyphname = m;
lastChange = "2020-08-10 02:07:25 +0000";
layers = (
{
layerId = "A36D14D1-FF07-4574-A62D-30DF65569781";
paths = (
{
closed = 1;
nodes = (
"101 498 LINE",
"89 497 OFFCURVE",
"80 486 OFFCURVE",
"80 472 CURVE SMOOTH",
"80 24 LINE SMOOTH",
"80 10 OFFCURVE",
"90 -2 OFFCURVE",
"102 -2 CURVE SMOOTH",
"139 -2 LINE SMOOTH",
"151 -2 OFFCURVE",
"161 10 OFFCURVE",
"161 24 CURVE SMOOTH",
"161 440 LINE SMOOTH",
"161 454 OFFCURVE",
"171 466 OFFCURVE",
"183 466 CURVE SMOOTH",
"260 466 LINE SMOOTH",
"272 466 OFFCURVE",
"282 454 OFFCURVE",
"282 440 CURVE SMOOTH",
"282 24 LINE SMOOTH",
"282 10 OFFCURVE",
"292 -2 OFFCURVE",
"304 -2 CURVE SMOOTH",
"318 -2 LINE SMOOTH",
"330 -2 OFFCURVE",
"340 10 OFFCURVE",
"340 24 CURVE SMOOTH",
"340 440 LINE SMOOTH",
"340 454 OFFCURVE",
"349 466 OFFCURVE",
"362 466 CURVE SMOOTH",
"442 466 LINE SMOOTH",
"454 466 OFFCURVE",
"464 454 OFFCURVE",
"464 440 CURVE SMOOTH",
"464 24 LINE SMOOTH",
"464 10 OFFCURVE",
"474 -2 OFFCURVE",
"486 -2 CURVE SMOOTH",
"519 -2 LINE SMOOTH",
"531 -2 OFFCURVE",
"541 10 OFFCURVE",
"541 24 CURVE SMOOTH",
"541 472 LINE SMOOTH",
"541 486 OFFCURVE",
"532 497 OFFCURVE",
"520 498 CURVE"
);
}
);
width = 621;
}
);
unicode = 006D;
},
{
glyphname = n;
lastChange = "2020-08-10 02:07:25 +0000";
layers = (
{
layerId = "A36D14D1-FF07-4574-A62D-30DF65569781";
paths = (
{
closed = 1;
nodes = (
"432 10 OFFCURVE",
"442 -2 OFFCURVE",
"454 -2 CURVE SMOOTH",
"499 -2 LINE SMOOTH",
"511 -2 OFFCURVE",
"521 10 OFFCURVE",
"521 24 CURVE SMOOTH",
"521 432 LINE SMOOTH",
"521 469 OFFCURVE",
"497 498 OFFCURVE",
"465 498 CURVE SMOOTH",
"136 498 LINE SMOOTH",
"104 498 OFFCURVE",
"80 469 OFFCURVE",
"80 432 CURVE SMOOTH",
"80 24 LINE SMOOTH",
"80 10 OFFCURVE",
"90 -2 OFFCURVE",
"102 -2 CURVE SMOOTH",
"147 -2 LINE SMOOTH",
"159 -2 OFFCURVE",
"169 10 OFFCURVE",
"169 24 CURVE SMOOTH",
"169 419 LINE SMOOTH",
"169 433 OFFCURVE",
"179 445 OFFCURVE",
"191 445 CURVE SMOOTH",
"410 445 LINE SMOOTH",
"422 445 OFFCURVE",
"432 433 OFFCURVE",
"432 419 CURVE SMOOTH",
"432 24 LINE SMOOTH"
);
}
);
width = 601;
}
);
unicode = 006E;
},
{
glyphname = uni014B;
lastChange = "2020-08-05 16:35:22 +0000";
layers = (
{
layerId = "A36D14D1-FF07-4574-A62D-30DF65569781";
paths = (
{
closed = 1;
nodes = (
"64 0 LINE",
"149 0 LINE",
"149 292 LINE SMOOTH",
"149 327 OFFCURVE",
"168 386 OFFCURVE",
"206 430 OFFCURVE",
"263 454 OFFCURVE",
"302 454 QCURVE SMOOTH",
"351 454 OFFCURVE",
"407 398 OFFCURVE",
"407 350 QCURVE SMOOTH",
"407 -36 LINE SMOOTH",
"407 -87 OFFCURVE",
"377 -123 OFFCURVE",
"339 -123 QCURVE SMOOTH",
"325 -123 OFFCURVE",
"297 -120 OFFCURVE",
"283 -118 QCURVE",
"283 -191 LINE",
"297 -195 OFFCURVE",
"333 -198 OFFCURVE",
"348 -198 QCURVE SMOOTH",
"415 -198 OFFCURVE",
"492 -130 OFFCURVE",
"492 -50 QCURVE SMOOTH",
"492 340 LINE SMOOTH",
"492 382 OFFCURVE",
"475 451 OFFCURVE",
"433 501 OFFCURVE",
"365 529 OFFCURVE",
"314 529 QCURVE SMOOTH",
"199 529 OFFCURVE",
"146 435 QCURVE",
"144 435 LINE",
"144 517 LINE",
"64 517 LINE",
"64 517 LINE"
);
}
);
userData = {
assembly = "PUSHW[ ]	/* 1 value pushed */\01220 \012CALL[ ]	/* CallFunction */\012PUSHW[ ]	/* 1 value pushed */\01236 \012MDAP[1]	/* MoveDirectAbsPt */\012PUSHW[ ]	/* 1 value pushed */\01224 \012MDAP[1]	/* MoveDirectAbsPt */\012PUSHW[ ]	/* 1 value pushed */\01236 \012SRP0[ ]	/* SetRefPoint0 */\012PUSHW[ ]	/* 1 value pushed */\0120 \012MDRP[10000]	/* MoveDirectRelPt */\012PUSHW[ ]	/* 1 value pushed */\0120 \012MDAP[1]	/* MoveDirectAbsPt */\012PUSHW[ ]	/* 2 values pushed */\01233 3 \012MIRP[10100]	/* MoveIndirectRelPt */\012PUSHW[ ]	/* 1 value pushed */\0122 \012MDRP[10000]	/* MoveDirectRelPt */\012PUSHW[ ]	/* 1 value pushed */\0122 \012MDAP[1]	/* MoveDirectAbsPt */\012PUSHW[ ]	/* 1 value pushed */\01224 \012SRP0[ ]	/* SetRefPoint0 */\012PUSHW[ ]	/* 2 values pushed */\01211 3 \012MIRP[10100]	/* MoveIndirectRelPt */\012SVTCA[0]	/* SetFreedomAndProjectionVectorToAxis */\012PUSHW[ ]	/* 1 value pushed */\0121 \012RCVT[ ]	/* ReadCVT */\012IF[ ]	/* If */\012PUSHW[ ]	/* 1 value pushed */\0120 \012MDAP[1]	/* MoveDirectAbsPt */\012ELSE[ ]	/* Else */\012PUSHW[ ]	/* 2 values pushed */\0120 8 \012MIAP[0]	/* MoveIndirectAbsPt */\012EIF[ ]	/* EndIf */\012PUSHW[ ]	/* 1 value pushed */\0121 \012RCVT[ ]	/* ReadCVT */\012IF[ ]	/* If */\012PUSHW[ ]	/* 1 value pushed */\0125 \012MDAP[1]	/* MoveDirectAbsPt */\012ELSE[ ]	/* Else */\012PUSHW[ ]	/* 2 values pushed */\0125 8 \012MIAP[0]	/* MoveIndirectAbsPt */\012EIF[ ]	/* EndIf */\012PUSHW[ ]	/* 1 value pushed */\0121 \012RCVT[ ]	/* ReadCVT */\012IF[ ]	/* If */\012PUSHW[ ]	/* 1 value pushed */\01234 \012MDAP[1]	/* MoveDirectAbsPt */\012ELSE[ ]	/* Else */\012PUSHW[ ]	/* 2 values pushed */\01234 4 \012MIAP[0]	/* MoveIndirectAbsPt */\012EIF[ ]	/* EndIf */\012PUSHW[ ]	/* 1 value pushed */\0121 \012RCVT[ ]	/* ReadCVT */\012IF[ ]	/* If */\012PUSHW[ ]	/* 1 value pushed */\01214 \012MDAP[1]	/* MoveDirectAbsPt */\012ELSE[ ]	/* Else */\012PUSHW[ ]	/* 2 values pushed */\01214 6 \012MIAP[0]	/* MoveIndirectAbsPt */\012EIF[ ]	/* EndIf */\012PUSHW[ ]	/* 1 value pushed */\0121 \012RCVT[ ]	/* ReadCVT */\012IF[ ]	/* If */\012PUSHW[ ]	/* 1 value pushed */\01217 \012MDAP[1]	/* MoveDirectAbsPt */\012ELSE[ ]	/* Else */\012PUSHW[ ]	/* 2 values pushed */\01217 6 \012MIAP[0]	/* MoveIndirectAbsPt */\012EIF[ ]	/* EndIf */\012PUSHW[ ]	/* 1 value pushed */\01214 \012SRP0[ ]	/* SetRefPoint0 */\012PUSHW[ ]	/* 2 values pushed */\01221 2 \012MIRP[10100]	/* MoveIndirectRelPt */\012PUSHW[ ]	/* 1 value pushed */\0125 \012SRP0[ ]	/* SetRefPoint0 */\012PUSHW[ ]	/* 2 values pushed */\01228 2 \012MIRP[10100]	/* MoveIndirectRelPt */\012IUP[0]	/* InterpolateUntPts */\012IUP[1]	/* InterpolateUntPts */";
};
width = 556;
}
);
note = uni014B;
unicode = 014B;
},
{
glyphname = ntilde;
lastChange = "2020-08-05 16:35:22 +0000";
layers = (
{
layerId = "A36D14D1-FF07-4574-A62D-30DF65569781";
paths = (
{
closed = 1;
nodes = (
"446 666 OFFCURVE",
"421 631 QCURVE",
"408 617 OFFCURVE",
"371 600 OFFCURVE",
"342 600 QCURVE SMOOTH",
"329 600 OFFCURVE",
"294 612 OFFCURVE",
"276 620 QCURVE SMOOTH",
"258 627 OFFCURVE",
"223 639 OFFCURVE",
"209 639 QCURVE SMOOTH",
"193 639 OFFCURVE",
"159 616 OFFCURVE",
"161 597 QCURVE",
"109 597 LINE",
"115 619 OFFCURVE",
"132 659 OFFCURVE",
"156 689 OFFCURVE",
"190 707 OFFCURVE",
"214 707 QCURVE SMOOTH",
"234 707 OFFCURVE",
"271 695 OFFCURVE",
"305 680 OFFCURVE",
"338 667 OFFCURVE",
"354 667 QCURVE SMOOTH",
"374 667 OFFCURVE",
"395 696 OFFCURVE",
"400 711 QCURVE",
"452 711 LINE",
"452 711 LINE"
);
},
{
closed = 1;
nodes = (
"144 517 LINE",
"144 435 LINE",
"146 435 LINE",
"199 529 OFFCURVE",
"314 529 QCURVE SMOOTH",
"365 529 OFFCURVE",
"433 501 OFFCURVE",
"475 451 OFFCURVE",
"492 382 OFFCURVE",
"492 340 QCURVE SMOOTH",
"492 0 LINE",
"407 0 LINE",
"407 350 LINE SMOOTH",
"407 398 OFFCURVE",
"351 454 OFFCURVE",
"302 454 QCURVE SMOOTH",
"263 454 OFFCURVE",
"206 430 OFFCURVE",
"168 386 OFFCURVE",
"149 327 OFFCURVE",
"149 292 QCURVE SMOOTH",
"149 0 LINE",
"64 0 LINE",
"64 517 LINE",
"64 517 LINE"
);
}
);
userData = {
assembly = "PUSHW[ ]	/* 3 values pushed */\01232 29 3 \012CALL[ ]	/* CallFunction */\012PUSHW[ ]	/* 1 value pushed */\01232 \012SRP0[ ]	/* SetRefPoint0 */\012PUSHW[ ]	/* 3 values pushed */\01243 40 3 \012CALL[ ]	/* CallFunction */\012PUSHW[ ]	/* 1 value pushed */\01243 \012SRP0[ ]	/* SetRefPoint0 */\012PUSHW[ ]	/* 1 value pushed */\01240 \012SRP0[ ]	/* SetRefPoint0 */\012PUSHW[ ]	/* 1 value pushed */\0121 \012MDRP[10000]	/* MoveDirectRelPt */\012PUSHW[ ]	/* 1 value pushed */\0121 \012MDAP[1]	/* MoveDirectAbsPt */\012PUSHW[ ]	/* 3 values pushed */\01214 29 32 \012SRP1[ ]	/* SetRefPoint1 */\012SRP2[ ]	/* SetRefPoint2 */\012IP[ ]	/* InterpolatePts */\012PUSHW[ ]	/* 1 value pushed */\01232 \012SRP0[ ]	/* SetRefPoint0 */\012PUSHW[ ]	/* 1 value pushed */\01250 \012MDRP[10000]	/* MoveDirectRelPt */\012PUSHW[ ]	/* 1 value pushed */\01250 \012MDAP[1]	/* MoveDirectAbsPt */\012PUSHW[ ]	/* 3 values pushed */\01251 29 32 \012SRP1[ ]	/* SetRefPoint1 */\012SRP2[ ]	/* SetRefPoint2 */\012IP[ ]	/* InterpolatePts */\012SVTCA[0]	/* SetFreedomAndProjectionVectorToAxis */\012PUSHW[ ]	/* 1 value pushed */\0120 \012MDAP[1]	/* MoveDirectAbsPt */\012PUSHW[ ]	/* 1 value pushed */\0129 \012MDAP[1]	/* MoveDirectAbsPt */\012PUSHW[ ]	/* 1 value pushed */\01230 \012MDAP[1]	/* MoveDirectAbsPt */\012PUSHW[ ]	/* 1 value pushed */\01241 \012MDAP[1]	/* MoveDirectAbsPt */\012PUSHW[ ]	/* 3 values pushed */\01248 37 3 \012CALL[ ]	/* CallFunction */\012PUSHW[ ]	/* 1 value pushed */\01248 \012SRP0[ ]	/* SetRefPoint0 */\012PUSHW[ ]	/* 1 value pushed */\0129 \012SRP0[ ]	/* SetRefPoint0 */\012PUSHW[ ]	/* 1 value pushed */\0121 \012MDRP[10000]	/* MoveDirectRelPt */\012PUSHW[ ]	/* 1 value pushed */\0121 \012MDAP[1]	/* MoveDirectAbsPt */\012PUSHW[ ]	/* 1 value pushed */\0129 \012SRP0[ ]	/* SetRefPoint0 */\012PUSHW[ ]	/* 1 value pushed */\01215 \012MDRP[11100]	/* MoveDirectRelPt */\012PUSHW[ ]	/* 1 value pushed */\0124 \012MDRP[11100]	/* MoveDirectRelPt */\012PUSHW[ ]	/* 1 value pushed */\01215 \012SRP0[ ]	/* SetRefPoint0 */\012PUSHW[ ]	/* 1 value pushed */\01224 \012MDRP[10000]	/* MoveDirectRelPt */\012PUSHW[ ]	/* 1 value pushed */\01224 \012MDAP[1]	/* MoveDirectAbsPt */\012PUSHW[ ]	/* 3 values pushed */\01251 30 0 \012SRP1[ ]	/* SetRefPoint1 */\012SRP2[ ]	/* SetRefPoint2 */\012IP[ ]	/* InterpolatePts */\012IUP[0]	/* InterpolateUntPts */\012IUP[1]	/* InterpolateUntPts */";
};
width = 556;
}
);
note = ntilde;
unicode = 00F1;
},
{
glyphname = o;
lastChange = "2020-08-10 02:07:25 +0000";
layers = (
{
layerId = "A36D14D1-FF07-4574-A62D-30DF65569781";
paths = (
{
closed = 1;
nodes = (
"125 498 LINE SMOOTH",
"100 498 OFFCURVE",
"80 475 OFFCURVE",
"80 445 CURVE SMOOTH",
"80 51 LINE SMOOTH",
"80 21 OFFCURVE",
"100 -2 OFFCURVE",
"125 -2 CURVE SMOOTH",
"476 -2 LINE SMOOTH",
"501 -2 OFFCURVE",
"521 21 OFFCURVE",
"521 51 CURVE SMOOTH",
"521 445 LINE SMOOTH",
"521 475 OFFCURVE",
"501 498 OFFCURVE",
"476 498 CURVE SMOOTH"
);
},
{
closed = 1;
nodes = (
"191 51 LINE SMOOTH",
"179 51 OFFCURVE",
"169 63 OFFCURVE",
"169 77 CURVE SMOOTH",
"169 419 LINE SMOOTH",
"169 433 OFFCURVE",
"179 445 OFFCURVE",
"191 445 CURVE SMOOTH",
"410 445 LINE SMOOTH",
"422 445 OFFCURVE",
"432 433 OFFCURVE",
"432 419 CURVE SMOOTH",
"432 77 LINE SMOOTH",
"432 63 OFFCURVE",
"422 51 OFFCURVE",
"410 51 CURVE SMOOTH"
);
}
);
width = 601;
}
);
unicode = 006F;
},
{
glyphname = odieresis;
lastChange = "2020-08-05 16:35:22 +0000";
layers = (
{
layerId = "A36D14D1-FF07-4574-A62D-30DF65569781";
paths = (
{
closed = 1;
nodes = (
"238 696 LINE",
"238 592 LINE",
"148 592 LINE",
"148 696 LINE",
"148 696 LINE"
);
},
{
closed = 1;
nodes = (
"426 696 LINE",
"426 592 LINE",
"336 592 LINE",
"336 696 LINE",
"336 696 LINE"
);
},
{
closed = 1;
nodes = (
"126 211 OFFCURVE",
"151 138 OFFCURVE",
"195 89 OFFCURVE",
"254 63 OFFCURVE",
"287 63 QCURVE SMOOTH",
"320 63 OFFCURVE",
"379 89 OFFCURVE",
"423 138 OFFCURVE",
"448 211 OFFCURVE",
"448 258 QCURVE SMOOTH",
"448 305 OFFCURVE",
"423 378 OFFCURVE",
"379 428 OFFCURVE",
"320 454 OFFCURVE",
"287 454 QCURVE SMOOTH",
"254 454 OFFCURVE",
"195 428 OFFCURVE",
"151 378 OFFCURVE",
"126 305 OFFCURVE",
"126 258 QCURVE",
"126 258 LINE"
);
},
{
closed = 1;
nodes = (
"36 315 OFFCURVE",
"68 414 OFFCURVE",
"132 487 OFFCURVE",
"226 529 OFFCURVE",
"287 529 QCURVE SMOOTH",
"349 529 OFFCURVE",
"442 487 OFFCURVE",
"506 414 OFFCURVE",
"538 315 OFFCURVE",
"538 258 QCURVE SMOOTH",
"538 201 OFFCURVE",
"506 103 OFFCURVE",
"442 30 OFFCURVE",
"349 -11 OFFCURVE",
"287 -11 QCURVE SMOOTH",
"226 -11 OFFCURVE",
"132 30 OFFCURVE",
"68 103 OFFCURVE",
"36 201 OFFCURVE",
"36 258 QCURVE",
"36 258 LINE"
);
}
);
userData = {
assembly = "PUSHW[ ]	/* 3 values pushed */\0128 28 3 \012CALL[ ]	/* CallFunction */\012PUSHW[ ]	/* 1 value pushed */\0128 \012SRP0[ ]	/* SetRefPoint0 */\012PUSHW[ ]	/* 3 values pushed */\0123 0 3 \012CALL[ ]	/* CallFunction */\012PUSHW[ ]	/* 1 value pushed */\0123 \012SRP0[ ]	/* SetRefPoint0 */\012PUSHW[ ]	/* 3 values pushed */\0127 4 3 \012CALL[ ]	/* CallFunction */\012PUSHW[ ]	/* 1 value pushed */\0127 \012SRP0[ ]	/* SetRefPoint0 */\012PUSHW[ ]	/* 3 values pushed */\01238 18 3 \012CALL[ ]	/* CallFunction */\012PUSHW[ ]	/* 1 value pushed */\01238 \012SRP0[ ]	/* SetRefPoint0 */\012NPUSHW[ ]	/* 27 values pushed */\0126 8 22 8 38 8 54 8 70 8 86 8 102 8 118 8 134 8 150 8 166 8 182 8 198 8 13 \012DELTAP1[ ]	/* DeltaExceptionP1 */\012NPUSHW[ ]	/* 5 values pushed */\012213 8 229 8 2 \012DELTAP1[ ]	/* DeltaExceptionP1 */\012NPUSHW[ ]	/* 5 values pushed */\012218 18 234 18 2 \012DELTAP1[ ]	/* DeltaExceptionP1 */\012NPUSHW[ ]	/* 27 values pushed */\0129 18 25 18 41 18 57 18 73 18 89 18 105 18 121 18 137 18 153 18 169 18 185 18 201 18 13 \012DELTAP1[ ]	/* DeltaExceptionP1 */\012PUSHW[ ]	/* 1 value pushed */\01249 \012MDRP[11100]	/* MoveDirectRelPt */\012SVTCA[0]	/* SetFreedomAndProjectionVectorToAxis */\012PUSHW[ ]	/* 3 values pushed */\01223 33 3 \012CALL[ ]	/* CallFunction */\012PUSHW[ ]	/* 1 value pushed */\01223 \012SRP0[ ]	/* SetRefPoint0 */\012PUSHW[ ]	/* 3 values pushed */\0120 1 3 \012CALL[ ]	/* CallFunction */\012PUSHW[ ]	/* 1 value pushed */\0120 \012SRP0[ ]	/* SetRefPoint0 */\012PUSHW[ ]	/* 3 values pushed */\01243 13 3 \012CALL[ ]	/* CallFunction */\012PUSHW[ ]	/* 1 value pushed */\01243 \012SRP0[ ]	/* SetRefPoint0 */\012PUSHW[ ]	/* 1 value pushed */\0120 \012SRP0[ ]	/* SetRefPoint0 */\012PUSHW[ ]	/* 1 value pushed */\0124 \012MDRP[10000]	/* MoveDirectRelPt */\012PUSHW[ ]	/* 1 value pushed */\0121 \012SRP0[ ]	/* SetRefPoint0 */\012PUSHW[ ]	/* 1 value pushed */\0125 \012MDRP[10000]	/* MoveDirectRelPt */\012IUP[0]	/* InterpolateUntPts */\012IUP[1]	/* InterpolateUntPts */";
};
width = 574;
}
);
note = odieresis;
unicode = 00F6;
},
{
glyphname = oslash;
lastChange = "2020-08-05 16:35:22 +0000";
layers = (
{
layerId = "A36D14D1-FF07-4574-A62D-30DF65569781";
paths = (
{
closed = 1;
nodes = (
"509 408 OFFCURVE",
"538 313 OFFCURVE",
"538 258 QCURVE SMOOTH",
"538 201 OFFCURVE",
"506 103 OFFCURVE",
"442 30 OFFCURVE",
"349 -11 OFFCURVE",
"287 -11 QCURVE SMOOTH",
"235 -11 OFFCURVE",
"153 18 OFFCURVE",
"122 45 QCURVE",
"62 -21 LINE",
"34 2 LINE",
"96 71 LINE",
"66 108 OFFCURVE",
"36 203 OFFCURVE",
"36 258 QCURVE SMOOTH",
"36 315 OFFCURVE",
"68 414 OFFCURVE",
"132 487 OFFCURVE",
"226 529 OFFCURVE",
"287 529 QCURVE SMOOTH",
"341 529 OFFCURVE",
"423 499 OFFCURVE",
"455 470 QCURVE",
"513 535 LINE",
"540 509 LINE",
"480 443 LINE",
"480 443 LINE"
);
},
{
closed = 1;
nodes = (
"223 63 OFFCURVE",
"287 63 QCURVE SMOOTH",
"320 63 OFFCURVE",
"379 89 OFFCURVE",
"423 138 OFFCURVE",
"448 211 OFFCURVE",
"448 258 QCURVE SMOOTH",
"448 295 OFFCURVE",
"433 354 OFFCURVE",
"420 377 QCURVE",
"178 108 LINE",
"178 108 LINE"
);
},
{
closed = 1;
nodes = (
"354 454 OFFCURVE",
"287 454 QCURVE SMOOTH",
"254 454 OFFCURVE",
"195 428 OFFCURVE",
"151 378 OFFCURVE",
"126 305 OFFCURVE",
"126 258 QCURVE SMOOTH",
"126 222 OFFCURVE",
"142 162 OFFCURVE",
"156 137 QCURVE",
"398 407 LINE",
"398 407 LINE"
);
}
);
userData = {
assembly = "PUSHW[ ]	/* 1 value pushed */\01250 \012MDAP[1]	/* MoveDirectAbsPt */\012PUSHW[ ]	/* 1 value pushed */\01251 \012MDAP[1]	/* MoveDirectAbsPt */\012PUSHW[ ]	/* 1 value pushed */\01225 \012MDRP[11100]	/* MoveDirectRelPt */\012PUSHW[ ]	/* 1 value pushed */\0121 \012MDRP[10000]	/* MoveDirectRelPt */\012PUSHW[ ]	/* 1 value pushed */\0121 \012MDAP[1]	/* MoveDirectAbsPt */\012PUSHW[ ]	/* 1 value pushed */\01225 \012SRP0[ ]	/* SetRefPoint0 */\012PUSHW[ ]	/* 1 value pushed */\01232 \012MDRP[11100]	/* MoveDirectRelPt */\012NPUSHW[ ]	/* 5 values pushed */\012218 32 234 32 2 \012DELTAP1[ ]	/* DeltaExceptionP1 */\012NPUSHW[ ]	/* 27 values pushed */\0129 32 25 32 41 32 57 32 73 32 89 32 105 32 121 32 137 32 153 32 169 32 185 32 201 32 13 \012DELTAP1[ ]	/* DeltaExceptionP1 */\012PUSHW[ ]	/* 1 value pushed */\0123 \012MDRP[10000]	/* MoveDirectRelPt */\012PUSHW[ ]	/* 1 value pushed */\0123 \012MDAP[1]	/* MoveDirectAbsPt */\012PUSHW[ ]	/* 1 value pushed */\01250 \012SRP0[ ]	/* SetRefPoint0 */\012PUSHW[ ]	/* 1 value pushed */\01211 \012MDRP[10000]	/* MoveDirectRelPt */\012PUSHW[ ]	/* 1 value pushed */\01211 \012MDAP[1]	/* MoveDirectAbsPt */\012PUSHW[ ]	/* 1 value pushed */\01215 \012MDRP[10000]	/* MoveDirectRelPt */\012PUSHW[ ]	/* 1 value pushed */\01215 \012MDAP[1]	/* MoveDirectAbsPt */\012PUSHW[ ]	/* 1 value pushed */\01211 \012SRP0[ ]	/* SetRefPoint0 */\012PUSHW[ ]	/* 1 value pushed */\01243 \012MDRP[11100]	/* MoveDirectRelPt */\012NPUSHW[ ]	/* 27 values pushed */\0126 43 22 43 38 43 54 43 70 43 86 43 102 43 118 43 134 43 150 43 166 43 182 43 198 43 13 \012DELTAP1[ ]	/* DeltaExceptionP1 */\012NPUSHW[ ]	/* 5 values pushed */\012213 43 229 43 2 \012DELTAP1[ ]	/* DeltaExceptionP1 */\012PUSHW[ ]	/* 1 value pushed */\01217 \012MDRP[10000]	/* MoveDirectRelPt */\012PUSHW[ ]	/* 1 value pushed */\01217 \012MDAP[1]	/* MoveDirectAbsPt */\012PUSHW[ ]	/* 3 values pushed */\01229 15 1 \012SRP1[ ]	/* SetRefPoint1 */\012SRP2[ ]	/* SetRefPoint2 */\012IP[ ]	/* InterpolatePts */\012PUSHW[ ]	/* 3 values pushed */\01240 15 1 \012SRP1[ ]	/* SetRefPoint1 */\012SRP2[ ]	/* SetRefPoint2 */\012IP[ ]	/* InterpolatePts */\012SVTCA[0]	/* SetFreedomAndProjectionVectorToAxis */\012PUSHW[ ]	/* 1 value pushed */\01216 \012MDAP[1]	/* MoveDirectAbsPt */\012PUSHW[ ]	/* 1 value pushed */\0122 \012MDAP[1]	/* MoveDirectAbsPt */\012PUSHW[ ]	/* 1 value pushed */\0126 \012MDAP[1]	/* MoveDirectAbsPt */\012PUSHW[ ]	/* 3 values pushed */\01237 20 3 \012CALL[ ]	/* CallFunction */\012PUSHW[ ]	/* 1 value pushed */\01237 \012SRP0[ ]	/* SetRefPoint0 */\012PUSHW[ ]	/* 3 values pushed */\01229 16 2 \012SRP1[ ]	/* SetRefPoint1 */\012SRP2[ ]	/* SetRefPoint2 */\012IP[ ]	/* InterpolatePts */\012PUSHW[ ]	/* 3 values pushed */\01240 16 2 \012SRP1[ ]	/* SetRefPoint1 */\012SRP2[ ]	/* SetRefPoint2 */\012IP[ ]	/* InterpolatePts */\012PUSHW[ ]	/* 1 value pushed */\0126 \012SRP0[ ]	/* SetRefPoint0 */\012PUSHW[ ]	/* 1 value pushed */\01248 \012MDRP[11100]	/* MoveDirectRelPt */\012IUP[0]	/* InterpolateUntPts */\012IUP[1]	/* InterpolateUntPts */";
};
width = 574;
}
);
note = oslash;
unicode = 00F8;
},
{
glyphname = oe;
lastChange = "2020-08-05 16:35:22 +0000";
layers = (
{
layerId = "A36D14D1-FF07-4574-A62D-30DF65569781";
paths = (
{
closed = 1;
nodes = (
"415 296 OFFCURVE",
"403 365 OFFCURVE",
"371 420 OFFCURVE",
"315 454 OFFCURVE",
"271 454 QCURVE SMOOTH",
"231 454 OFFCURVE",
"175 418 OFFCURVE",
"141 360 OFFCURVE",
"126 286 OFFCURVE",
"126 248 QCURVE SMOOTH",
"126 215 OFFCURVE",
"142 149 OFFCURVE",
"176 96 OFFCURVE",
"232 63 OFFCURVE",
"271 63 QCURVE SMOOTH",
"314 63 OFFCURVE",
"369 98 OFFCURVE",
"402 155 OFFCURVE",
"415 225 OFFCURVE",
"415 260 QCURVE",
"415 260 LINE"
);
},
{
closed = 1;
nodes = (
"774 374 OFFCURVE",
"700 454 OFFCURVE",
"633 454 QCURVE SMOOTH",
"566 454 OFFCURVE",
"488 372 OFFCURVE",
"489 308 QCURVE",
"774 308 LINE",
"774 308 LINE"
);
},
{
closed = 1;
nodes = (
"488 199 OFFCURVE",
"506 138 OFFCURVE",
"543 91 OFFCURVE",
"600 63 OFFCURVE",
"638 63 QCURVE SMOOTH",
"689 63 OFFCURVE",
"763 116 OFFCURVE",
"778 164 QCURVE",
"859 164 LINE",
"808 -11 OFFCURVE",
"638 -11 QCURVE SMOOTH",
"573 -11 OFFCURVE",
"474 34 OFFCURVE",
"450 90 QCURVE",
"426 34 OFFCURVE",
"329 -11 OFFCURVE",
"271 -11 QCURVE SMOOTH",
"210 -11 OFFCURVE",
"121 31 OFFCURVE",
"64 105 OFFCURVE",
"36 203 OFFCURVE",
"36 259 QCURVE SMOOTH",
"36 316 OFFCURVE",
"64 414 OFFCURVE",
"123 487 OFFCURVE",
"211 529 OFFCURVE",
"271 529 QCURVE SMOOTH",
"331 529 OFFCURVE",
"424 492 OFFCURVE",
"450 438 QCURVE",
"477 484 OFFCURVE",
"578 529 OFFCURVE",
"633 529 QCURVE SMOOTH",
"698 529 OFFCURVE",
"788 482 OFFCURVE",
"844 402 OFFCURVE",
"867 294 OFFCURVE",
"864 233 QCURVE",
"489 233 LINE",
"489 233 LINE"
);
}
);
userData = {
assembly = "PUSHW[ ]	/* 3 values pushed */\01210 44 3 \012CALL[ ]	/* CallFunction */\012PUSHW[ ]	/* 1 value pushed */\01210 \012SRP0[ ]	/* SetRefPoint0 */\012PUSHW[ ]	/* 3 values pushed */\01227 0 3 \012CALL[ ]	/* CallFunction */\012PUSHW[ ]	/* 1 value pushed */\01227 \012SRP0[ ]	/* SetRefPoint0 */\012PUSHW[ ]	/* 3 values pushed */\01228 20 3 \012CALL[ ]	/* CallFunction */\012PUSHW[ ]	/* 1 value pushed */\01228 \012SRP0[ ]	/* SetRefPoint0 */\012NPUSHW[ ]	/* 27 values pushed */\0126 10 22 10 38 10 54 10 70 10 86 10 102 10 118 10 134 10 150 10 166 10 182 10 198 10 13 \012DELTAP1[ ]	/* DeltaExceptionP1 */\012NPUSHW[ ]	/* 5 values pushed */\012213 10 229 10 2 \012DELTAP1[ ]	/* DeltaExceptionP1 */\012PUSHW[ ]	/* 1 value pushed */\01227 \012SRP0[ ]	/* SetRefPoint0 */\012PUSHW[ ]	/* 1 value pushed */\01221 \012MDRP[10000]	/* MoveDirectRelPt */\012PUSHW[ ]	/* 3 values pushed */\01236 0 27 \012SRP1[ ]	/* SetRefPoint1 */\012SRP2[ ]	/* SetRefPoint2 */\012IP[ ]	/* InterpolatePts */\012PUSHW[ ]	/* 3 values pushed */\01252 0 27 \012SRP1[ ]	/* SetRefPoint1 */\012SRP2[ ]	/* SetRefPoint2 */\012IP[ ]	/* InterpolatePts */\012PUSHW[ ]	/* 3 values pushed */\01257 20 28 \012SRP1[ ]	/* SetRefPoint1 */\012SRP2[ ]	/* SetRefPoint2 */\012IP[ ]	/* InterpolatePts */\012PUSHW[ ]	/* 1 value pushed */\01228 \012SRP0[ ]	/* SetRefPoint0 */\012PUSHW[ ]	/* 1 value pushed */\01267 \012MDRP[11100]	/* MoveDirectRelPt */\012SVTCA[0]	/* SetFreedomAndProjectionVectorToAxis */\012PUSHW[ ]	/* 3 values pushed */\0125 49 3 \012CALL[ ]	/* CallFunction */\012PUSHW[ ]	/* 1 value pushed */\0125 \012SRP0[ ]	/* SetRefPoint0 */\012PUSHW[ ]	/* 3 values pushed */\01239 15 3 \012CALL[ ]	/* CallFunction */\012PUSHW[ ]	/* 1 value pushed */\01239 \012SRP0[ ]	/* SetRefPoint0 */\012PUSHW[ ]	/* 3 values pushed */\01221 27 3 \012CALL[ ]	/* CallFunction */\012PUSHW[ ]	/* 1 value pushed */\01221 \012SRP0[ ]	/* SetRefPoint0 */\012PUSHW[ ]	/* 1 value pushed */\01215 \012SRP0[ ]	/* SetRefPoint0 */\012PUSHW[ ]	/* 1 value pushed */\01224 \012MDRP[10000]	/* MoveDirectRelPt */\012PUSHW[ ]	/* 1 value pushed */\01239 \012SRP0[ ]	/* SetRefPoint0 */\012PUSHW[ ]	/* 1 value pushed */\01233 \012MDRP[10000]	/* MoveDirectRelPt */\012PUSHW[ ]	/* 1 value pushed */\01249 \012SRP0[ ]	/* SetRefPoint0 */\012PUSHW[ ]	/* 1 value pushed */\01255 \012MDRP[10000]	/* MoveDirectRelPt */\012PUSHW[ ]	/* 1 value pushed */\01258 \012MDRP[11100]	/* MoveDirectRelPt */\012PUSHW[ ]	/* 3 values pushed */\01252 55 58 \012SRP1[ ]	/* SetRefPoint1 */\012SRP2[ ]	/* SetRefPoint2 */\012IP[ ]	/* InterpolatePts */\012PUSHW[ ]	/* 1 value pushed */\0125 \012SRP0[ ]	/* SetRefPoint0 */\012PUSHW[ ]	/* 1 value pushed */\01261 \012MDRP[10000]	/* MoveDirectRelPt */\012IUP[0]	/* InterpolateUntPts */\012IUP[1]	/* InterpolateUntPts */";
};
width = 891;
}
);
note = oe;
unicode = 0153;
},
{
glyphname = p;
lastChange = "2020-08-10 02:07:25 +0000";
layers = (
{
layerId = "A36D14D1-FF07-4574-A62D-30DF65569781";
paths = (
{
closed = 1;
nodes = (
"400 79 OFFCURVE",
"409 70 OFFCURVE",
"420 70 CURVE SMOOTH",
"461 70 LINE SMOOTH",
"472 70 OFFCURVE",
"481 79 OFFCURVE",
"481 90 CURVE SMOOTH",
"481 449 LINE SMOOTH",
"481 478 OFFCURVE",
"459 500 OFFCURVE",
"430 500 CURVE SMOOTH",
"131 500 LINE SMOOTH",
"102 500 OFFCURVE",
"80 478 OFFCURVE",
"80 449 CURVE SMOOTH",
"80 -180 LINE SMOOTH",
"80 -191 OFFCURVE",
"89 -200 OFFCURVE",
"100 -200 CURVE SMOOTH",
"141 -200 LINE SMOOTH",
"152 -200 OFFCURVE",
"161 -191 OFFCURVE",
"161 -180 CURVE SMOOTH",
"161 439 LINE SMOOTH",
"161 450 OFFCURVE",
"170 459 OFFCURVE",
"181 459 CURVE SMOOTH",
"380 459 LINE SMOOTH",
"391 459 OFFCURVE",
"400 450 OFFCURVE",
"400 439 CURVE SMOOTH",
"400 90 LINE SMOOTH"
);
},
{
closed = 1;
nodes = (
"400 61 LINE SMOOTH",
"400 50 OFFCURVE",
"391 41 OFFCURVE",
"380 41 CURVE SMOOTH",
"181 41 LINE SMOOTH",
"170 41 OFFCURVE",
"161 50 OFFCURVE",
"161 61 CURVE SMOOTH",
"161 450 LINE SMOOTH",
"161 461 OFFCURVE",
"152 470 OFFCURVE",
"141 470 CURVE SMOOTH",
"100 470 LINE SMOOTH",
"89 470 OFFCURVE",
"80 461 OFFCURVE",
"80 450 CURVE SMOOTH",
"80 51 LINE SMOOTH",
"80 22 OFFCURVE",
"102 0 OFFCURVE",
"131 0 CURVE SMOOTH",
"430 0 LINE SMOOTH",
"459 0 OFFCURVE",
"481 22 OFFCURVE",
"481 51 CURVE SMOOTH",
"481 450 LINE SMOOTH",
"481 461 OFFCURVE",
"472 470 OFFCURVE",
"461 470 CURVE SMOOTH",
"420 470 LINE SMOOTH",
"409 470 OFFCURVE",
"400 461 OFFCURVE",
"400 450 CURVE SMOOTH"
);
}
);
width = 561;
}
);
unicode = 0070;
},
{
glyphname = thorn;
lastChange = "2020-08-05 16:35:22 +0000";
layers = (
{
layerId = "A36D14D1-FF07-4574-A62D-30DF65569781";
paths = (
{
closed = 1;
nodes = (
"154 447 LINE",
"175 490 OFFCURVE",
"265 529 OFFCURVE",
"319 529 QCURVE SMOOTH",
"379 529 OFFCURVE",
"468 485 OFFCURVE",
"527 410 OFFCURVE",
"557 312 OFFCURVE",
"557 257 QCURVE SMOOTH",
"557 202 OFFCURVE",
"528 104 OFFCURVE",
"469 31 OFFCURVE",
"380 -11 OFFCURVE",
"321 -11 QCURVE SMOOTH",
"302 -11 OFFCURVE",
"255 -3 OFFCURVE",
"209 15 OFFCURVE",
"168 46 OFFCURVE",
"154 69 QCURVE",
"152 69 LINE",
"152 -197 LINE",
"67 -197 LINE",
"67 714 LINE",
"152 714 LINE",
"152 447 LINE",
"152 447 LINE"
);
},
{
closed = 1;
nodes = (
"467 299 OFFCURVE",
"448 368 OFFCURVE",
"409 422 OFFCURVE",
"348 454 OFFCURVE",
"307 454 QCURVE SMOOTH",
"264 454 OFFCURVE",
"204 420 OFFCURVE",
"166 365 OFFCURVE",
"149 295 OFFCURVE",
"149 259 QCURVE SMOOTH",
"149 221 OFFCURVE",
"167 150 OFFCURVE",
"206 96 OFFCURVE",
"268 63 OFFCURVE",
"312 63 QCURVE SMOOTH",
"356 63 OFFCURVE",
"415 97 OFFCURVE",
"451 153 OFFCURVE",
"467 225 OFFCURVE",
"467 263 QCURVE",
"467 263 LINE"
);
}
);
userData = {
assembly = "PUSHW[ ]	/* 1 value pushed */\01246 \012MDAP[1]	/* MoveDirectAbsPt */\012PUSHW[ ]	/* 3 values pushed */\0121 2 3 \012CALL[ ]	/* CallFunction */\012PUSHW[ ]	/* 1 value pushed */\0121 \012SRP0[ ]	/* SetRefPoint0 */\012PUSHW[ ]	/* 1 value pushed */\0124 \012MDRP[10000]	/* MoveDirectRelPt */\012PUSHW[ ]	/* 1 value pushed */\0121 \012SRP0[ ]	/* SetRefPoint0 */\012PUSHW[ ]	/* 1 value pushed */\0126 \012MDRP[10000]	/* MoveDirectRelPt */\012PUSHW[ ]	/* 1 value pushed */\0126 \012MDAP[1]	/* MoveDirectAbsPt */\012PUSHW[ ]	/* 1 value pushed */\01246 \012SRP0[ ]	/* SetRefPoint0 */\012PUSHW[ ]	/* 1 value pushed */\01216 \012MDRP[11100]	/* MoveDirectRelPt */\012PUSHW[ ]	/* 1 value pushed */\0121 \012SRP0[ ]	/* SetRefPoint0 */\012PUSHW[ ]	/* 1 value pushed */\01224 \012MDRP[10000]	/* MoveDirectRelPt */\012PUSHW[ ]	/* 1 value pushed */\01224 \012MDAP[1]	/* MoveDirectAbsPt */\012PUSHW[ ]	/* 1 value pushed */\01216 \012SRP0[ ]	/* SetRefPoint0 */\012PUSHW[ ]	/* 1 value pushed */\01225 \012MDRP[11100]	/* MoveDirectRelPt */\012NPUSHW[ ]	/* 5 values pushed */\012218 25 234 25 2 \012DELTAP1[ ]	/* DeltaExceptionP1 */\012NPUSHW[ ]	/* 27 values pushed */\0129 25 25 25 41 25 57 25 73 25 89 25 105 25 121 25 137 25 153 25 169 25 185 25 201 25 13 \012DELTAP1[ ]	/* DeltaExceptionP1 */\012PUSHW[ ]	/* 1 value pushed */\0121 \012SRP0[ ]	/* SetRefPoint0 */\012PUSHW[ ]	/* 1 value pushed */\01235 \012MDRP[10000]	/* MoveDirectRelPt */\012PUSHW[ ]	/* 1 value pushed */\01235 \012MDAP[1]	/* MoveDirectAbsPt */\012SVTCA[0]	/* SetFreedomAndProjectionVectorToAxis */\012PUSHW[ ]	/* 1 value pushed */\0121 \012MDAP[1]	/* MoveDirectAbsPt */\012PUSHW[ ]	/* 1 value pushed */\0123 \012MDAP[1]	/* MoveDirectAbsPt */\012PUSHW[ ]	/* 3 values pushed */\01230 11 3 \012CALL[ ]	/* CallFunction */\012PUSHW[ ]	/* 1 value pushed */\01230 \012SRP0[ ]	/* SetRefPoint0 */\012PUSHW[ ]	/* 3 values pushed */\01221 40 3 \012CALL[ ]	/* CallFunction */\012PUSHW[ ]	/* 1 value pushed */\01221 \012SRP0[ ]	/* SetRefPoint0 */\012PUSHW[ ]	/* 3 values pushed */\0126 3 1 \012SRP1[ ]	/* SetRefPoint1 */\012SRP2[ ]	/* SetRefPoint2 */\012IP[ ]	/* InterpolatePts */\012IUP[0]	/* InterpolateUntPts */\012IUP[1]	/* InterpolateUntPts */";
};
width = 593;
}
);
note = thorn;
unicode = 00FE;
},
{
glyphname = r;
lastChange = "2020-08-10 02:07:25 +0000";
layers = (
{
layerId = "A36D14D1-FF07-4574-A62D-30DF65569781";
paths = (
{
closed = 1;
nodes = (
"521 434 LINE SMOOTH",
"521 471 OFFCURVE",
"497 500 OFFCURVE",
"465 500 CURVE SMOOTH",
"136 500 LINE SMOOTH",
"104 500 OFFCURVE",
"80 471 OFFCURVE",
"80 434 CURVE SMOOTH",
"80 37 LINE SMOOTH",
"80 23 OFFCURVE",
"90 11 OFFCURVE",
"102 11 CURVE SMOOTH",
"147 11 LINE SMOOTH",
"159 11 OFFCURVE",
"169 23 OFFCURVE",
"169 37 CURVE SMOOTH",
"169 421 LINE SMOOTH",
"169 435 OFFCURVE",
"179 447 OFFCURVE",
"191 447 CURVE SMOOTH",
"410 447 LINE SMOOTH",
"422 447 OFFCURVE",
"432 435 OFFCURVE",
"432 421 CURVE SMOOTH",
"432 399 LINE",
"521 401 LINE"
);
}
);
width = 542;
}
);
unicode = 0072;
},
{
glyphname = s;
lastChange = "2019-02-19 01:05:42 +0000";
layers = (
{
layerId = "A36D14D1-FF07-4574-A62D-30DF65569781";
paths = (
{
closed = 1;
nodes = (
"125 290 LINE",
"122 294 OFFCURVE",
"120 298 OFFCURVE",
"120 303 CURVE SMOOTH",
"120 371 LINE SMOOTH",
"120 415 OFFCURVE",
"129 411 OFFCURVE",
"140 411 CURVE SMOOTH",
"416 411 LINE SMOOTH",
"427 411 OFFCURVE",
"436 420 OFFCURVE",
"436 431 CURVE SMOOTH",
"436 472 LINE SMOOTH",
"436 483 OFFCURVE",
"427 492 OFFCURVE",
"416 492 CURVE SMOOTH",
"130 492 LINE SMOOTH",
"101 492 OFFCURVE",
"79 470 OFFCURVE",
"79 441 CURVE SMOOTH",
"79 253 LINE SMOOTH",
"79 224 OFFCURVE",
"101 202 OFFCURVE",
"130 202 CURVE SMOOTH",
"404 202 LINE",
"407 198 OFFCURVE",
"409 194 OFFCURVE",
"409 189 CURVE SMOOTH",
"409 101 LINE SMOOTH",
"409 90 OFFCURVE",
"400 81 OFFCURVE",
"389 81 CURVE SMOOTH",
"110 81 LINE SMOOTH",
"99 81 OFFCURVE",
"90 72 OFFCURVE",
"90 61 CURVE SMOOTH",
"89 21 LINE SMOOTH",
"89 9 OFFCURVE",
"98 0 OFFCURVE",
"110 0 CURVE SMOOTH",
"399 0 LINE SMOOTH",
"428 0 OFFCURVE",
"450 22 OFFCURVE",
"450 51 CURVE SMOOTH",
"450 239 LINE SMOOTH",
"450 268 OFFCURVE",
"428 290 OFFCURVE",
"399 290 CURVE SMOOTH"
);
}
);
width = 509;
}
);
unicode = 0073;
},
{
glyphname = scaron;
lastChange = "2020-08-05 16:35:22 +0000";
layers = (
{
layerId = "A36D14D1-FF07-4574-A62D-30DF65569781";
paths = (
{
closed = 1;
nodes = (
"204 588 LINE",
"100 731 LINE",
"184 731 LINE",
"253 635 LINE",
"323 731 LINE",
"400 731 LINE",
"297 588 LINE",
"297 588 LINE"
);
},
{
closed = 1;
nodes = (
"117 135 OFFCURVE",
"141 96 OFFCURVE",
"180 73 OFFCURVE",
"229 63 OFFCURVE",
"255 63 QCURVE SMOOTH",
"275 63 OFFCURVE",
"319 69 OFFCURVE",
"356 85 OFFCURVE",
"380 116 OFFCURVE",
"380 140 QCURVE SMOOTH",
"380 173 OFFCURVE",
"330 207 OFFCURVE",
"255 228 OFFCURVE",
"167 245 OFFCURVE",
"92 276 OFFCURVE",
"42 332 OFFCURVE",
"42 382 QCURVE SMOOTH",
"42 421 OFFCURVE",
"77 477 OFFCURVE",
"132 512 OFFCURVE",
"201 529 OFFCURVE",
"235 529 QCURVE SMOOTH",
"279 529 OFFCURVE",
"353 514 OFFCURVE",
"410 477 OFFCURVE",
"444 414 OFFCURVE",
"447 367 QCURVE",
"362 367 LINE",
"360 392 OFFCURVE",
"338 425 OFFCURVE",
"304 445 OFFCURVE",
"263 454 OFFCURVE",
"242 454 QCURVE SMOOTH",
"223 454 OFFCURVE",
"184 448 OFFCURVE",
"152 433 OFFCURVE",
"132 408 OFFCURVE",
"132 388 QCURVE SMOOTH",
"132 366 OFFCURVE",
"163 337 OFFCURVE",
"211 318 OFFCURVE",
"271 305 OFFCURVE",
"301 298 QCURVE SMOOTH",
"333 291 OFFCURVE",
"394 271 OFFCURVE",
"441 238 OFFCURVE",
"470 188 OFFCURVE",
"470 151 QCURVE SMOOTH",
"470 104 OFFCURVE",
"431 42 OFFCURVE",
"368 4 OFFCURVE",
"289 -11 OFFCURVE",
"250 -11 QCURVE SMOOTH",
"207 -11 OFFCURVE",
"129 7 OFFCURVE",
"69 48 OFFCURVE",
"33 115 OFFCURVE",
"31 163 QCURVE",
"116 163 LINE",
"116 163 LINE"
);
}
);
userData = {
assembly = "PUSHW[ ]	/* 3 values pushed */\0127 8 3 \012CALL[ ]	/* CallFunction */\012PUSHW[ ]	/* 1 value pushed */\0127 \012SRP0[ ]	/* SetRefPoint0 */\012PUSHW[ ]	/* 3 values pushed */\01239 38 3 \012CALL[ ]	/* CallFunction */\012PUSHW[ ]	/* 1 value pushed */\01239 \012SRP0[ ]	/* SetRefPoint0 */\012PUSHW[ ]	/* 3 values pushed */\0121 38 39 \012SRP1[ ]	/* SetRefPoint1 */\012SRP2[ ]	/* SetRefPoint2 */\012IP[ ]	/* InterpolatePts */\012PUSHW[ ]	/* 3 values pushed */\01256 38 39 \012SRP1[ ]	/* SetRefPoint1 */\012SRP2[ ]	/* SetRefPoint2 */\012IP[ ]	/* InterpolatePts */\012PUSHW[ ]	/* 1 value pushed */\01256 \012MDAP[1]	/* MoveDirectAbsPt */\012NPUSHW[ ]	/* 5 values pushed */\012218 56 234 56 2 \012DELTAP1[ ]	/* DeltaExceptionP1 */\012NPUSHW[ ]	/* 27 values pushed */\0129 56 25 56 41 56 57 56 73 56 89 56 105 56 121 56 137 56 153 56 169 56 185 56 201 56 13 \012DELTAP1[ ]	/* DeltaExceptionP1 */\012PUSHW[ ]	/* 1 value pushed */\01218 \012MDRP[11100]	/* MoveDirectRelPt */\012PUSHW[ ]	/* 3 values pushed */\0123 8 18 \012SRP1[ ]	/* SetRefPoint1 */\012SRP2[ ]	/* SetRefPoint2 */\012IP[ ]	/* InterpolatePts */\012PUSHW[ ]	/* 3 values pushed */\0125 8 7 \012SRP1[ ]	/* SetRefPoint1 */\012SRP2[ ]	/* SetRefPoint2 */\012IP[ ]	/* InterpolatePts */\012PUSHW[ ]	/* 1 value pushed */\0127 \012SRP0[ ]	/* SetRefPoint0 */\012PUSHW[ ]	/* 1 value pushed */\01249 \012MDRP[11100]	/* MoveDirectRelPt */\012PUSHW[ ]	/* 1 value pushed */\01228 \012MDRP[11100]	/* MoveDirectRelPt */\012PUSHW[ ]	/* 1 value pushed */\01218 \012SRP0[ ]	/* SetRefPoint0 */\012PUSHW[ ]	/* 1 value pushed */\01267 \012MDRP[11100]	/* MoveDirectRelPt */\012SVTCA[0]	/* SetFreedomAndProjectionVectorToAxis */\012PUSHW[ ]	/* 1 value pushed */\0121 \012MDAP[1]	/* MoveDirectAbsPt */\012PUSHW[ ]	/* 1 value pushed */\0124 \012MDAP[1]	/* MoveDirectAbsPt */\012PUSHW[ ]	/* 3 values pushed */\01261 13 3 \012CALL[ ]	/* CallFunction */\012PUSHW[ ]	/* 1 value pushed */\01261 \012SRP0[ ]	/* SetRefPoint0 */\012PUSHW[ ]	/* 3 values pushed */\01244 33 3 \012CALL[ ]	/* CallFunction */\012PUSHW[ ]	/* 1 value pushed */\01244 \012SRP0[ ]	/* SetRefPoint0 */\012PUSHW[ ]	/* 1 value pushed */\01213 \012SRP0[ ]	/* SetRefPoint0 */\012PUSHW[ ]	/* 1 value pushed */\0127 \012MDRP[11100]	/* MoveDirectRelPt */\012PUSHW[ ]	/* 1 value pushed */\01244 \012SRP0[ ]	/* SetRefPoint0 */\012PUSHW[ ]	/* 1 value pushed */\01238 \012MDRP[11100]	/* MoveDirectRelPt */\012IUP[0]	/* InterpolateUntPts */\012IUP[1]	/* InterpolateUntPts */";
};
width = 500;
}
);
note = scaron;
unicode = 0161;
},
{
glyphname = germandbls;
lastChange = "2020-08-05 16:35:22 +0000";
layers = (
{
layerId = "A36D14D1-FF07-4574-A62D-30DF65569781";
paths = (
{
closed = 1;
nodes = (
"64 576 OFFCURVE",
"92 649 OFFCURVE",
"144 702 OFFCURVE",
"217 731 OFFCURVE",
"262 731 QCURVE SMOOTH",
"299 731 OFFCURVE",
"373 709 OFFCURVE",
"432 665 OFFCURVE",
"469 600 OFFCURVE",
"469 556 QCURVE SMOOTH",
"469 499 OFFCURVE",
"422 419 OFFCURVE",
"365 401 QCURVE",
"365 399 LINE",
"399 395 OFFCURVE",
"450 362 OFFCURVE",
"484 314 OFFCURVE",
"501 253 OFFCURVE",
"501 220 QCURVE SMOOTH",
"501 168 OFFCURVE",
"467 83 OFFCURVE",
"406 22 OFFCURVE",
"321 -11 OFFCURVE",
"270 -11 QCURVE SMOOTH",
"247 -11 OFFCURVE",
"227 -7 QCURVE",
"227 66 LINE",
"235 64 OFFCURVE",
"253 63 OFFCURVE",
"261 63 QCURVE SMOOTH",
"330 63 OFFCURVE",
"411 143 OFFCURVE",
"411 209 QCURVE SMOOTH",
"411 258 OFFCURVE",
"385 317 OFFCURVE",
"337 349 OFFCURVE",
"269 359 OFFCURVE",
"227 359 QCURVE",
"227 427 LINE",
"257 425 OFFCURVE",
"312 435 OFFCURVE",
"354 462 OFFCURVE",
"379 509 OFFCURVE",
"379 543 QCURVE SMOOTH",
"379 567 OFFCURVE",
"362 608 OFFCURVE",
"332 638 OFFCURVE",
"292 656 OFFCURVE",
"268 656 QCURVE SMOOTH",
"242 656 OFFCURVE",
"198 643 OFFCURVE",
"167 612 OFFCURVE",
"149 558 OFFCURVE",
"149 516 QCURVE SMOOTH",
"149 0 LINE",
"64 0 LINE",
"64 531 LINE",
"64 531 LINE"
);
}
);
userData = {
assembly = "PUSHW[ ]	/* 3 values pushed */\0123 0 3 \012CALL[ ]	/* CallFunction */\012PUSHW[ ]	/* 1 value pushed */\0123 \012SRP0[ ]	/* SetRefPoint0 */\012PUSHW[ ]	/* 3 values pushed */\01247 13 3 \012CALL[ ]	/* CallFunction */\012PUSHW[ ]	/* 1 value pushed */\01247 \012SRP0[ ]	/* SetRefPoint0 */\012NPUSHW[ ]	/* 5 values pushed */\012218 13 234 13 2 \012DELTAP1[ ]	/* DeltaExceptionP1 */\012NPUSHW[ ]	/* 27 values pushed */\0129 13 25 13 41 13 57 13 73 13 89 13 105 13 121 13 137 13 153 13 169 13 185 13 201 13 13 \012DELTAP1[ ]	/* DeltaExceptionP1 */\012PUSHW[ ]	/* 3 values pushed */\01224 13 47 \012SRP1[ ]	/* SetRefPoint1 */\012SRP2[ ]	/* SetRefPoint2 */\012IP[ ]	/* InterpolatePts */\012PUSHW[ ]	/* 1 value pushed */\01224 \012MDAP[1]	/* MoveDirectAbsPt */\012NPUSHW[ ]	/* 5 values pushed */\012218 24 234 24 2 \012DELTAP1[ ]	/* DeltaExceptionP1 */\012NPUSHW[ ]	/* 27 values pushed */\0129 24 25 24 41 24 57 24 73 24 89 24 105 24 121 24 137 24 153 24 169 24 185 24 201 24 13 \012DELTAP1[ ]	/* DeltaExceptionP1 */\012PUSHW[ ]	/* 1 value pushed */\01238 \012MDRP[11100]	/* MoveDirectRelPt */\012PUSHW[ ]	/* 3 values pushed */\01244 0 38 \012SRP1[ ]	/* SetRefPoint1 */\012SRP2[ ]	/* SetRefPoint2 */\012IP[ ]	/* InterpolatePts */\012PUSHW[ ]	/* 1 value pushed */\01258 \012MDRP[11100]	/* MoveDirectRelPt */\012SVTCA[0]	/* SetFreedomAndProjectionVectorToAxis */\012PUSHW[ ]	/* 3 values pushed */\01227 33 3 \012CALL[ ]	/* CallFunction */\012PUSHW[ ]	/* 1 value pushed */\01227 \012SRP0[ ]	/* SetRefPoint0 */\012PUSHW[ ]	/* 3 values pushed */\01252 8 3 \012CALL[ ]	/* CallFunction */\012PUSHW[ ]	/* 1 value pushed */\01252 \012SRP0[ ]	/* SetRefPoint0 */\012PUSHW[ ]	/* 3 values pushed */\01218 19 3 \012CALL[ ]	/* CallFunction */\012PUSHW[ ]	/* 1 value pushed */\01218 \012SRP0[ ]	/* SetRefPoint0 */\012PUSHW[ ]	/* 3 values pushed */\01244 19 18 \012SRP1[ ]	/* SetRefPoint1 */\012SRP2[ ]	/* SetRefPoint2 */\012IP[ ]	/* InterpolatePts */\012IUP[0]	/* InterpolateUntPts */\012IUP[1]	/* InterpolateUntPts */";
};
width = 556;
}
);
note = germandbls;
unicode = 00DF;
},
{
glyphname = uni017F;
lastChange = "2020-08-05 16:35:22 +0000";
layers = (
{
layerId = "A36D14D1-FF07-4574-A62D-30DF65569781";
paths = (
{
closed = 1;
nodes = (
"174 605 OFFCURVE",
"190 647 OFFCURVE",
"230 647 QCURVE SMOOTH",
"235 647 OFFCURVE",
"248 646 OFFCURVE",
"261 646 QCURVE",
"261 726 LINE",
"250 727 OFFCURVE",
"232 728 OFFCURVE",
"224 728 QCURVE SMOOTH",
"136 728 OFFCURVE",
"105 683 QCURVE SMOOTH",
"88 657 OFFCURVE",
"86 603 QCURVE SMOOTH",
"86 521 LINE",
"14 521 LINE",
"14 451 LINE",
"86 451 LINE",
"86 0 LINE",
"173 0 LINE",
"173 451 LINE",
"173 451 LINE"
);
}
);
userData = {
assembly = "PUSHW[ ]	/* 1 value pushed */\01220 \012CALL[ ]	/* CallFunction */\012PUSHW[ ]	/* 4 values pushed */\0120 3 4 24 \012CALL[ ]	/* CallFunction */\012PUSHW[ ]	/* 1 value pushed */\0120 \012SRP0[ ]	/* SetRefPoint0 */\012PUSHW[ ]	/* 2 values pushed */\0122 3 \012MIRP[10100]	/* MoveIndirectRelPt */\012PUSHW[ ]	/* 1 value pushed */\0127 \012SRP0[ ]	/* SetRefPoint0 */\012PUSHW[ ]	/* 1 value pushed */\0123 \012MDRP[10000]	/* MoveDirectRelPt */\012PUSHW[ ]	/* 1 value pushed */\0122 \012SRP0[ ]	/* SetRefPoint0 */\012PUSHW[ ]	/* 1 value pushed */\0126 \012MDRP[10000]	/* MoveDirectRelPt */\012PUSHW[ ]	/* 1 value pushed */\0122 \012SRP0[ ]	/* SetRefPoint0 */\012PUSHW[ ]	/* 2 values pushed */\01215 3 \012MIRP[10100]	/* MoveIndirectRelPt */\012SVTCA[0]	/* SetFreedomAndProjectionVectorToAxis */\012PUSHW[ ]	/* 1 value pushed */\0121 \012RCVT[ ]	/* ReadCVT */\012IF[ ]	/* If */\012PUSHW[ ]	/* 1 value pushed */\01211 \012MDAP[1]	/* MoveDirectAbsPt */\012ELSE[ ]	/* Else */\012PUSHW[ ]	/* 2 values pushed */\01211 10 \012MIAP[0]	/* MoveIndirectAbsPt */\012EIF[ ]	/* EndIf */\012PUSHW[ ]	/* 1 value pushed */\0121 \012RCVT[ ]	/* ReadCVT */\012IF[ ]	/* If */\012PUSHW[ ]	/* 1 value pushed */\01214 \012MDAP[1]	/* MoveDirectAbsPt */\012ELSE[ ]	/* Else */\012PUSHW[ ]	/* 2 values pushed */\01214 10 \012MIAP[0]	/* MoveIndirectAbsPt */\012EIF[ ]	/* EndIf */\012PUSHW[ ]	/* 1 value pushed */\0121 \012RCVT[ ]	/* ReadCVT */\012IF[ ]	/* If */\012PUSHW[ ]	/* 1 value pushed */\0125 \012MDAP[1]	/* MoveDirectAbsPt */\012ELSE[ ]	/* Else */\012PUSHW[ ]	/* 2 values pushed */\0125 8 \012MIAP[0]	/* MoveIndirectAbsPt */\012EIF[ ]	/* EndIf */\012PUSHW[ ]	/* 1 value pushed */\0121 \012RCVT[ ]	/* ReadCVT */\012IF[ ]	/* If */\012PUSHW[ ]	/* 1 value pushed */\0121 \012MDAP[1]	/* MoveDirectAbsPt */\012ELSE[ ]	/* Else */\012PUSHW[ ]	/* 2 values pushed */\0121 4 \012MIAP[0]	/* MoveIndirectAbsPt */\012EIF[ ]	/* EndIf */\012PUSHW[ ]	/* 1 value pushed */\0125 \012SRP0[ ]	/* SetRefPoint0 */\012PUSHW[ ]	/* 2 values pushed */\0123 2 \012MIRP[10100]	/* MoveIndirectRelPt */\012PUSHW[ ]	/* 1 value pushed */\01214 \012SRP0[ ]	/* SetRefPoint0 */\012PUSHW[ ]	/* 2 values pushed */\01215 2 \012MIRP[10100]	/* MoveIndirectRelPt */\012PUSHW[ ]	/* 1 value pushed */\01218 \012MDRP[10000]	/* MoveDirectRelPt */\012IUP[0]	/* InterpolateUntPts */\012IUP[1]	/* InterpolateUntPts */";
};
width = 278;
}
);
note = uni017F;
unicode = 017F;
},
{
glyphname = t;
lastChange = "2019-02-25 04:42:54 +0000";
layers = (
{
layerId = "A36D14D1-FF07-4574-A62D-30DF65569781";
paths = (
{
closed = 1;
nodes = (
"356 501 LINE SMOOTH",
"344 501 OFFCURVE",
"334 513 OFFCURVE",
"334 527 CURVE SMOOTH",
"334 762 LINE SMOOTH",
"334 777 OFFCURVE",
"325 787 OFFCURVE",
"312 788 CURVE SMOOTH",
"268 790 LINE SMOOTH",
"255 791 OFFCURVE",
"245 778 OFFCURVE",
"245 762 CURVE SMOOTH",
"245 527 LINE SMOOTH",
"245 513 OFFCURVE",
"235 501 OFFCURVE",
"223 501 CURVE SMOOTH",
"87 501 LINE SMOOTH",
"75 501 OFFCURVE",
"65 489 OFFCURVE",
"65 475 CURVE SMOOTH",
"65 474 LINE SMOOTH",
"65 459 OFFCURVE",
"75 448 OFFCURVE",
"87 448 CURVE SMOOTH",
"223 448 LINE SMOOTH",
"235 448 OFFCURVE",
"245 436 OFFCURVE",
"245 422 CURVE SMOOTH",
"245 24 LINE SMOOTH",
"245 10 OFFCURVE",
"255 -2 OFFCURVE",
"267 -2 CURVE SMOOTH",
"312 -2 LINE SMOOTH",
"325 -2 OFFCURVE",
"334 10 OFFCURVE",
"334 24 CURVE SMOOTH",
"334 422 LINE SMOOTH",
"334 436 OFFCURVE",
"344 448 OFFCURVE",
"356 448 CURVE SMOOTH",
"493 448 LINE SMOOTH",
"505 448 OFFCURVE",
"515 459 OFFCURVE",
"515 474 CURVE SMOOTH",
"515 475 LINE SMOOTH",
"515 489 OFFCURVE",
"505 501 OFFCURVE",
"493 501 CURVE SMOOTH"
);
}
);
width = 580;
}
);
unicode = 0074;
},
{
glyphname = u;
lastChange = "2020-08-10 02:07:25 +0000";
layers = (
{
layerId = "A36D14D1-FF07-4574-A62D-30DF65569781";
paths = (
{
closed = 1;
nodes = (
"432 77 LINE SMOOTH",
"432 63 OFFCURVE",
"422 51 OFFCURVE",
"410 51 CURVE SMOOTH",
"191 51 LINE SMOOTH",
"179 51 OFFCURVE",
"169 63 OFFCURVE",
"169 77 CURVE SMOOTH",
"169 473 LINE SMOOTH",
"169 487 OFFCURVE",
"159 499 OFFCURVE",
"147 499 CURVE SMOOTH",
"102 499 LINE SMOOTH",
"90 499 OFFCURVE",
"80 487 OFFCURVE",
"80 473 CURVE SMOOTH",
"80 64 LINE SMOOTH",
"80 27 OFFCURVE",
"104 -2 OFFCURVE",
"136 -2 CURVE SMOOTH",
"465 -2 LINE SMOOTH",
"497 -2 OFFCURVE",
"521 27 OFFCURVE",
"521 64 CURVE SMOOTH",
"521 473 LINE SMOOTH",
"521 487 OFFCURVE",
"511 499 OFFCURVE",
"499 499 CURVE SMOOTH",
"454 499 LINE SMOOTH",
"442 499 OFFCURVE",
"432 487 OFFCURVE",
"432 473 CURVE SMOOTH"
);
}
);
width = 601;
}
);
unicode = 0075;
},
{
glyphname = ucircumflex;
lastChange = "2020-08-05 16:35:22 +0000";
layers = (
{
layerId = "A36D14D1-FF07-4574-A62D-30DF65569781";
paths = (
{
closed = 1;
nodes = (
"324 731 LINE",
"428 588 LINE",
"344 588 LINE",
"275 684 LINE",
"205 588 LINE",
"128 588 LINE",
"231 731 LINE",
"231 731 LINE"
);
},
{
closed = 1;
nodes = (
"412 0 LINE",
"412 82 LINE",
"410 82 LINE",
"383 34 OFFCURVE",
"299 -11 OFFCURVE",
"242 -11 QCURVE SMOOTH",
"191 -11 OFFCURVE",
"123 16 OFFCURVE",
"81 66 OFFCURVE",
"64 135 OFFCURVE",
"64 177 QCURVE SMOOTH",
"64 517 LINE",
"149 517 LINE",
"149 167 LINE SMOOTH",
"149 119 OFFCURVE",
"205 63 OFFCURVE",
"254 63 QCURVE SMOOTH",
"293 63 OFFCURVE",
"350 87 OFFCURVE",
"388 131 OFFCURVE",
"407 190 OFFCURVE",
"407 225 QCURVE SMOOTH",
"407 517 LINE",
"492 517 LINE",
"492 0 LINE",
"492 0 LINE"
);
}
);
userData = {
assembly = "PUSHW[ ]	/* 3 values pushed */\01219 20 3 \012CALL[ ]	/* CallFunction */\012PUSHW[ ]	/* 1 value pushed */\01219 \012SRP0[ ]	/* SetRefPoint0 */\012PUSHW[ ]	/* 3 values pushed */\0128 9 3 \012CALL[ ]	/* CallFunction */\012PUSHW[ ]	/* 1 value pushed */\0128 \012SRP0[ ]	/* SetRefPoint0 */\012PUSHW[ ]	/* 3 values pushed */\0121 20 19 \012SRP1[ ]	/* SetRefPoint1 */\012SRP2[ ]	/* SetRefPoint2 */\012IP[ ]	/* InterpolatePts */\012PUSHW[ ]	/* 3 values pushed */\0123 20 8 \012SRP1[ ]	/* SetRefPoint1 */\012SRP2[ ]	/* SetRefPoint2 */\012IP[ ]	/* InterpolatePts */\012PUSHW[ ]	/* 3 values pushed */\0125 9 8 \012SRP1[ ]	/* SetRefPoint1 */\012SRP2[ ]	/* SetRefPoint2 */\012IP[ ]	/* InterpolatePts */\012PUSHW[ ]	/* 1 value pushed */\0129 \012SRP0[ ]	/* SetRefPoint0 */\012PUSHW[ ]	/* 1 value pushed */\01229 \012MDRP[10000]	/* MoveDirectRelPt */\012PUSHW[ ]	/* 1 value pushed */\01229 \012MDAP[1]	/* MoveDirectAbsPt */\012PUSHW[ ]	/* 3 values pushed */\01230 9 8 \012SRP1[ ]	/* SetRefPoint1 */\012SRP2[ ]	/* SetRefPoint2 */\012IP[ ]	/* InterpolatePts */\012PUSHW[ ]	/* 1 value pushed */\0129 \012SRP0[ ]	/* SetRefPoint0 */\012PUSHW[ ]	/* 1 value pushed */\01231 \012MDRP[10000]	/* MoveDirectRelPt */\012PUSHW[ ]	/* 1 value pushed */\01231 \012MDAP[1]	/* MoveDirectAbsPt */\012SVTCA[0]	/* SetFreedomAndProjectionVectorToAxis */\012PUSHW[ ]	/* 1 value pushed */\0120 \012MDAP[1]	/* MoveDirectAbsPt */\012PUSHW[ ]	/* 3 values pushed */\01215 26 3 \012CALL[ ]	/* CallFunction */\012PUSHW[ ]	/* 1 value pushed */\01215 \012SRP0[ ]	/* SetRefPoint0 */\012IUP[0]	/* InterpolateUntPts */\012IUP[1]	/* InterpolateUntPts */";
};
width = 556;
}
);
note = ucircumflex;
unicode = 00FB;
},
{
glyphname = udieresis;
lastChange = "2020-08-05 16:35:22 +0000";
layers = (
{
layerId = "A36D14D1-FF07-4574-A62D-30DF65569781";
paths = (
{
closed = 1;
nodes = (
"229 696 LINE",
"229 592 LINE",
"139 592 LINE",
"139 696 LINE",
"139 696 LINE"
);
},
{
closed = 1;
nodes = (
"417 696 LINE",
"417 592 LINE",
"327 592 LINE",
"327 696 LINE",
"327 696 LINE"
);
},
{
closed = 1;
nodes = (
"412 0 LINE",
"412 82 LINE",
"410 82 LINE",
"383 34 OFFCURVE",
"299 -11 OFFCURVE",
"242 -11 QCURVE SMOOTH",
"191 -11 OFFCURVE",
"123 16 OFFCURVE",
"81 66 OFFCURVE",
"64 135 OFFCURVE",
"64 177 QCURVE SMOOTH",
"64 517 LINE",
"149 517 LINE",
"149 167 LINE SMOOTH",
"149 119 OFFCURVE",
"205 63 OFFCURVE",
"254 63 QCURVE SMOOTH",
"293 63 OFFCURVE",
"350 87 OFFCURVE",
"388 131 OFFCURVE",
"407 190 OFFCURVE",
"407 225 QCURVE SMOOTH",
"407 517 LINE",
"492 517 LINE",
"492 0 LINE",
"492 0 LINE"
);
}
);
userData = {
assembly = "PUSHW[ ]	/* 3 values pushed */\01220 21 3 \012CALL[ ]	/* CallFunction */\012PUSHW[ ]	/* 1 value pushed */\01220 \012SRP0[ ]	/* SetRefPoint0 */\012PUSHW[ ]	/* 3 values pushed */\0127 4 3 \012CALL[ ]	/* CallFunction */\012PUSHW[ ]	/* 1 value pushed */\0127 \012SRP0[ ]	/* SetRefPoint0 */\012PUSHW[ ]	/* 3 values pushed */\0120 21 20 \012SRP1[ ]	/* SetRefPoint1 */\012SRP2[ ]	/* SetRefPoint2 */\012IP[ ]	/* InterpolatePts */\012PUSHW[ ]	/* 1 value pushed */\0120 \012MDAP[1]	/* MoveDirectAbsPt */\012PUSHW[ ]	/* 1 value pushed */\0123 \012MDRP[11100]	/* MoveDirectRelPt */\012PUSHW[ ]	/* 1 value pushed */\0127 \012SRP0[ ]	/* SetRefPoint0 */\012PUSHW[ ]	/* 1 value pushed */\01231 \012MDRP[10000]	/* MoveDirectRelPt */\012PUSHW[ ]	/* 1 value pushed */\01231 \012MDAP[1]	/* MoveDirectAbsPt */\012PUSHW[ ]	/* 1 value pushed */\0129 \012MDRP[11100]	/* MoveDirectRelPt */\012PUSHW[ ]	/* 1 value pushed */\01210 \012SRP0[ ]	/* SetRefPoint0 */\012PUSHW[ ]	/* 1 value pushed */\01232 \012MDRP[10000]	/* MoveDirectRelPt */\012PUSHW[ ]	/* 1 value pushed */\01232 \012MDAP[1]	/* MoveDirectAbsPt */\012SVTCA[0]	/* SetFreedomAndProjectionVectorToAxis */\012PUSHW[ ]	/* 3 values pushed */\01216 27 3 \012CALL[ ]	/* CallFunction */\012PUSHW[ ]	/* 1 value pushed */\01216 \012SRP0[ ]	/* SetRefPoint0 */\012PUSHW[ ]	/* 3 values pushed */\0120 1 3 \012CALL[ ]	/* CallFunction */\012PUSHW[ ]	/* 1 value pushed */\0120 \012SRP0[ ]	/* SetRefPoint0 */\012PUSHW[ ]	/* 1 value pushed */\0124 \012MDRP[10000]	/* MoveDirectRelPt */\012PUSHW[ ]	/* 1 value pushed */\0121 \012SRP0[ ]	/* SetRefPoint0 */\012PUSHW[ ]	/* 1 value pushed */\0125 \012MDRP[10000]	/* MoveDirectRelPt */\012IUP[0]	/* InterpolateUntPts */\012IUP[1]	/* InterpolateUntPts */";
};
width = 556;
}
);
note = udieresis;
unicode = 00FC;
},
{
glyphname = uni0101;
lastChange = "2020-08-05 16:35:22 +0000";
layers = (
{
layerId = "A36D14D1-FF07-4574-A62D-30DF65569781";
paths = (
{
closed = 1;
nodes = (
"522 68 LINE",
"507 63 OFFCURVE",
"496 63 QCURVE SMOOTH",
"476 63 OFFCURVE",
"469 91 OFFCURVE",
"469 121 QCURVE SMOOTH",
"469 387 LINE SMOOTH",
"469 432 OFFCURVE",
"435 488 OFFCURVE",
"379 519 OFFCURVE",
"310 529 OFFCURVE",
"275 529 QCURVE SMOOTH",
"231 529 OFFCURVE",
"154 511 OFFCURVE",
"94 470 OFFCURVE",
"58 404 OFFCURVE",
"56 356 QCURVE",
"141 356 LINE",
"144 413 OFFCURVE",
"216 454 OFFCURVE",
"270 454 QCURVE SMOOTH",
"290 454 OFFCURVE",
"331 448 OFFCURVE",
"364 430 OFFCURVE",
"385 396 OFFCURVE",
"385 368 QCURVE SMOOTH",
"385 344 OFFCURVE",
"357 319 OFFCURVE",
"309 306 OFFCURVE",
"246 299 OFFCURVE",
"211 292 QCURVE SMOOTH",
"178 286 OFFCURVE",
"115 268 OFFCURVE",
"66 233 OFFCURVE",
"36 177 OFFCURVE",
"36 133 QCURVE SMOOTH",
"36 94 OFFCURVE",
"63 39 OFFCURVE",
"109 4 OFFCURVE",
"172 -12 OFFCURVE",
"207 -12 QCURVE SMOOTH",
"261 -12 OFFCURVE",
"354 26 OFFCURVE",
"389 68 QCURVE",
"389 26 OFFCURVE",
"428 -12 OFFCURVE",
"461 -12 QCURVE SMOOTH",
"499 -12 OFFCURVE",
"522 2 QCURVE",
"522 2 LINE"
);
},
{
closed = 1;
nodes = (
"384 180 LINE SMOOTH",
"384 162 OFFCURVE",
"366 121 OFFCURVE",
"328 86 OFFCURVE",
"268 63 OFFCURVE",
"226 63 QCURVE SMOOTH",
"206 63 OFFCURVE",
"170 71 OFFCURVE",
"143 89 OFFCURVE",
"126 118 OFFCURVE",
"126 139 QCURVE SMOOTH",
"126 171 OFFCURVE",
"155 208 OFFCURVE",
"201 228 OFFCURVE",
"259 237 OFFCURVE",
"316 244 OFFCURVE",
"368 255 OFFCURVE",
"384 267 QCURVE",
"384 267 LINE"
);
},
{
closed = 1;
nodes = (
"102 627 LINE",
"443 627 LINE",
"443 682 LINE",
"102 682 LINE",
"102 682 LINE"
);
}
);
userData = {
assembly = "PUSHW[ ]	/* 1 value pushed */\01220 \012CALL[ ]	/* CallFunction */\012PUSHW[ ]	/* 4 values pushed */\01256 3 13 24 \012CALL[ ]	/* CallFunction */\012PUSHW[ ]	/* 4 values pushed */\01231 3 32 24 \012CALL[ ]	/* CallFunction */\012PUSHW[ ]	/* 4 values pushed */\01242 3 49 24 \012CALL[ ]	/* CallFunction */\012PUSHW[ ]	/* 1 value pushed */\01249 \012SRP0[ ]	/* SetRefPoint0 */\012PUSHW[ ]	/* 1 value pushed */\0125 \012MDRP[10000]	/* MoveDirectRelPt */\012PUSHW[ ]	/* 1 value pushed */\0125 \012MDAP[1]	/* MoveDirectAbsPt */\012PUSHW[ ]	/* 1 value pushed */\01249 \012SRP0[ ]	/* SetRefPoint0 */\012PUSHW[ ]	/* 1 value pushed */\01223 \012MDRP[10000]	/* MoveDirectRelPt */\012PUSHW[ ]	/* 1 value pushed */\01223 \012MDAP[1]	/* MoveDirectAbsPt */\012SVTCA[0]	/* SetFreedomAndProjectionVectorToAxis */\012PUSHW[ ]	/* 1 value pushed */\0121 \012RCVT[ ]	/* ReadCVT */\012IF[ ]	/* If */\012PUSHW[ ]	/* 1 value pushed */\01237 \012MDAP[1]	/* MoveDirectAbsPt */\012ELSE[ ]	/* Else */\012PUSHW[ ]	/* 2 values pushed */\01237 8 \012MIAP[0]	/* MoveIndirectAbsPt */\012EIF[ ]	/* EndIf */\012PUSHW[ ]	/* 1 value pushed */\0121 \012RCVT[ ]	/* ReadCVT */\012IF[ ]	/* If */\012PUSHW[ ]	/* 1 value pushed */\0122 \012MDAP[1]	/* MoveDirectAbsPt */\012ELSE[ ]	/* Else */\012PUSHW[ ]	/* 2 values pushed */\0122 4 \012MIAP[0]	/* MoveIndirectAbsPt */\012EIF[ ]	/* EndIf */\012PUSHW[ ]	/* 1 value pushed */\0121 \012RCVT[ ]	/* ReadCVT */\012IF[ ]	/* If */\012PUSHW[ ]	/* 1 value pushed */\0128 \012MDAP[1]	/* MoveDirectAbsPt */\012ELSE[ ]	/* Else */\012PUSHW[ ]	/* 2 values pushed */\0128 4 \012MIAP[0]	/* MoveIndirectAbsPt */\012EIF[ ]	/* EndIf */\012PUSHW[ ]	/* 4 values pushed */\01268 2 69 24 \012CALL[ ]	/* CallFunction */\012PUSHW[ ]	/* 1 value pushed */\01237 \012SRP0[ ]	/* SetRefPoint0 */\012PUSHW[ ]	/* 2 values pushed */\01228 2 \012MIRP[10100]	/* MoveIndirectRelPt */\012PUSHW[ ]	/* 1 value pushed */\01237 \012SRP0[ ]	/* SetRefPoint0 */\012PUSHW[ ]	/* 1 value pushed */\01231 \012MDRP[11100]	/* MoveDirectRelPt */\012PUSHW[ ]	/* 1 value pushed */\0122 \012SRP0[ ]	/* SetRefPoint0 */\012PUSHW[ ]	/* 2 values pushed */\01246 2 \012MIRP[10100]	/* MoveIndirectRelPt */\012PUSHW[ ]	/* 1 value pushed */\01261 \012MDRP[10000]	/* MoveDirectRelPt */\012IUP[0]	/* InterpolateUntPts */\012IUP[1]	/* InterpolateUntPts */";
};
width = 537;
}
);
note = uni0101;
unicode = 0101;
},
{
glyphname = uni0109;
lastChange = "2020-08-05 16:35:22 +0000";
layers = (
{
layerId = "A36D14D1-FF07-4574-A62D-30DF65569781";
paths = (
{
closed = 1;
nodes = (
"503 351 LINE",
"498 397 OFFCURVE",
"460 464 OFFCURVE",
"401 508 OFFCURVE",
"324 529 OFFCURVE",
"280 529 QCURVE SMOOTH",
"218 529 OFFCURVE",
"127 486 OFFCURVE",
"66 411 OFFCURVE",
"36 310 OFFCURVE",
"36 252 QCURVE SMOOTH",
"36 194 OFFCURVE",
"67 97 OFFCURVE",
"128 27 OFFCURVE",
"219 -12 OFFCURVE",
"278 -12 QCURVE SMOOTH",
"377 -12 OFFCURVE",
"492 93 OFFCURVE",
"506 189 QCURVE",
"419 189 LINE",
"411 129 OFFCURVE",
"340 63 OFFCURVE",
"277 63 QCURVE SMOOTH",
"236 63 OFFCURVE",
"179 95 OFFCURVE",
"143 148 OFFCURVE",
"126 216 OFFCURVE",
"126 252 QCURVE SMOOTH",
"126 291 OFFCURVE",
"142 364 OFFCURVE",
"179 420 OFFCURVE",
"241 454 OFFCURVE",
"287 454 QCURVE SMOOTH",
"341 454 OFFCURVE",
"405 400 OFFCURVE",
"415 351 QCURVE",
"415 351 LINE"
);
},
{
closed = 1;
nodes = (
"135 589 LINE",
"212 589 LINE",
"282 685 LINE",
"351 589 LINE",
"435 589 LINE",
"331 732 LINE",
"238 732 LINE",
"238 732 LINE"
);
}
);
userData = {
assembly = "PUSHW[ ]	/* 1 value pushed */\01220 \012CALL[ ]	/* CallFunction */\012PUSHW[ ]	/* 4 values pushed */\0128 3 25 24 \012CALL[ ]	/* CallFunction */\012SVTCA[0]	/* SetFreedomAndProjectionVectorToAxis */\012PUSHW[ ]	/* 1 value pushed */\01238 \012MDAP[1]	/* MoveDirectAbsPt */\012PUSHW[ ]	/* 1 value pushed */\01241 \012MDAP[1]	/* MoveDirectAbsPt */\012PUSHW[ ]	/* 1 value pushed */\01216 \012MDAP[1]	/* MoveDirectAbsPt */\012PUSHW[ ]	/* 1 value pushed */\0121 \012RCVT[ ]	/* ReadCVT */\012IF[ ]	/* If */\012PUSHW[ ]	/* 1 value pushed */\01236 \012MDAP[1]	/* MoveDirectAbsPt */\012ELSE[ ]	/* Else */\012PUSHW[ ]	/* 2 values pushed */\01236 10 \012MIAP[0]	/* MoveIndirectAbsPt */\012EIF[ ]	/* EndIf */\012PUSHW[ ]	/* 1 value pushed */\0121 \012RCVT[ ]	/* ReadCVT */\012IF[ ]	/* If */\012PUSHW[ ]	/* 1 value pushed */\01230 \012MDAP[1]	/* MoveDirectAbsPt */\012ELSE[ ]	/* Else */\012PUSHW[ ]	/* 2 values pushed */\01230 8 \012MIAP[0]	/* MoveIndirectAbsPt */\012EIF[ ]	/* EndIf */\012PUSHW[ ]	/* 1 value pushed */\0121 \012RCVT[ ]	/* ReadCVT */\012IF[ ]	/* If */\012PUSHW[ ]	/* 1 value pushed */\01220 \012MDAP[1]	/* MoveDirectAbsPt */\012ELSE[ ]	/* Else */\012PUSHW[ ]	/* 2 values pushed */\01220 4 \012MIAP[0]	/* MoveIndirectAbsPt */\012EIF[ ]	/* EndIf */\012PUSHW[ ]	/* 1 value pushed */\01230 \012SRP0[ ]	/* SetRefPoint0 */\012PUSHW[ ]	/* 1 value pushed */\0120 \012MDRP[11100]	/* MoveDirectRelPt */\012PUSHW[ ]	/* 1 value pushed */\01230 \012SRP0[ ]	/* SetRefPoint0 */\012PUSHW[ ]	/* 2 values pushed */\0123 2 \012MIRP[10100]	/* MoveIndirectRelPt */\012PUSHW[ ]	/* 1 value pushed */\01220 \012SRP0[ ]	/* SetRefPoint0 */\012PUSHW[ ]	/* 2 values pushed */\01213 2 \012MIRP[10100]	/* MoveIndirectRelPt */\012IUP[0]	/* InterpolateUntPts */\012IUP[1]	/* InterpolateUntPts */";
};
width = 537;
}
);
note = uni0109;
unicode = 0109;
},
{
glyphname = uni010B;
lastChange = "2020-08-05 16:35:22 +0000";
layers = (
{
layerId = "A36D14D1-FF07-4574-A62D-30DF65569781";
paths = (
{
closed = 1;
nodes = (
"503 351 LINE",
"498 397 OFFCURVE",
"460 464 OFFCURVE",
"401 508 OFFCURVE",
"324 529 OFFCURVE",
"280 529 QCURVE SMOOTH",
"218 529 OFFCURVE",
"127 486 OFFCURVE",
"66 411 OFFCURVE",
"36 310 OFFCURVE",
"36 252 QCURVE SMOOTH",
"36 194 OFFCURVE",
"67 97 OFFCURVE",
"128 27 OFFCURVE",
"219 -12 OFFCURVE",
"278 -12 QCURVE SMOOTH",
"377 -12 OFFCURVE",
"492 93 OFFCURVE",
"506 189 QCURVE",
"419 189 LINE",
"411 129 OFFCURVE",
"340 63 OFFCURVE",
"277 63 QCURVE SMOOTH",
"236 63 OFFCURVE",
"179 95 OFFCURVE",
"143 148 OFFCURVE",
"126 216 OFFCURVE",
"126 252 QCURVE SMOOTH",
"126 291 OFFCURVE",
"142 364 OFFCURVE",
"179 420 OFFCURVE",
"241 454 OFFCURVE",
"287 454 QCURVE SMOOTH",
"341 454 OFFCURVE",
"405 400 OFFCURVE",
"415 351 QCURVE",
"415 351 LINE"
);
},
{
closed = 1;
nodes = (
"329 708 LINE",
"239 708 LINE",
"239 604 LINE",
"329 604 LINE",
"329 604 LINE"
);
}
);
userData = {
assembly = "PUSHW[ ]	/* 1 value pushed */\01220 \012CALL[ ]	/* CallFunction */\012PUSHW[ ]	/* 1 value pushed */\01240 \012MDAP[1]	/* MoveDirectAbsPt */\012PUSHW[ ]	/* 1 value pushed */\01237 \012MDAP[1]	/* MoveDirectAbsPt */\012PUSHW[ ]	/* 1 value pushed */\01240 \012SRP0[ ]	/* SetRefPoint0 */\012PUSHW[ ]	/* 1 value pushed */\01225 \012MDRP[10000]	/* MoveDirectRelPt */\012PUSHW[ ]	/* 1 value pushed */\01225 \012MDAP[1]	/* MoveDirectAbsPt */\012PUSHW[ ]	/* 2 values pushed */\0128 3 \012MIRP[10100]	/* MoveIndirectRelPt */\012PUSHW[ ]	/* 1 value pushed */\01237 \012SRP0[ ]	/* SetRefPoint0 */\012PUSHW[ ]	/* 2 values pushed */\01236 3 \012MIRP[10100]	/* MoveIndirectRelPt */\012SVTCA[0]	/* SetFreedomAndProjectionVectorToAxis */\012PUSHW[ ]	/* 1 value pushed */\01216 \012MDAP[1]	/* MoveDirectAbsPt */\012PUSHW[ ]	/* 1 value pushed */\0121 \012RCVT[ ]	/* ReadCVT */\012IF[ ]	/* If */\012PUSHW[ ]	/* 1 value pushed */\01230 \012MDAP[1]	/* MoveDirectAbsPt */\012ELSE[ ]	/* Else */\012PUSHW[ ]	/* 2 values pushed */\01230 8 \012MIAP[0]	/* MoveIndirectAbsPt */\012EIF[ ]	/* EndIf */\012PUSHW[ ]	/* 1 value pushed */\0121 \012RCVT[ ]	/* ReadCVT */\012IF[ ]	/* If */\012PUSHW[ ]	/* 1 value pushed */\01220 \012MDAP[1]	/* MoveDirectAbsPt */\012ELSE[ ]	/* Else */\012PUSHW[ ]	/* 2 values pushed */\01220 4 \012MIAP[0]	/* MoveIndirectAbsPt */\012EIF[ ]	/* EndIf */\012PUSHW[ ]	/* 4 values pushed */\01239 2 36 24 \012CALL[ ]	/* CallFunction */\012PUSHW[ ]	/* 1 value pushed */\01230 \012SRP0[ ]	/* SetRefPoint0 */\012PUSHW[ ]	/* 1 value pushed */\0120 \012MDRP[11100]	/* MoveDirectRelPt */\012PUSHW[ ]	/* 1 value pushed */\01230 \012SRP0[ ]	/* SetRefPoint0 */\012PUSHW[ ]	/* 2 values pushed */\0123 2 \012MIRP[10100]	/* MoveIndirectRelPt */\012PUSHW[ ]	/* 1 value pushed */\01220 \012SRP0[ ]	/* SetRefPoint0 */\012PUSHW[ ]	/* 2 values pushed */\01213 2 \012MIRP[10100]	/* MoveIndirectRelPt */\012IUP[0]	/* InterpolateUntPts */\012IUP[1]	/* InterpolateUntPts */";
};
width = 537;
}
);
note = uni010B;
unicode = 010B;
},
{
glyphname = uni010D;
lastChange = "2020-08-05 16:35:22 +0000";
layers = (
{
layerId = "A36D14D1-FF07-4574-A62D-30DF65569781";
paths = (
{
closed = 1;
nodes = (
"503 351 LINE",
"498 397 OFFCURVE",
"460 464 OFFCURVE",
"401 508 OFFCURVE",
"324 529 OFFCURVE",
"280 529 QCURVE SMOOTH",
"218 529 OFFCURVE",
"127 486 OFFCURVE",
"66 411 OFFCURVE",
"36 310 OFFCURVE",
"36 252 QCURVE SMOOTH",
"36 194 OFFCURVE",
"67 97 OFFCURVE",
"128 27 OFFCURVE",
"219 -12 OFFCURVE",
"278 -12 QCURVE SMOOTH",
"377 -12 OFFCURVE",
"492 93 OFFCURVE",
"506 189 QCURVE",
"419 189 LINE",
"411 129 OFFCURVE",
"340 63 OFFCURVE",
"277 63 QCURVE SMOOTH",
"236 63 OFFCURVE",
"179 95 OFFCURVE",
"143 148 OFFCURVE",
"126 216 OFFCURVE",
"126 252 QCURVE SMOOTH",
"126 291 OFFCURVE",
"142 364 OFFCURVE",
"179 420 OFFCURVE",
"241 454 OFFCURVE",
"287 454 QCURVE SMOOTH",
"341 454 OFFCURVE",
"405 400 OFFCURVE",
"415 351 QCURVE",
"415 351 LINE"
);
},
{
closed = 1;
nodes = (
"430 732 LINE",
"353 732 LINE",
"283 636 LINE",
"214 732 LINE",
"130 732 LINE",
"234 589 LINE",
"327 589 LINE",
"327 589 LINE"
);
}
);
userData = {
assembly = "PUSHW[ ]	/* 1 value pushed */\01220 \012CALL[ ]	/* CallFunction */\012PUSHW[ ]	/* 4 values pushed */\0128 3 25 24 \012CALL[ ]	/* CallFunction */\012SVTCA[0]	/* SetFreedomAndProjectionVectorToAxis */\012PUSHW[ ]	/* 1 value pushed */\01236 \012MDAP[1]	/* MoveDirectAbsPt */\012PUSHW[ ]	/* 1 value pushed */\01216 \012MDAP[1]	/* MoveDirectAbsPt */\012PUSHW[ ]	/* 1 value pushed */\0121 \012RCVT[ ]	/* ReadCVT */\012IF[ ]	/* If */\012PUSHW[ ]	/* 1 value pushed */\01238 \012MDAP[1]	/* MoveDirectAbsPt */\012ELSE[ ]	/* Else */\012PUSHW[ ]	/* 2 values pushed */\01238 10 \012MIAP[0]	/* MoveIndirectAbsPt */\012EIF[ ]	/* EndIf */\012PUSHW[ ]	/* 1 value pushed */\0121 \012RCVT[ ]	/* ReadCVT */\012IF[ ]	/* If */\012PUSHW[ ]	/* 1 value pushed */\01241 \012MDAP[1]	/* MoveDirectAbsPt */\012ELSE[ ]	/* Else */\012PUSHW[ ]	/* 2 values pushed */\01241 10 \012MIAP[0]	/* MoveIndirectAbsPt */\012EIF[ ]	/* EndIf */\012PUSHW[ ]	/* 1 value pushed */\0121 \012RCVT[ ]	/* ReadCVT */\012IF[ ]	/* If */\012PUSHW[ ]	/* 1 value pushed */\01230 \012MDAP[1]	/* MoveDirectAbsPt */\012ELSE[ ]	/* Else */\012PUSHW[ ]	/* 2 values pushed */\01230 8 \012MIAP[0]	/* MoveIndirectAbsPt */\012EIF[ ]	/* EndIf */\012PUSHW[ ]	/* 1 value pushed */\0121 \012RCVT[ ]	/* ReadCVT */\012IF[ ]	/* If */\012PUSHW[ ]	/* 1 value pushed */\01220 \012MDAP[1]	/* MoveDirectAbsPt */\012ELSE[ ]	/* Else */\012PUSHW[ ]	/* 2 values pushed */\01220 4 \012MIAP[0]	/* MoveIndirectAbsPt */\012EIF[ ]	/* EndIf */\012PUSHW[ ]	/* 1 value pushed */\01230 \012SRP0[ ]	/* SetRefPoint0 */\012PUSHW[ ]	/* 1 value pushed */\0120 \012MDRP[11100]	/* MoveDirectRelPt */\012PUSHW[ ]	/* 1 value pushed */\01230 \012SRP0[ ]	/* SetRefPoint0 */\012PUSHW[ ]	/* 2 values pushed */\0123 2 \012MIRP[10100]	/* MoveIndirectRelPt */\012PUSHW[ ]	/* 1 value pushed */\01220 \012SRP0[ ]	/* SetRefPoint0 */\012PUSHW[ ]	/* 2 values pushed */\01213 2 \012MIRP[10100]	/* MoveIndirectRelPt */\012IUP[0]	/* InterpolateUntPts */\012IUP[1]	/* InterpolateUntPts */";
};
width = 537;
}
);
note = uni010D;
unicode = 010D;
},
{
glyphname = uni010F;
lastChange = "2020-08-10 02:07:25 +0000";
layers = (
{
layerId = "A36D14D1-FF07-4574-A62D-30DF65569781";
paths = (
{
closed = 1;
nodes = (
"526 714 LINE",
"441 714 LINE",
"441 448 LINE",
"439 448 LINE",
"425 471 OFFCURVE",
"384 502 OFFCURVE",
"338 521 OFFCURVE",
"291 529 OFFCURVE",
"272 529 QCURVE SMOOTH",
"213 529 OFFCURVE",
"124 486 OFFCURVE",
"65 412 OFFCURVE",
"36 315 OFFCURVE",
"36 260 QCURVE SMOOTH",
"36 205 OFFCURVE",
"66 107 OFFCURVE",
"125 32 OFFCURVE",
"214 -12 OFFCURVE",
"274 -12 QCURVE SMOOTH",
"328 -12 OFFCURVE",
"418 27 OFFCURVE",
"439 70 QCURVE",
"441 70 LINE",
"441 0 LINE",
"526 0 LINE",
"526 0 LINE"
);
},
{
closed = 1;
nodes = (
"126 292 OFFCURVE",
"142 364 OFFCURVE",
"178 420 OFFCURVE",
"237 454 OFFCURVE",
"281 454 QCURVE SMOOTH",
"325 454 OFFCURVE",
"387 421 OFFCURVE",
"426 367 OFFCURVE",
"444 296 OFFCURVE",
"444 258 QCURVE SMOOTH",
"444 222 OFFCURVE",
"427 152 OFFCURVE",
"389 97 OFFCURVE",
"329 63 OFFCURVE",
"286 63 QCURVE SMOOTH",
"245 63 OFFCURVE",
"184 95 OFFCURVE",
"145 149 OFFCURVE",
"126 218 OFFCURVE",
"126 254 QCURVE",
"126 254 LINE"
);
},
{
closed = 1;
nodes = (
"576 571 LINE",
"636 571 LINE",
"711 714 LINE",
"602 714 LINE",
"602 714 LINE"
);
}
);
userData = {
assembly = "PUSHW[ ]	/* 1 value pushed */\01220 \012CALL[ ]	/* CallFunction */\012PUSHW[ ]	/* 1 value pushed */\01249 \012MDAP[1]	/* MoveDirectAbsPt */\012PUSHW[ ]	/* 1 value pushed */\0121 \012MDAP[1]	/* MoveDirectAbsPt */\012PUSHW[ ]	/* 2 values pushed */\0120 3 \012MIRP[10100]	/* MoveIndirectRelPt */\012PUSHW[ ]	/* 1 value pushed */\0121 \012SRP0[ ]	/* SetRefPoint0 */\012PUSHW[ ]	/* 1 value pushed */\0123 \012MDRP[10000]	/* MoveDirectRelPt */\012PUSHW[ ]	/* 1 value pushed */\0123 \012MDAP[1]	/* MoveDirectAbsPt */\012PUSHW[ ]	/* 1 value pushed */\01249 \012SRP0[ ]	/* SetRefPoint0 */\012PUSHW[ ]	/* 1 value pushed */\01211 \012MDRP[10000]	/* MoveDirectRelPt */\012PUSHW[ ]	/* 1 value pushed */\01211 \012MDAP[1]	/* MoveDirectAbsPt */\012PUSHW[ ]	/* 1 value pushed */\0121 \012SRP0[ ]	/* SetRefPoint0 */\012PUSHW[ ]	/* 1 value pushed */\01221 \012MDRP[10000]	/* MoveDirectRelPt */\012PUSHW[ ]	/* 1 value pushed */\01221 \012MDAP[1]	/* MoveDirectAbsPt */\012PUSHW[ ]	/* 1 value pushed */\0121 \012SRP0[ ]	/* SetRefPoint0 */\012PUSHW[ ]	/* 1 value pushed */\01223 \012MDRP[10000]	/* MoveDirectRelPt */\012PUSHW[ ]	/* 1 value pushed */\01211 \012SRP0[ ]	/* SetRefPoint0 */\012PUSHW[ ]	/* 2 values pushed */\01225 3 \012MIRP[10100]	/* MoveIndirectRelPt */\012PUSHW[ ]	/* 1 value pushed */\0121 \012SRP0[ ]	/* SetRefPoint0 */\012PUSHW[ ]	/* 1 value pushed */\01235 \012MDRP[10000]	/* MoveDirectRelPt */\012PUSHW[ ]	/* 1 value pushed */\01235 \012MDAP[1]	/* MoveDirectAbsPt */\012SVTCA[0]	/* SetFreedomAndProjectionVectorToAxis */\012PUSHW[ ]	/* 1 value pushed */\0122 \012MDAP[1]	/* MoveDirectAbsPt */\012PUSHW[ ]	/* 1 value pushed */\01230 \012MDAP[1]	/* MoveDirectAbsPt */\012PUSHW[ ]	/* 1 value pushed */\01247 \012MDAP[1]	/* MoveDirectAbsPt */\012PUSHW[ ]	/* 1 value pushed */\01221 \012MDAP[1]	/* MoveDirectAbsPt */\012PUSHW[ ]	/* 1 value pushed */\01240 \012MDAP[1]	/* MoveDirectAbsPt */\012PUSHW[ ]	/* 1 value pushed */\0121 \012RCVT[ ]	/* ReadCVT */\012IF[ ]	/* If */\012PUSHW[ ]	/* 1 value pushed */\01223 \012MDAP[1]	/* MoveDirectAbsPt */\012ELSE[ ]	/* Else */\012PUSHW[ ]	/* 2 values pushed */\01223 10 \012MIAP[0]	/* MoveIndirectAbsPt */\012EIF[ ]	/* EndIf */\012PUSHW[ ]	/* 1 value pushed */\0121 \012RCVT[ ]	/* ReadCVT */\012IF[ ]	/* If */\012PUSHW[ ]	/* 1 value pushed */\01245 \012MDAP[1]	/* MoveDirectAbsPt */\012ELSE[ ]	/* Else */\012PUSHW[ ]	/* 2 values pushed */\01245 10 \012MIAP[0]	/* MoveIndirectAbsPt */\012EIF[ ]	/* EndIf */\012PUSHW[ ]	/* 1 value pushed */\0121 \012RCVT[ ]	/* ReadCVT */\012IF[ ]	/* If */\012PUSHW[ ]	/* 1 value pushed */\01216 \012MDAP[1]	/* MoveDirectAbsPt */\012ELSE[ ]	/* Else */\012PUSHW[ ]	/* 2 values pushed */\01216 8 \012MIAP[0]	/* MoveIndirectAbsPt */\012EIF[ ]	/* EndIf */\012PUSHW[ ]	/* 1 value pushed */\0121 \012RCVT[ ]	/* ReadCVT */\012IF[ ]	/* If */\012PUSHW[ ]	/* 1 value pushed */\0120 \012MDAP[1]	/* MoveDirectAbsPt */\012ELSE[ ]	/* Else */\012PUSHW[ ]	/* 2 values pushed */\0120 4 \012MIAP[0]	/* MoveIndirectAbsPt */\012EIF[ ]	/* EndIf */\012PUSHW[ ]	/* 1 value pushed */\0121 \012RCVT[ ]	/* ReadCVT */\012IF[ ]	/* If */\012PUSHW[ ]	/* 1 value pushed */\0126 \012MDAP[1]	/* MoveDirectAbsPt */\012ELSE[ ]	/* Else */\012PUSHW[ ]	/* 2 values pushed */\0126 4 \012MIAP[0]	/* MoveIndirectAbsPt */\012EIF[ ]	/* EndIf */\012IUP[0]	/* InterpolateUntPts */\012IUP[1]	/* InterpolateUntPts */";
};
width = 731;
}
);
note = uni010F;
unicode = 010F;
},
